<svg width="200" height="200" viewBox="0 0 200 200" fill="none" xmlns="http://www.w3.org/2000/svg">
<mask id="mask0_135_680" style="mask-type:alpha" maskUnits="userSpaceOnUse" x="0" y="0" width="200" height="200">
<rect width="200" height="200" rx="16" fill="white"/>
</mask>
<g mask="url(#mask0_135_680)">
<mask id="mask1_135_680" style="mask-type:alpha" maskUnits="userSpaceOnUse" x="0" y="0" width="200" height="200">
<rect width="200" height="200" rx="16" fill="white"/>
</mask>
<g mask="url(#mask1_135_680)">
<rect width="200" height="200" rx="16" fill="white"/>
<mask id="mask2_135_680" style="mask-type:alpha" maskUnits="userSpaceOnUse" x="-28" y="0" width="273" height="294">
<rect x="-28" width="272.443" height="293.4" fill="#D9D9D9"/>
</mask>
<g mask="url(#mask2_135_680)">
<g clip-path="url(#clip0_135_680)">
<path d="M0.920248 187.438C-4.98961 189.885 -10.2875 193.782 -14.3777 198.694C-13.798 199.128 -12.9929 198.758 -12.3649 198.388C-8.56451 196.101 -4.81247 193.605 -0.609551 192.172C-0.0620441 191.979 0.517669 191.801 0.904144 191.367C1.43555 190.787 1.46776 189.885 1.25841 189.128L0.904144 187.438H0.920248Z" fill="#3A3B3C"/>
<path d="M4.35015 194.94C-0.690137 198.87 -4.76423 204.039 -7.40515 209.852C-6.72882 210.11 -6.05249 209.546 -5.55329 209.031C-2.49369 205.81 0.453186 202.412 4.1247 199.916C4.6078 199.594 5.107 199.256 5.38075 198.741C5.73502 198.032 5.52568 197.163 5.1392 196.486L4.35015 194.94Z" fill="#3A3B3C"/>
<path d="M1.90155 191.785C-3.63794 194.974 -8.37226 199.547 -11.7861 204.958C-11.1581 205.312 -10.4013 204.845 -9.83765 204.394C-6.37547 201.624 -2.97771 198.661 0.99977 196.697C1.51507 196.439 2.06258 196.181 2.40074 195.698C2.85163 195.054 2.77112 194.152 2.46516 193.428L1.90155 191.785Z" fill="#3A3B3C"/>
<path d="M69.1837 138.788C67.3963 136.115 64.8842 133.989 62.6619 131.67C60.5685 133.377 58.2819 134.875 56.2529 136.678C54.9485 137.838 53.8374 140.141 55.335 141.042C50.7778 147.29 44.9807 152.637 38.3784 156.679C35.8341 158.241 33.1449 159.625 30.9226 161.622C30.4556 162.041 30.0047 162.492 29.4894 162.862C28.7809 163.361 27.9596 163.683 27.1545 164.006C16.8002 168.273 7.54085 175.133 0.45546 183.812C-0.913308 185.487 -2.23377 187.307 -2.62024 189.432C-3.32878 193.378 -0.430214 197.323 3.2413 198.901C6.92893 200.495 11.148 200.189 15.061 199.352C16.0111 201.027 18.5071 200.672 20.3106 200.012C27.4443 197.371 34.0788 193.378 39.7472 188.305C41.7278 189.4 44.1755 188.869 46.3333 188.192C54.4654 185.616 62.0178 181.236 68.3141 175.471C71.2932 172.75 74.0469 169.674 77.6057 167.774C77.9438 167.597 78.2981 167.436 78.6363 167.274C76.9776 159.964 74.9003 152.766 72.356 145.712C71.5026 143.313 70.5686 140.914 69.1515 138.788H69.1837Z" fill="#FEB2B6"/>
<path d="M93.8877 163.926L68.4769 122.138C68.3964 125.407 66.3674 128.354 63.9519 130.576C63.5332 130.963 63.0984 131.317 62.6636 131.671C64.8859 133.99 67.398 136.116 69.1854 138.789C70.6025 140.914 71.5204 143.314 72.3899 145.713C74.9181 152.766 77.0115 159.964 78.6702 167.275C81.7942 165.858 85.2564 165.295 88.6541 164.763C90.3933 164.489 92.1485 164.216 93.8877 163.942V163.926Z" fill="#D88185"/>
<path d="M188.764 95.7141C190.052 96.0845 190.954 94.7963 190.938 93.6368C190.938 93.2504 190.599 93.0571 190.245 93.1054C189.907 93.1537 189.73 93.2182 189.52 93.4919C189.392 93.6529 189.263 93.8301 189.134 93.9911C188.908 94.2971 188.667 94.603 188.442 94.909C188.264 95.1505 188.409 95.5209 188.635 95.6658C188.909 95.8269 189.198 95.698 189.392 95.4726C189.778 94.9734 190.148 94.4742 190.535 93.975C190.422 94.0555 190.309 94.136 190.213 94.2327C190.326 94.2166 190.438 94.2005 190.551 94.1843C190.326 94.0072 190.084 93.8301 189.859 93.6529C189.859 94.0716 189.633 94.8446 189.07 94.6674C188.393 94.4742 188.103 95.5209 188.78 95.7302L188.764 95.7141Z" fill="#FEB2B6"/>
<path d="M158.409 248.114C158.489 240.674 157.088 233.299 155.204 226.101C150.937 209.74 144.19 194.007 135.285 179.627C129.471 170.239 122.466 161.189 112.853 155.779C103.98 150.787 92.4824 149.53 83.6418 154.313C85.9606 160.754 87.732 167.357 87.7481 174.168L88.0863 177.002C86.2344 185.086 82.8527 192.735 80.405 200.658C78.7142 206.133 77.4582 211.737 76.2182 217.341C74.157 226.6 72.0797 236.021 72.7722 245.473C73.0781 249.708 73.9477 253.879 74.93 258.001C76.2987 263.766 77.9252 269.547 80.8237 274.716C83.7223 279.885 88.0218 284.459 93.513 286.681C95.9285 287.663 98.5694 288.211 100.598 289.837C101.548 290.61 102.305 291.576 103.143 292.446C108.521 298.098 116.975 299.805 124.753 299.161C132.161 298.549 139.278 296.101 146.492 294.249C148.07 290.063 149.52 285.811 150.937 281.56C154.576 270.674 158.264 259.563 158.393 248.082L158.409 248.114Z" fill="#FFE5B8"/>
<path d="M296.189 99.8186C292.855 95.1326 286.591 93.6672 280.842 93.4257C276.607 93.2485 272.372 93.5545 268.153 93.8605C255.287 94.7783 242.436 95.7123 229.57 96.6302C229.828 94.6817 228.33 92.8621 226.526 92.0891C224.723 91.3162 222.694 91.3484 220.745 91.3967C210.584 91.6382 200.391 91.8798 190.391 93.6511C190.439 94.5368 189.731 95.503 188.909 95.197L190.053 93.6994C190.166 93.6833 190.278 93.6672 190.391 93.6511C190.391 93.474 190.343 93.2968 190.262 93.1358C189.795 92.1857 188.684 91.7832 187.67 91.4772C176.574 88.0794 164.191 85.9699 156.381 77.403C154.884 75.7444 153.611 73.9087 152.21 72.1695C149.457 68.7073 146.252 65.6477 143.015 62.6364C136.961 57.0003 130.632 51.4609 123.144 47.9343C116.107 44.617 108.329 43.2161 100.568 42.6202C91.0184 41.8795 81.0345 42.3948 72.4676 46.6943L64.255 49.0776C59.9877 53.0712 56.5094 57.8377 53.0472 62.5559C50.1647 66.4851 47.2501 70.5109 45.6881 75.1164C44.1744 79.5609 44.0294 84.3113 44.8507 88.949C45.3821 87.9989 45.994 87.081 46.6221 86.2115C52.8057 77.5641 60.4386 69.9634 69.102 63.8281C73.7398 60.543 78.78 57.6284 84.3517 56.5334C89.9234 55.4383 96.1231 56.3723 100.407 60.0922C101.55 61.0905 102.548 62.25 103.418 63.4899C105.205 66.0181 106.574 68.9006 106.961 71.9602C107.685 77.7734 104.883 83.4578 101.534 88.2727C92.049 101.928 78.0232 111.526 63.2727 119.448C63.6109 119.819 63.9651 120.205 64.3033 120.576C67.9104 124.521 71.5336 128.482 74.3195 133.039C76.6866 136.904 78.3936 141.123 80.1005 145.326C81.3082 148.305 82.5321 151.317 83.611 154.36C92.4516 149.577 103.949 150.833 112.822 155.825C122.436 161.236 129.441 170.302 135.254 179.674C144.159 194.054 150.89 209.771 155.173 226.148C157.057 233.346 158.458 240.721 158.378 248.161C158.249 259.642 154.561 270.754 150.922 281.639C149.505 285.891 148.072 290.142 146.478 294.329C146.832 294.232 147.17 294.151 147.524 294.055L147.444 294.377C145.286 298.467 144.368 303.185 144.803 307.791C156.687 307.871 168.571 307.71 180.455 307.34C181.695 307.308 183.016 307.227 183.998 306.47C185.125 305.585 185.447 304.055 185.769 302.654C189.054 288.193 199.248 275.778 201.164 261.076L200.069 260.126C202.211 260.077 204.191 258.789 205.496 257.098C206.8 255.407 207.557 253.346 208.153 251.285C210.697 242.476 210.955 233.024 208.861 224.087C208.636 223.104 208.378 222.042 208.716 221.091C208.942 220.447 209.425 219.916 209.827 219.352C211.631 216.76 211.679 213.378 211.615 210.222C211.389 199.578 210.633 188.95 209.328 178.386C209.248 177.774 209.183 177.146 209.216 176.534C209.264 175.858 209.457 175.197 209.618 174.537C211.438 167.081 209.199 159.207 205.995 152.218C202.79 145.246 198.604 138.676 196.188 131.397L196.558 130.704C205.174 132.122 213.95 132.685 222.678 132.379C222.436 131.977 222.195 131.574 221.953 131.171C240.907 134.827 245.496 132.17 247.251 128.901L247.928 129.77C252.791 130.318 257.686 129.529 262.517 128.74C264.965 128.337 267.412 127.935 269.86 127.548C274.916 126.727 280.005 125.89 284.755 123.957C289.49 122.025 293.918 118.885 296.398 114.408C298.894 109.931 299.119 104.022 296.156 99.8508L296.189 99.8186Z" fill="#FEB2B6"/>
<path d="M96.9579 73.7982C93.3347 74.2813 89.1801 74.2491 86.5875 71.6726C83.8821 69.0156 83.9304 64.4745 85.6374 61.0928C86.6036 59.1765 88.0045 57.5662 89.5665 56.0686C87.8274 56.0042 86.0561 56.1492 84.3652 56.4873C78.7935 57.5823 73.7532 60.497 69.1155 63.782C60.452 69.9173 52.8191 77.518 46.6355 86.1654C46.0075 87.035 45.3956 87.9529 44.8642 88.903C45.1702 90.6904 45.6371 92.4457 46.2169 94.1848C48.2298 92.5584 50.3715 91.1252 52.8192 90.3522C56.4263 89.2089 60.919 89.9336 63.093 93.0254C65.2025 96.0205 64.5422 100.111 63.4633 103.605C62.5132 106.665 61.2894 109.708 59.2121 112.156C58.8256 112.607 58.4069 113.025 57.9722 113.428C59.6952 115.457 61.4826 117.438 63.2701 119.402C78.0206 111.496 92.0464 101.882 101.531 88.2266C104.881 83.4118 107.683 77.7435 106.958 71.9141C106.91 71.4632 106.813 71.0285 106.716 70.5937C106.491 70.7386 106.282 70.8835 106.056 71.0285C103.303 72.6549 100.098 73.3795 96.9257 73.7982H96.9579Z" fill="#FFE5B8"/>
<path d="M100.42 60.0624C97.4405 57.4859 93.5436 56.246 89.5661 56.085C88.0041 57.5665 86.6031 59.1929 85.6369 61.1091C83.9139 64.4908 83.8817 69.0319 86.587 71.6889C89.1957 74.2654 93.3342 74.2976 96.9574 73.8145C100.13 73.3958 103.334 72.6712 106.088 71.0448C106.313 70.916 106.523 70.7549 106.748 70.61C106.185 68.0335 104.977 65.618 103.447 63.4602C102.561 62.2203 101.579 61.0608 100.436 60.0624H100.42Z" fill="#E25243"/>
<path d="M59.2278 112.172C61.2891 109.725 62.529 106.681 63.4791 103.622C64.558 100.127 65.2021 96.0371 63.1087 93.0419C60.9348 89.934 56.442 89.2255 52.8349 90.3688C50.3872 91.1418 48.2455 92.5749 46.2326 94.2014C46.9089 96.2304 47.7302 98.1949 48.6964 100.079C51.1924 104.926 54.4613 109.29 58.004 113.445C58.4388 113.042 58.8575 112.623 59.244 112.172H59.2278Z" fill="#E25243"/>
<path d="M71.6616 53.5876C72.4828 55.2623 73.4812 56.8404 74.4957 58.4024C75.8484 60.4958 77.2333 62.557 78.6664 64.6021C87.4265 57.6939 96.2833 50.0932 105.221 41.9128C97.3139 36.8403 92.0159 30.4796 82.8855 28.3217C77.4104 27.0174 71.6455 26.8886 66.1382 27.9675C66.3797 32.1221 67.1205 36.2767 67.8934 40.383C68.7469 44.8919 69.6487 49.4652 71.6777 53.5876H71.6616Z" fill="#4EB0A9"/>
<path d="M74.4955 58.4022C73.481 56.8402 72.4826 55.2621 71.6614 53.5874C69.6324 49.465 68.7306 44.8917 67.8771 40.3828C67.1042 36.2765 66.3634 32.1219 66.1219 27.9673C64.0929 28.3699 62.0961 28.9174 60.1637 29.6581C52.9656 32.4118 43.8834 38.7886 40.0509 45.4714C39.1169 47.1139 38.344 48.8531 37.6998 50.6244C41.9994 54.2637 45.6065 58.8048 49.117 63.2654C51.5163 66.3089 53.9157 69.3685 56.1218 72.5569C57.4262 74.441 58.6661 76.3895 59.9544 78.2896C66.138 74.1189 72.3699 69.5295 78.6501 64.5859C77.2331 62.5408 75.8321 60.4795 74.4794 58.3861L74.4955 58.4022Z" fill="#E86B53"/>
<path d="M49.1184 63.266C45.6079 58.8054 42.0008 54.2643 37.7012 50.625C36.3164 54.4576 35.6078 58.5316 35.5273 62.6218C35.3502 71.8006 38.4903 81.2049 44.9476 87.7267L45.6562 87.2436C50.3905 84.5221 55.157 81.527 59.9719 78.2902C58.6836 76.39 57.4437 74.4416 56.1393 72.5575C53.9332 69.3691 51.5338 66.3095 49.1345 63.266H49.1184Z" fill="#4EB0A9"/>
<path d="M75.5594 81.6723C74.0618 82.719 72.4998 83.814 71.6302 85.4404C70.7607 87.0668 70.7284 89.4018 72.0972 90.9477C73.3211 92.3165 75.3178 92.719 76.9282 92.3326C78.5546 91.9461 79.875 90.9155 81.0828 89.8366C82.6126 88.4678 84.078 86.9863 85.0441 85.1345C85.3179 84.6192 85.5433 84.0717 85.5917 83.4597C85.7044 81.8977 84.4483 80.2552 82.9346 79.6272C81.4209 78.9992 79.7462 79.2407 78.4096 79.9332C78.4096 79.9332 76.2679 81.157 75.5594 81.6562V81.6723Z" fill="#3A3B3C"/>
<path d="M67.443 93.5718C67.9422 94.2159 67.282 95.5525 65.9938 96.5348C64.6894 97.5171 63.2401 97.7908 62.757 97.1467C62.2578 96.5026 62.9181 95.166 64.2063 94.1837C65.5107 93.2014 66.9599 92.9277 67.443 93.5718Z" fill="#E86B53"/>
<path d="M61.9034 83.2492C61.8068 83.1203 61.6941 83.0076 61.533 82.911C59.7295 81.7033 55.7198 82.7178 54.5282 84.3603C54.0934 84.9561 54.1256 85.5519 54.4154 86.0511C54.6248 87.0173 55.9291 87.436 56.8792 87.3394C56.8953 87.3394 56.9114 87.3394 56.9275 87.3394C57.62 87.3233 58.4895 87.1461 59.2142 86.8241C60.277 86.4537 61.2593 85.874 61.8551 84.9722C62.2094 84.4247 62.306 83.7645 61.9195 83.2492H61.9034Z" fill="#FEB2B6"/>
<path d="M50.6149 96.9226C51.1785 96.9709 51.7582 97.0192 52.3218 97.0675C52.9176 97.1159 52.982 96.1819 52.3862 96.1336C51.8226 96.0852 51.2429 96.0369 50.6793 95.9886C50.0835 95.9403 50.0191 96.8743 50.6149 96.9226Z" fill="#3C3C3D"/>
<path d="M52.4169 93.3477C52.7551 93.7181 53.1094 94.0723 53.4475 94.4427C53.8662 94.8775 54.5586 94.2656 54.14 93.8147C53.8018 93.4443 53.4475 93.09 53.1094 92.7197C52.6907 92.2849 51.9982 92.8968 52.4169 93.3477Z" fill="#3C3C3D"/>
<path d="M56.0756 91.6406C55.979 92.1881 55.8824 92.7356 55.7857 93.2992C55.6891 93.895 56.6231 93.9594 56.7197 93.3636C56.8164 92.8161 56.913 92.2686 57.0096 91.705C57.1062 91.1092 56.1722 91.0448 56.0756 91.6406Z" fill="#3C3C3D"/>
<path d="M59.6014 94.4259C61.0668 96.2939 60.7287 98.9992 58.8607 100.465C56.9927 101.93 54.2874 101.592 52.822 99.7239C51.3566 97.8559 51.6948 95.1506 53.5628 93.6852C55.4307 92.2198 58.1361 92.558 59.6014 94.4259Z" fill="white"/>
<path d="M58.891 94.9739C60.0504 96.4554 59.7928 98.5971 58.3113 99.7566C56.8298 100.916 54.6881 100.658 53.5286 99.1769C52.3692 97.6954 52.6269 95.5537 54.1083 94.3942C55.5898 93.2348 57.7316 93.4925 58.891 94.9739Z" fill="#3C3C3D"/>
<path d="M56.7335 95.7138C57.0394 96.1002 56.975 96.68 56.5724 96.9859C56.186 97.2919 55.6063 97.2275 55.3003 96.8249C54.9943 96.4223 55.0587 95.8587 55.4613 95.5527C55.8478 95.2468 56.4275 95.3112 56.7335 95.7138Z" fill="white"/>
<path d="M87.8624 65.6809C88.426 65.7292 89.0058 65.7775 89.5694 65.8258C90.1652 65.8741 90.2296 64.9402 89.6338 64.8919C89.0702 64.8435 88.4905 64.7952 87.9268 64.7469C87.331 64.6986 87.2666 65.6326 87.8624 65.6809Z" fill="#3C3C3D"/>
<path d="M89.6645 62.1055C90.0026 62.4759 90.3569 62.8302 90.6951 63.2005C91.1138 63.6353 91.8062 63.0234 91.3875 62.5725C91.0494 62.2021 90.6951 61.8479 90.3569 61.4775C89.9382 61.0427 89.2458 61.6546 89.6645 62.1055Z" fill="#3C3C3D"/>
<path d="M93.3033 60.3984C93.2067 60.9459 93.1101 61.4934 93.0135 62.057C92.9169 62.6528 93.8508 62.7172 93.9474 62.1214C94.0441 61.5739 94.1407 61.0264 94.2373 60.4628C94.3339 59.867 93.3999 59.8026 93.3033 60.3984Z" fill="#3C3C3D"/>
<path d="M96.8329 63.1837C98.2983 65.0517 97.9601 67.757 96.0921 69.2224C94.2242 70.6878 91.5189 70.3496 90.0535 68.4817C88.5881 66.6137 88.9262 63.9084 90.7942 62.443C92.6622 60.9776 95.3675 61.3158 96.8329 63.1837Z" fill="white"/>
<path d="M96.138 63.7318C97.2975 65.2132 97.0398 67.355 95.5583 68.5144C94.0768 69.6738 91.9351 69.4162 90.7757 67.9347C89.6163 66.4532 89.8739 64.3115 91.3554 63.152C92.8369 61.9926 94.9786 62.2503 96.138 63.7318Z" fill="#3C3C3D"/>
<path d="M93.9649 64.4716C94.2709 64.8581 94.2065 65.4378 93.8039 65.7437C93.4174 66.0497 92.8377 65.9853 92.5317 65.5827C92.2258 65.1962 92.2902 64.6165 92.6928 64.3105C93.0792 64.0046 93.659 64.069 93.9649 64.4716Z" fill="white"/>
<path d="M78.552 73.0397C78.4232 72.9592 78.2943 72.8464 78.1816 72.7015C76.8451 70.9946 77.5858 66.9205 79.1156 65.6161C79.6792 65.1491 80.275 65.133 80.8064 65.3746C81.7726 65.5034 82.304 66.7755 82.2718 67.7256C82.2718 67.7417 82.2718 67.7578 82.2718 67.7739C82.304 68.4664 82.1913 69.352 81.9176 70.0928C81.6277 71.1878 81.1124 72.2023 80.2589 72.8464C79.7275 73.249 79.0834 73.3778 78.552 73.0236V73.0397Z" fill="#FEB2B6"/>
<path d="M92.4032 72.2676C92.9024 72.9117 92.2422 74.2483 90.954 75.2306C89.6496 76.2129 88.2003 76.4866 87.7172 75.8425C87.218 75.1984 87.8783 73.8618 89.1665 72.8795C90.4548 71.8972 91.9201 71.6235 92.4032 72.2676Z" fill="#E86B53"/>
<path d="M88.7794 89.6747C89.9228 87.4363 91.678 85.6972 93.9164 84.5539C94.5444 84.2318 93.9969 83.2817 93.3689 83.6038C90.9856 84.8276 89.0693 86.7278 87.8455 89.1272C87.5234 89.7552 88.4735 90.3027 88.7956 89.6747H88.7794Z" fill="#3A3B3C"/>
<path d="M58.7634 53.475C58.3126 51.3011 56.7506 49.3687 54.7055 48.483C54.3351 48.322 53.8681 48.1932 53.5299 48.4186C53.0629 48.7085 53.1273 49.4009 53.2562 49.9323C53.691 51.6714 54.3512 53.3462 55.2208 54.9082C53.9486 55.343 52.7409 55.971 51.6459 56.76C50.9856 57.2431 50.2932 57.9195 50.3898 58.7407C50.4703 59.4493 51.1467 59.9807 51.8552 60.0773C52.5637 60.1739 53.2723 59.9162 53.8842 59.5942C54.6732 59.1755 55.3657 58.6119 55.9615 57.9517C55.6555 59.3848 55.6233 60.8663 55.8327 62.2995C55.8971 62.7182 55.9937 63.1691 56.2836 63.475C56.7183 63.9259 57.443 63.9581 58.0388 63.7649C59.9873 63.1208 60.6636 60.5765 60.1483 58.5958C61.2272 59.1594 62.4189 59.5137 63.6427 59.6103C64.3834 59.6747 65.253 59.6103 65.7039 58.9984C66.3319 58.1771 65.7039 56.9372 64.8343 56.4219C63.9487 55.8905 62.8859 55.8099 61.9197 55.4718C62.6443 54.5056 63.3851 53.5555 64.1097 52.5893C64.5445 52.0257 64.9632 51.2044 64.4962 50.6569C64.1902 50.3188 63.6749 50.3027 63.2079 50.3671C61.5815 50.5764 60.0517 51.4299 59.005 52.6859L58.7473 53.4911L58.7634 53.475Z" fill="#FFE5B8"/>
<path d="M100.051 47.3071C101.613 45.7129 102.772 42.8787 100.582 41.204C98.5534 39.6742 95.1556 39.6098 93.3842 41.5422C91.8061 43.2813 91.9672 45.9867 93.658 47.597C95.4454 49.2878 98.2152 49.014 99.8577 47.3071C100.84 46.2926 99.2941 44.7306 98.3118 45.7612C96.4116 47.7419 93.1749 45.2781 94.9463 43.1042C95.848 41.9931 97.2651 42.2507 98.4728 42.6372C100.293 43.2169 99.4712 44.7789 98.505 45.7612C97.5228 46.7757 99.0687 48.3216 100.051 47.3071Z" fill="#3A3B3C"/>
<path d="M96.8313 45.503C98.2484 45.503 98.2484 43.313 96.8313 43.313C95.4142 43.313 95.4142 45.503 96.8313 45.503Z" fill="#3A3B3C"/>
<path d="M114.916 51.5116C116.349 53.3313 117.911 55.0221 119.602 56.5841C120.117 57.0672 120.906 56.2943 120.375 55.8112C118.668 54.2492 117.106 52.5583 115.689 50.7387C115.254 50.1912 114.481 50.9641 114.916 51.5116Z" fill="#D88185"/>
<path d="M117.265 71.5584C118.408 73.0399 119.568 74.5214 120.711 76.0029C121.146 76.5665 121.919 75.7774 121.484 75.2299C120.341 73.7484 119.181 72.2669 118.038 70.7854C117.603 70.2218 116.83 71.0109 117.265 71.5584Z" fill="#D88185"/>
<path d="M143.336 77.2106C144.302 78.5472 145.252 79.8998 146.218 81.2364C146.621 81.8 147.571 81.2525 147.168 80.6889C146.202 79.3523 145.252 77.9997 144.286 76.6631C143.883 76.0995 142.933 76.647 143.336 77.2106Z" fill="#D88185"/>
<path d="M104.317 92.4117C105.203 93.5873 106.089 94.7789 106.974 95.9544C107.393 96.518 108.343 95.9544 107.925 95.4069C107.039 94.2314 106.153 93.0398 105.268 91.8642C104.849 91.3006 103.899 91.8642 104.317 92.4117Z" fill="#D88185"/>
<path d="M132.386 96.7279C132.998 98.145 133.69 99.4977 134.496 100.802C134.866 101.398 135.816 100.85 135.446 100.255C134.64 98.9502 133.948 97.5814 133.336 96.1804C133.062 95.5363 132.112 96.0999 132.386 96.7279Z" fill="#D88185"/>
<path d="M102.562 119.159C103.738 120.737 105.058 122.187 106.556 123.491C107.087 123.958 107.86 123.185 107.329 122.718C105.912 121.478 104.64 120.125 103.513 118.612C103.094 118.048 102.144 118.612 102.562 119.159Z" fill="#D88185"/>
<path d="M82.8035 111.511L84.9935 115.053C85.3639 115.649 86.3139 115.102 85.9436 114.506C85.2189 113.33 84.4782 112.139 83.7535 110.963C83.3832 110.367 82.4331 110.915 82.8035 111.511Z" fill="#D88185"/>
<path d="M88.0716 134.86C88.8446 136.003 89.4887 137.227 90.004 138.499C90.2617 139.143 91.3245 138.87 91.0668 138.209C90.5193 136.841 89.843 135.536 89.0217 134.312C88.6353 133.733 87.6852 134.28 88.0716 134.86Z" fill="#D88185"/>
<path d="M130.085 127.904C130.697 129.112 131.325 130.303 131.937 131.511C132.259 132.139 133.209 131.592 132.887 130.964C132.275 129.756 131.647 128.564 131.035 127.356C130.713 126.728 129.763 127.276 130.085 127.904Z" fill="#D88185"/>
<path d="M161.63 101.059C162.87 102.122 164.11 103.201 165.35 104.264C165.882 104.731 166.655 103.958 166.123 103.491C164.883 102.428 163.643 101.349 162.403 100.286C161.872 99.8193 161.099 100.592 161.63 101.059Z" fill="#D88185"/>
<path d="M162.725 133.154C163.836 134.99 165.124 136.713 166.558 138.323C167.025 138.855 167.798 138.066 167.331 137.55C165.946 136.021 164.738 134.378 163.675 132.607C163.305 132.011 162.355 132.558 162.725 133.154Z" fill="#D88185"/>
<path d="M132 158.629C132.87 159.821 133.723 161.028 134.593 162.22C134.995 162.784 135.962 162.236 135.543 161.673C134.673 160.481 133.82 159.273 132.95 158.082C132.548 157.518 131.582 158.065 132 158.629Z" fill="#D88185"/>
<path d="M160.293 164.152C160.776 165.279 161.082 166.471 161.211 167.679C161.291 168.371 162.386 168.387 162.306 167.679C162.145 166.262 161.791 164.909 161.243 163.605C160.969 162.96 160.019 163.508 160.293 164.152Z" fill="#D88185"/>
<path d="M192.596 151.414C193.208 152.895 193.562 154.409 193.627 156.003C193.659 156.712 194.754 156.712 194.722 156.003C194.657 154.312 194.303 152.686 193.643 151.108C193.369 150.464 192.306 150.754 192.58 151.398L192.596 151.414Z" fill="#D88185"/>
<path d="M180.519 174.248C181.131 175.907 181.534 177.598 181.727 179.353C181.807 180.045 182.902 180.061 182.822 179.353C182.612 177.501 182.21 175.714 181.566 173.958C181.324 173.298 180.261 173.588 180.503 174.248H180.519Z" fill="#D88185"/>
<path d="M145.365 182.122C146.67 183.733 147.813 185.456 148.827 187.275C149.166 187.887 150.116 187.34 149.778 186.728C148.731 184.828 147.507 183.04 146.154 181.366C145.703 180.818 144.947 181.591 145.381 182.139L145.365 182.122Z" fill="#D88185"/>
<path d="M170.182 200.481C170.455 202.14 170.729 203.799 171.019 205.473C171.132 206.166 172.195 205.876 172.082 205.183C171.808 203.525 171.534 201.866 171.244 200.191C171.132 199.499 170.069 199.789 170.182 200.481Z" fill="#D88185"/>
<path d="M59.7613 142.638C59.0367 144.039 58.1993 145.343 57.2009 146.551C56.75 147.098 57.523 147.871 57.9739 147.324C59.0367 146.035 59.9546 144.667 60.7114 143.185C61.0335 142.557 60.0834 142.01 59.7613 142.638Z" fill="#D88185"/>
<path d="M70.5185 148.434C69.2303 149.61 67.9581 150.785 66.6699 151.961C66.1546 152.444 66.9275 153.217 67.4428 152.734C68.7311 151.558 70.0032 150.383 71.2915 149.207C71.8068 148.724 71.0338 147.951 70.5185 148.434Z" fill="#D88185"/>
<path d="M59.8752 171.382C61.1473 170.19 62.5483 169.208 64.0781 168.387C64.7061 168.049 64.1425 167.115 63.5306 167.437C61.9203 168.29 60.4388 169.353 59.1183 170.593C58.603 171.076 59.376 171.849 59.8913 171.366L59.8752 171.382Z" fill="#D88185"/>
<path d="M52.4027 162.203C53.5299 161.511 54.641 160.802 55.7683 160.11C56.3641 159.74 55.8166 158.789 55.2207 159.16C54.0935 159.852 52.9824 160.561 51.8552 161.253C51.2594 161.624 51.8069 162.574 52.4027 162.203Z" fill="#D88185"/>
<path d="M36.429 163.153C37.5079 162.46 38.6512 161.929 39.859 161.526C40.5353 161.317 40.2454 160.254 39.5691 160.464C38.2648 160.882 37.0248 161.462 35.8654 162.203C35.2696 162.589 35.8171 163.523 36.4129 163.153H36.429Z" fill="#D88185"/>
<path d="M37.3473 176.681C38.6678 175.876 40.101 175.376 41.6469 175.215C42.3393 175.135 42.3554 174.04 41.6469 174.12C39.9077 174.298 38.2974 174.829 36.7998 175.731C36.204 176.101 36.7515 177.051 37.3473 176.681Z" fill="#D88185"/>
<path d="M50.8235 184.167C51.9507 183.732 53.0779 183.281 54.2052 182.846C54.8493 182.589 54.5755 181.526 53.9153 181.784C52.7881 182.218 51.6609 182.669 50.5336 183.104C49.8895 183.362 50.1633 184.425 50.8235 184.167Z" fill="#D88185"/>
<path d="M16.8617 177.873C18.1982 176.987 19.5509 176.101 20.8875 175.216C21.4672 174.829 20.9197 173.879 20.3399 174.265C19.0034 175.151 17.6507 176.037 16.3142 176.922C15.7344 177.309 16.282 178.259 16.8617 177.873Z" fill="#D88185"/>
<path d="M24.4797 191.414C25.9934 190.722 27.5232 190.029 29.0369 189.353C29.681 189.063 29.1174 188.113 28.4894 188.403C26.9757 189.095 25.4459 189.788 23.9322 190.464C23.2881 190.754 23.8517 191.704 24.4797 191.414Z" fill="#D88185"/>
<path d="M7.10276 191.236C8.3105 190.704 9.51824 190.189 10.7099 189.658C11.354 189.384 10.7904 188.434 10.1624 188.708C8.95463 189.239 7.74689 189.754 6.55526 190.286C5.91113 190.56 6.47474 191.51 7.10276 191.236Z" fill="#D88185"/>
<path d="M183.256 117.726C185.575 118.322 187.926 118.708 190.325 118.917C191.034 118.982 191.017 117.887 190.325 117.822C188.038 117.629 185.784 117.243 183.546 116.679C182.869 116.502 182.563 117.565 183.256 117.742V117.726Z" fill="#D88185"/>
<path d="M191.856 100.014C193.788 100.432 195.737 100.625 197.701 100.561C198.41 100.545 198.41 99.4338 197.701 99.466C195.817 99.5305 193.982 99.3694 192.146 98.9507C191.453 98.8058 191.164 99.8525 191.856 100.014Z" fill="#D88185"/>
<path d="M99.0523 47.5336C101.79 51.2373 104.56 54.9249 107.281 58.6448C110.196 62.6545 111.452 66.2938 111.613 71.318C111.903 80.1264 110.18 87.8076 105.155 95.1506C100.582 101.817 94.3663 107.26 88.2954 112.526C85.1231 115.28 81.8541 118.017 78.1021 119.933C76.1053 120.948 73.9636 121.785 71.7253 122.156C70.1149 122.445 68.5046 122.445 66.8943 122.156C65.6544 121.914 64.5432 121.399 63.5771 120.626C64.6077 119.66 63.0618 118.114 62.0312 119.08C59.8894 121.061 63.0618 123.122 64.7687 123.798C68.4724 125.264 72.7881 124.523 76.3791 123.138C85.8799 119.482 94.5273 110.626 101.355 103.315C108.215 95.9558 113.32 87.2279 113.819 77.0024C114.044 72.107 114.286 66.4226 112.031 61.9137C109.278 56.3742 104.64 51.4145 100.969 46.4547C100.131 45.3275 98.231 46.4225 99.0684 47.5658L99.0523 47.5336Z" fill="#3A3B3C"/>
<path d="M235.883 91.381C235.657 91.0268 235.416 90.6886 235.174 90.3665C234.079 88.9656 232.775 87.7739 231.342 86.7272C225.786 87.9833 220.053 88.3859 214.321 88.0316C210.086 87.7578 205.963 86.9849 202.646 84.6821C202.163 84.8432 201.68 85.0203 201.213 85.1974C199.184 85.9704 197.106 86.9366 195.319 88.2087C207.815 95.1814 222.163 94.4245 235.867 91.381H235.883Z" fill="#4EB0A9"/>
<path d="M193.402 89.8374C192.356 90.9163 191.518 92.1562 191.019 93.6055L191.277 94.6039C203.225 99.7891 216.655 101.528 229.538 99.5154C231.164 99.2577 232.807 98.9357 234.224 98.0983C235.625 97.2609 236.768 95.7795 236.784 94.1369C236.784 93.9598 236.784 93.7827 236.752 93.6055C222.098 96.8906 206.639 97.6152 193.402 89.8213V89.8374Z" fill="#4EB0A9"/>
<path d="M195.336 88.2104C194.643 88.7096 193.983 89.2572 193.403 89.853C206.64 97.6469 222.099 96.9223 236.753 93.6372C236.656 92.8482 236.318 92.0913 235.883 91.3989C222.18 94.4424 207.816 95.1992 195.336 88.2265V88.2104Z" fill="#4E8880"/>
<path d="M47.8279 145.713C56.733 154.393 64.2532 164.216 70.3079 175.085C71.0004 176.325 72.8844 175.214 72.2081 173.974C66.0728 162.96 58.4238 152.96 49.3899 144.167C48.3754 143.185 46.8295 144.731 47.844 145.713H47.8279Z" fill="#4EB0A9"/>
<path d="M43.7377 154.362C50.6781 162.768 56.9906 171.625 62.675 180.932C63.4157 182.14 65.3159 181.029 64.5752 179.821C58.7941 170.352 52.3529 161.351 45.2836 152.816C44.3818 151.721 42.8359 153.283 43.7377 154.362Z" fill="#4EB0A9"/>
<path d="M24.238 160.595C24.2219 160.208 24.2219 159.806 24.238 159.435C24.3346 157.76 24.6889 156.15 25.2364 154.572C30.1961 152.543 34.8338 149.773 39.0368 146.424C42.1447 143.944 44.9144 141.126 46.2188 137.567C46.6858 137.438 47.1367 137.309 47.6036 137.197C49.5843 136.698 51.7099 136.327 53.755 136.343C47.8935 148.437 36.4281 155.587 24.238 160.611V160.595Z" fill="#4EB0A9"/>
<path d="M56.1224 136.537C57.5072 136.795 58.8277 137.31 59.9871 138.164L60.3253 139.081C53.9162 149.516 44.4959 158.067 33.5136 163.462C32.1287 164.138 30.6794 164.782 29.1496 164.879C27.6037 164.991 25.9451 164.46 25.0433 163.204C24.9467 163.059 24.8501 162.93 24.7856 162.769C37.8292 157.407 50.132 149.661 56.1385 136.521L56.1224 136.537Z" fill="#4EB0A9"/>
<path d="M33.8836 147.405C31.5325 148.983 29.0848 150.368 26.5405 151.543C27.9415 148.903 29.89 146.519 32.1605 144.587C35.4456 141.785 39.3425 139.804 43.4327 138.403C41.3715 142.204 37.3135 145.086 33.8675 147.405H33.8836Z" fill="#4EB0A9"/>
<path d="M53.7713 136.327C54.5765 136.327 55.3656 136.407 56.1385 136.552C50.132 149.676 37.8292 157.438 24.7857 162.8C24.4314 162.14 24.2865 161.367 24.2543 160.61C36.4444 155.586 47.9098 148.436 53.7713 136.343V136.327Z" fill="#4E8880"/>
<path d="M25.2356 154.556C25.5899 153.526 26.0246 152.511 26.54 151.545C29.0681 150.369 31.5158 148.985 33.883 147.406C37.3291 145.088 41.3871 142.205 43.4483 138.405C44.3661 138.083 45.3001 137.809 46.2341 137.551C44.9297 141.11 42.16 143.928 39.0521 146.408C34.8492 149.774 30.1954 152.543 25.2517 154.556H25.2356Z" fill="#4E8880"/>
</g>
</g>
</g>
</g>
<defs>
<clipPath id="clip0_135_680">
<rect width="327.892" height="351.451" fill="white" transform="translate(-14.3778 27.2437)"/>
</clipPath>
</defs>
</svg>
