<svg width="200" height="200" viewBox="0 0 200 200" fill="none" xmlns="http://www.w3.org/2000/svg">
<mask id="mask0_135_669" style="mask-type:alpha" maskUnits="userSpaceOnUse" x="0" y="0" width="200" height="200">
<rect width="200" height="200" rx="16" fill="white"/>
</mask>
<g mask="url(#mask0_135_669)">
<mask id="mask1_135_669" style="mask-type:alpha" maskUnits="userSpaceOnUse" x="0" y="0" width="200" height="200">
<rect width="200" height="200" rx="16" fill="white"/>
</mask>
<g mask="url(#mask1_135_669)">
<rect width="200" height="200" rx="16" fill="white"/>
<g clip-path="url(#clip0_135_669)">
<path d="M109.736 145.271C117.322 148.62 125.779 149.525 134.048 149.252C142.318 148.979 150.519 147.56 158.72 146.433C159.967 146.262 161.385 146.159 162.291 147.014C162.974 147.663 163.145 148.654 163.264 149.594C163.709 153.369 163.674 157.214 163.128 160.972C162.786 163.399 162.188 165.893 160.667 167.807C158.822 170.13 155.849 171.275 152.928 171.77C146.743 172.83 140.421 171.446 134.339 169.857C128.308 168.285 122.328 166.542 116.416 164.612L109.719 145.271H109.736Z" fill="#D88185"/>
<path d="M194.069 131.687L170.372 113.508C167.826 111.561 164.102 112.876 163.367 115.986L159.42 132.507L194.086 131.687H194.069Z" fill="#E25243"/>
<path d="M161.25 118.086L159.337 119.966C165.197 122.426 171.074 124.869 176.935 127.33C171.843 124.032 166.598 120.957 161.25 118.086Z" fill="#FFE5B8"/>
<path d="M158.309 120.975L155.729 123.52C161.863 125.007 168.014 126.374 174.182 127.621C168.885 125.4 163.606 123.196 158.309 120.975Z" fill="#FFE5B8"/>
<path d="M187.339 130.098L163.368 116.003L162.223 117.131C169.04 120.804 175.669 124.802 182.076 129.159C183.819 129.483 185.579 129.808 187.321 130.115L187.339 130.098Z" fill="#FFE5B8"/>
<path d="M154.62 124.58L152.553 126.613L180.351 130.184C180.351 130.184 180.299 130.167 180.282 130.15C171.688 128.527 163.128 126.664 154.637 124.563L154.62 124.58Z" fill="#FFE5B8"/>
<path d="M187.339 130.098C185.58 129.791 183.837 129.466 182.094 129.141C175.687 124.785 169.058 120.787 162.241 117.113L161.267 118.07C166.632 120.94 171.86 124.016 176.951 127.313C171.091 124.853 165.214 122.393 159.354 119.949L158.328 120.957C163.625 123.179 168.904 125.383 174.201 127.604C168.016 126.356 161.865 124.99 155.749 123.503L154.655 124.58C163.147 126.681 171.706 128.543 180.3 130.167C180.317 130.167 180.351 130.184 180.369 130.201L189.526 131.38L187.356 130.098H187.339Z" fill="#DFCFAD"/>
<path d="M180.928 177.511C185.029 162.237 189.112 146.963 193.213 131.688L193.486 131.893C179.1 130.407 164.782 128.408 150.533 125.931C147.612 125.418 144.844 127.332 144.263 130.236C141.922 142.025 139.154 153.711 135.994 165.295C135.242 168.063 136.745 170.985 139.479 171.89C153.745 176.64 167.636 178.947 180.928 177.511Z" fill="#E86B53"/>
<path d="M174.113 173.94C180.759 173.035 181.032 165.774 182.485 160.443C183.544 156.547 184.603 152.635 185.663 148.739C186.534 145.51 188.157 141.752 188.447 138.454C188.892 133.38 184.005 133.909 180.144 133.636C171.277 133.004 162.392 131.757 153.559 131.142C147.631 130.732 147.203 135.789 146.212 140.436C145.358 144.434 144.436 148.415 143.462 152.379C142.607 155.847 140.694 160.084 140.66 163.621C140.608 168.712 145.717 169.601 149.698 170.711C157.574 172.898 165.638 174.111 173.822 173.992C175.326 173.975 175.326 171.634 173.822 171.668C168.235 171.753 162.717 171.258 157.25 170.147C154.926 169.669 152.602 169.105 150.313 168.473C147.511 167.687 146.998 167.653 144.931 165.295C142.744 162.801 143.035 163.228 143.735 160.614C145.102 155.539 146.366 150.431 147.511 145.305C148.041 142.93 148.143 139.77 149.168 137.6C149.288 137.036 149.407 136.455 149.51 135.891C151.287 135.157 153.064 134.405 154.841 133.67C155.712 133.585 156.908 133.978 157.796 134.097C162.836 134.764 167.911 135.14 172.968 135.464C175.651 135.635 178.35 135.806 181.032 135.994C182.553 136.113 183.698 135.994 184.962 137.002C186.722 138.437 185.816 139.274 185.27 141.307C183.971 146.074 182.69 150.858 181.391 155.625C180.144 160.255 179.204 170.916 173.515 171.685C172.046 171.89 172.661 174.128 174.13 173.923L174.113 173.94Z" fill="#E25243"/>
<path d="M184.141 155.829C185.798 155.111 187.455 154.376 189.112 153.659C190.137 153.215 191.18 152.753 192.051 152.053C192.7 151.523 193.281 150.823 194.067 150.532C193.982 151.933 193.503 153.3 192.7 154.445C192.102 155.299 191.333 156.017 190.53 156.683C189.454 157.554 188.292 158.357 186.943 158.699L184.141 155.829Z" fill="#3A3B3C"/>
<path d="M181.614 142.861C183.374 142.434 185.134 142.007 186.894 141.562C187.987 141.289 189.081 141.016 190.055 140.469C190.789 140.059 191.473 139.478 192.293 139.324C191.968 140.691 191.268 141.955 190.277 142.946C189.542 143.681 188.654 144.262 187.748 144.774C186.552 145.458 185.254 146.056 183.87 146.158L181.597 142.861H181.614Z" fill="#3A3B3C"/>
<path d="M183.356 149.833C185.013 149.115 186.671 148.38 188.328 147.663C189.353 147.219 190.395 146.757 191.267 146.057C191.916 145.527 192.497 144.827 193.283 144.536C193.197 145.937 192.719 147.304 191.916 148.449C191.318 149.303 190.549 150.021 189.746 150.687C188.67 151.558 187.508 152.361 186.158 152.703L183.356 149.833Z" fill="#3A3B3C"/>
<path d="M141.139 194.818C141.651 196.048 142.147 197.261 142.659 198.491C148.093 211.613 153.56 224.803 156.892 238.608C160.223 252.413 161.368 266.987 158.122 280.809C144.71 279.356 131.417 276.947 118.347 273.599C116.057 273.018 113.7 272.351 111.974 270.728C110.214 269.088 109.394 266.713 108.677 264.441C106.353 257.145 104.405 249.713 102.85 242.213C102.065 238.42 101.381 234.593 101.262 230.714C101.125 226.187 101.757 221.659 102.406 217.166C102.885 213.766 103.397 210.297 104.952 207.239C106.866 203.446 110.214 200.627 113.478 197.91C115.084 196.578 116.69 195.228 118.501 194.203C124.583 190.752 132.049 191.247 139.02 191.862L141.173 194.818H141.139Z" fill="#FFE5B8"/>
<path d="M125.606 158.955L125.675 158.75C122.975 153.164 120.259 147.508 118.038 141.699C112.109 143.972 108.999 149.148 106.505 154.411C112.451 157.332 119.097 159.536 125.623 158.955H125.606Z" fill="#FFE5B8"/>
<path d="M51.2184 41.1353C52.3289 39.8368 53.7299 38.9484 55.3701 38.4871C56.0877 38.2991 55.7802 37.1715 55.0626 37.3594C53.2344 37.8549 51.6284 38.8629 50.3983 40.2981C49.9199 40.8619 50.74 41.6991 51.2184 41.1182V41.1353Z" fill="#D88185"/>
<path d="M66.6282 35.2919C68.4051 35.2064 70.182 35.121 71.9418 35.0356C72.6935 35.0014 72.6935 33.8396 71.9418 33.8738C70.1649 33.9592 68.388 34.0446 66.6282 34.1301C65.8765 34.1642 65.8765 35.326 66.6282 35.2919Z" fill="#D88185"/>
<path d="M81.7652 31.9427C83.0125 32.0964 84.2426 32.2331 85.4898 32.3869C86.2245 32.4723 86.2245 31.3105 85.4898 31.2251C84.2426 31.0713 83.0125 30.9346 81.7652 30.7809C81.0306 30.6954 81.0306 31.8572 81.7652 31.9427Z" fill="#D88185"/>
<path d="M79.9193 38.2648C81.0641 38.3673 82.2088 38.4869 83.3706 38.5894C84.1223 38.6578 84.1053 37.496 83.3706 37.4276C82.2259 37.3251 81.0811 37.2055 79.9193 37.103C79.1676 37.0347 79.1847 38.1965 79.9193 38.2648Z" fill="#D88185"/>
<path d="M91.9494 36.488C93.0087 36.7443 94.068 37.0177 95.1273 37.274C95.862 37.4619 96.1695 36.3343 95.4348 36.1463C94.3756 35.89 93.3163 35.6167 92.257 35.3604C91.5223 35.1725 91.2148 36.3001 91.9494 36.488Z" fill="#D88185"/>
<path d="M55.7122 69.2071C57.8137 68.7971 59.8298 68.0111 61.8288 67.2423C62.9564 66.7981 64.1353 66.3368 64.9554 65.4654C65.8267 64.5257 66.2197 63.2443 66.5443 62.0142C66.8177 60.989 67.0911 59.9127 66.9031 58.8705C66.5956 57.1619 65.1775 55.8805 63.7252 54.9237C60.5644 52.8564 53.0469 51.1479 48.2459 50.8574C47.6991 51.9338 47.2378 53.0785 46.8449 54.2232C45.2559 58.7167 44.3846 63.5519 44.9313 68.2845C44.9997 68.3016 45.068 68.3358 45.0851 68.3358C48.4509 69.583 52.1755 69.9247 55.6951 69.2242L55.7122 69.2071Z" fill="#E25243"/>
<path d="M114.023 63.1937C113.784 61.9294 113.272 59.64 112.708 57.1797C110.538 57.2139 108.385 57.5897 106.335 58.2902C104.695 58.8541 103.003 59.7425 102.286 61.3314C101.842 62.3053 101.842 63.3988 101.859 64.4751C101.876 65.7565 101.927 67.0892 102.559 68.2168C103.14 69.2761 104.165 70.0108 105.156 70.7113C106.899 71.9585 108.676 73.2058 110.606 74.1284C111.871 74.7264 113.203 75.1877 114.587 75.4952C114.707 71.3947 114.792 67.243 114.023 63.2108V63.1937Z" fill="#E25243"/>
<path d="M105.157 70.7103C104.166 70.0098 103.141 69.2751 102.56 68.2158C101.945 67.0882 101.876 65.7555 101.859 64.4741C101.859 63.4148 101.859 62.3043 102.286 61.3304C103.004 59.7414 104.695 58.853 106.336 58.2892C108.386 57.5887 110.539 57.2128 112.708 57.1786C111.735 52.9415 110.59 48.1234 110.265 46.8591C110.009 45.834 109.667 44.843 109.257 43.8862C98.4251 43.835 87.6101 42.7757 76.9829 40.6913C73.9418 40.0933 70.5247 40.1445 67.4322 40.4008C64.8352 40.6058 62.6825 40.7425 60.2393 41.648C56.788 42.9294 53.2684 44.4159 50.774 47.0983C49.7489 48.2088 48.9288 49.4902 48.2453 50.84C53.0463 51.1304 60.5639 52.839 63.7247 54.9063C65.177 55.8631 66.595 57.1445 66.9026 58.853C67.0905 59.8952 66.8342 60.9716 66.5438 61.9967C66.2192 63.2269 65.8262 64.5083 64.9548 65.448C64.1177 66.3364 62.9559 66.7977 61.8282 67.2248C59.8292 67.9937 57.8132 68.7796 55.7117 69.1897C52.1921 69.8902 48.4675 69.5485 45.1016 68.3012C45.0846 68.3012 45.0162 68.267 44.9479 68.25C44.9991 68.7625 45.0675 69.2751 45.1529 69.7706C46.0926 74.9645 49.0484 79.9364 53.6443 82.5675C55.8996 83.866 58.4453 84.5494 61.0081 85.0449C64.6302 85.7454 68.3207 86.0529 71.994 86.3605C85.9869 87.5393 100.014 88.667 114.041 88.7012C114.263 84.2931 114.468 79.9022 114.588 75.4942C113.221 75.1866 111.888 74.7253 110.607 74.1273C108.676 73.2047 106.899 71.9575 105.157 70.7103Z" fill="#FFE5B8"/>
<path d="M88.2596 58.3749C86.3973 58.0845 84.4666 57.794 82.6556 58.3749C80.8445 58.9558 79.1702 60.6644 79.0847 62.8C79.0164 64.6794 80.2124 66.4051 81.6817 67.2764C83.1511 68.1478 84.8767 68.3186 86.534 68.387C88.6355 68.4724 90.7882 68.387 92.8043 67.7206C93.3681 67.5327 93.949 67.2935 94.4103 66.8664C95.6063 65.79 95.8455 63.6885 95.1621 62.1337C94.4787 60.5789 93.0606 59.5709 91.5912 59.1438C91.5912 59.1438 89.1309 58.5287 88.2425 58.392L88.2596 58.3749Z" fill="#3A3B3C"/>
<path d="M69.9788 68.8126C69.8592 69.6497 68.424 70.1281 66.7667 69.906C65.1094 69.6839 63.8622 68.8126 63.9647 67.9925C64.0843 67.1553 65.5195 66.6769 67.1768 66.899C68.834 67.1211 70.0813 67.9925 69.9788 68.8126Z" fill="#E86B53"/>
<path d="M103.037 71.1376C103.037 71.9748 101.67 72.6411 99.9956 72.624C98.3212 72.607 96.9715 71.9064 96.9715 71.0693C96.9715 70.2321 98.3383 69.5658 100.013 69.5828C101.687 69.5999 103.037 70.3004 103.037 71.1376Z" fill="#E86B53"/>
<path d="M68.3209 48.9594C68.3209 48.7714 68.3209 48.5835 68.2525 48.3785C67.552 45.884 62.9902 43.5945 60.547 44.09C59.6586 44.2609 59.2144 44.8247 59.0606 45.491C58.4626 46.4991 59.351 47.9171 60.3078 48.5664C60.3249 48.5664 60.342 48.5835 60.3591 48.6006C61.0254 49.1302 61.9651 49.6769 62.9048 49.9674C64.2033 50.48 65.5872 50.7533 66.8686 50.4287C67.6545 50.2237 68.2696 49.7282 68.3209 48.9594Z" fill="#FEB2B6"/>
<path d="M100.475 51.3001C100.475 51.1121 100.51 50.9242 100.595 50.7192C101.5 48.2931 106.233 46.3795 108.625 47.0629C109.496 47.3021 109.906 47.9001 109.992 48.5835C110.504 49.6257 109.514 50.9755 108.505 51.5564C108.488 51.5564 108.471 51.5734 108.454 51.5905C107.754 52.0689 106.763 52.5302 105.806 52.7523C104.473 53.1624 103.055 53.3332 101.808 52.889C101.039 52.6157 100.475 52.0689 100.475 51.3172V51.3001Z" fill="#FEB2B6"/>
<path d="M227.761 281.372C227.521 280.535 227.111 279.783 226.411 279.322C225.676 278.844 224.753 278.741 223.882 278.792C219.987 278.98 216.655 281.338 213.665 283.952C212.555 284.926 211.752 286.225 211.376 287.66C200.099 284.021 188.669 280.877 177.119 278.229C172.318 277.135 167.312 276.127 162.511 277.255C162.341 275.717 160.564 274.982 159.06 274.607C152.294 272.932 145.375 271.89 138.421 271.497C138.575 269.891 136.764 268.883 135.26 268.319L114.092 260.289L114.194 260.101C111.751 254.565 110.076 248.705 109.239 242.725C108.915 240.402 108.71 238.044 108.539 235.703C107.736 225.161 107.445 214.586 107.65 204.01L107.821 204.112C115.39 204.488 122.959 203.839 130.511 203.207C133.227 202.968 135.978 202.745 138.592 201.96C140.471 201.396 142.265 200.559 144.025 199.704C152.192 195.672 159.949 190.786 167.125 185.165L168.44 184.686C172.182 180.927 175.941 177.186 179.682 173.427C180.024 173.085 180.383 172.726 180.861 172.59C181.22 172.487 181.596 172.504 181.955 172.436C183.321 172.197 184.142 170.813 184.791 169.566C187.576 164.167 190.412 158.563 190.737 152.514C190.873 149.764 190.395 146.808 188.55 144.775C186.619 142.656 183.595 141.939 180.724 141.904C173.685 141.802 167.09 145.099 160.82 148.311C160.034 147.526 158.787 147.389 157.71 147.662C156.634 147.936 155.694 148.551 154.755 149.149C146.127 154.599 136.268 158.255 126.085 158.973L126.171 158.682C119.661 159.263 113.015 157.059 107.052 154.138C109.376 149.046 112.417 143.989 118.585 141.426C116.159 135.104 114.314 128.629 113.716 121.897L113.374 120.855C113.664 121.351 114.467 121.248 114.826 120.821C115.185 120.377 115.219 119.779 115.219 119.215C115.202 114.414 113.511 109.733 113.442 104.915C113.408 102.916 113.664 100.917 113.904 98.9348H113.955C114.194 95.4323 114.399 91.9298 114.57 88.4273C99.7056 88.3931 84.8243 87.1117 69.9942 85.8815C67.2263 85.6423 64.4756 85.3348 61.759 84.8222C59.1279 84.3268 56.4967 83.6433 54.1731 82.3107C49.5942 79.6795 46.6385 74.7077 45.6817 69.5137C44.742 64.3198 45.6304 58.9208 47.3902 53.9319C48.2957 51.352 49.4576 48.8234 51.3199 46.8244C53.8143 44.142 57.3339 42.6726 60.7681 41.3741C61.9299 40.947 63.1429 40.6565 64.3731 40.5028C68.166 40.0244 73.2404 39.5631 77.5459 40.4174C88.173 42.5018 98.988 43.5611 109.82 43.6123C106.659 36.0777 99.1589 30.4395 90.975 29.8244L91.6926 29.4315C93.6232 28.3209 94.8021 26.0656 94.6484 23.8616C93.7429 23.1953 92.3931 23.5712 91.5559 24.3229C90.7187 25.0747 90.1891 26.1169 89.4715 26.9883C89.181 25.5189 90.1207 23.8445 88.976 22.6486C88.2584 21.8968 87.0625 21.8626 86.1911 22.4094C84.6534 23.3662 84.3117 25.1943 84.2434 26.8857C84.2434 25.8948 84.2092 24.8013 83.8162 23.9129C83.3379 22.8536 82.2615 22.2727 81.0826 22.3581C79.0836 22.4948 78.2635 24.7842 79.1007 26.2878C78.6394 25.0918 77.2555 24.2375 76.0082 24.5621C74.761 24.9038 74.0092 26.5611 74.761 27.6204L75.2394 27.9279C63.946 28.0817 52.8063 32.9852 45.0666 41.2033C42.7943 43.6123 40.8294 46.2776 38.9501 48.9942C37.5149 51.0786 36.148 53.1972 34.8325 55.35C32.3209 57.7761 30.2878 60.5952 28.938 63.8756C28.1008 65.8916 27.4858 68.0615 27.2637 70.2313C27.1099 71.7348 27.6224 72.572 27.7591 73.8876C28.0667 76.7579 26.529 80.3288 25.9652 83.1308C25.3159 86.3599 24.735 89.6061 24.2395 92.8694C23.4707 97.8925 22.531 103.052 22.8385 108.127C23.0777 112.227 22.9411 114.978 21.8988 118.89C20.9592 122.41 20.0024 125.913 19.0627 129.432C18.3109 132.217 15.526 137.753 17.5762 140.589C18.533 141.904 19.8657 141.973 20.9421 141.238C20.3953 144.792 19.5923 148.294 18.5159 151.729C17.73 154.223 16.8074 156.683 15.7481 159.075C14.9109 160.955 13.2707 163.09 12.7753 165.055C12.5019 166.132 12.7753 167.293 13.3732 168.113C11.9893 169.634 11.2205 171.838 10.4346 173.735C8.2818 178.928 4.60844 184.515 3.48081 190.051C3.22453 191.332 3.51498 193.144 4.40342 194.254C2.38735 197.91 0.764235 201.737 -0.448826 205.753C-1.14933 208.11 -4.00258 214.603 -1.40561 216.482C-1.33727 216.533 -1.25184 216.55 -1.1835 216.602C-3.45585 224.239 -5.72821 231.876 -8.01765 239.513C-8.20559 240.145 -7.79554 240.743 -7.19755 240.948C-6.56539 241.153 -6.2066 241.29 -5.91615 241.358C-5.45484 246.535 -5.76238 251.405 -6.39454 256.616C-7.12921 262.596 -6.65082 269.413 -0.072948 271.668C0.251674 271.787 0.593382 271.685 0.866748 271.497C0.952175 271.651 1.00343 271.822 1.08886 271.975C1.49891 272.796 2.35318 273.735 3.15619 273.291C4.09588 280.125 5.95819 286.823 8.69185 293.144C10.4858 297.296 12.7069 301.362 16.0556 304.403C19.4044 307.445 24.0174 309.341 28.4596 308.538V308.248C37.9591 315.372 49.0817 320.361 60.7339 322.719C62.0495 322.992 63.4163 323.214 64.7319 322.941C66.0475 322.668 67.3289 321.796 67.6876 320.498C79.8524 322.053 92.1539 322.685 104.404 322.377C105.754 322.343 107.24 322.241 108.197 321.284C108.488 320.993 108.71 320.635 109.068 320.43C109.683 320.071 110.469 320.259 111.153 320.481C120.584 323.334 130.306 325.162 140.13 325.931C141.992 326.085 143.888 326.187 145.682 325.658C147.425 325.145 149.065 323.915 149.612 322.189C149.509 322.155 149.39 322.121 149.27 322.07H149.646C149.646 322.07 149.612 322.138 149.595 322.189C155.865 324.53 162.682 324.906 169.363 325.077C176.914 325.265 184.466 325.213 192.018 324.94C193.265 324.889 194.547 324.838 195.657 324.274C196.768 323.71 197.639 322.497 197.417 321.284C201.637 321.557 205.84 321.848 210.06 322.121C212.367 322.275 214.741 322.411 216.911 321.625L217.595 321.028C221.644 316.107 223.147 309.649 224.531 303.447C225.591 298.714 226.65 293.981 227.709 289.266C228.29 286.686 228.393 283.986 227.658 281.441L227.761 281.372Z" fill="#FEB2B6"/>
<path d="M55.0768 57.5537C55.5552 57.9125 56.0165 58.2542 56.4949 58.613C56.9903 58.9888 57.5542 58.2029 57.0587 57.827C56.5803 57.4682 56.119 57.1265 55.6406 56.7677C55.1451 56.3919 54.5813 57.1778 55.0768 57.5537Z" fill="#3C3C3D"/>
<path d="M58.5784 55.4004C58.681 55.8959 58.7835 56.4085 58.886 56.9039C59.0056 57.5019 59.9624 57.3482 59.8257 56.7331C59.7232 56.2376 59.6206 55.7251 59.5181 55.2296C59.3985 54.6316 58.4418 54.7854 58.5784 55.4004Z" fill="#3C3C3D"/>
<path d="M62.6978 55.8617C62.3219 56.2888 61.946 56.7331 61.5701 57.1602C61.1601 57.6215 61.946 58.1853 62.3561 57.724C62.7319 57.2969 63.1078 56.8527 63.4837 56.4255C63.8938 55.9642 63.1078 55.4004 62.6978 55.8617Z" fill="#3C3C3D"/>
<path d="M64.2855 60.2015C64.5589 62.6277 62.8162 64.8146 60.39 65.0879C57.9639 65.3613 55.777 63.6186 55.5036 61.1925C55.2303 58.7664 56.973 56.5794 59.3991 56.3061C61.8252 56.0327 64.0121 57.7754 64.2855 60.2015Z" fill="white"/>
<path d="M63.2952 61.2101C63.4661 62.7477 62.3555 64.1487 60.8178 64.3196C59.2802 64.4905 57.8792 63.3799 57.7083 61.8422C57.5375 60.3045 58.648 58.9035 60.1857 58.7327C61.7234 58.5618 63.1244 59.6724 63.2952 61.2101Z" fill="#3C3C3D"/>
<path d="M61.1062 60.6126C61.1574 61.1251 60.7986 61.5864 60.2861 61.6377C59.7735 61.6889 59.3122 61.3301 59.2609 60.8176C59.2097 60.305 59.5685 59.8437 60.081 59.7925C60.5936 59.7412 61.0549 60.1 61.1062 60.6126Z" fill="white"/>
<path d="M105.411 60.2878C105.753 60.7662 106.112 61.2445 106.454 61.7059C106.83 62.2013 107.581 61.6204 107.222 61.125C106.881 60.6466 106.522 60.1682 106.18 59.7069C105.804 59.2114 105.053 59.7923 105.411 60.2878Z" fill="#3C3C3D"/>
<path d="M109.393 59.2457C109.342 59.7582 109.291 60.2708 109.257 60.7834C109.205 61.3984 110.162 61.518 110.213 60.903C110.265 60.3904 110.316 59.8778 110.35 59.3653C110.401 58.7502 109.445 58.6306 109.393 59.2457Z" fill="#3C3C3D"/>
<path d="M113.186 60.903C112.691 61.2106 112.212 61.501 111.717 61.8085C111.187 62.1332 111.785 62.902 112.298 62.5774C112.793 62.2699 113.272 61.9794 113.767 61.6719C114.297 61.3472 113.699 60.5784 113.186 60.903Z" fill="#3C3C3D"/>
<path d="M113.441 65.5171C112.997 67.909 110.69 69.498 108.281 69.0537C105.872 68.6095 104.3 66.303 104.745 63.894C105.189 61.4849 107.495 59.9131 109.904 60.3573C112.296 60.8015 113.885 63.108 113.441 65.5171Z" fill="white"/>
<path d="M112.193 66.1832C111.903 67.7038 110.434 68.7289 108.913 68.4384C107.392 68.148 106.367 66.6786 106.658 65.158C106.948 63.6374 108.418 62.6123 109.938 62.9028C111.459 63.1932 112.484 64.6626 112.193 66.1832Z" fill="#3C3C3D"/>
<path d="M110.279 64.9865C110.194 65.499 109.698 65.8237 109.186 65.7382C108.673 65.6528 108.349 65.1573 108.434 64.6448C108.519 64.1322 109.015 63.8076 109.528 63.893C110.04 63.9955 110.365 64.4739 110.279 64.9865Z" fill="white"/>
<path d="M77.0847 69.5648C76.948 71.2904 78.0244 72.9647 79.6816 73.5115C81.4243 74.0924 83.3037 73.3235 84.4314 71.9567C84.9098 71.3758 84.0897 70.5557 83.6113 71.1366C82.8424 72.0763 81.6806 72.7426 80.4163 72.4864C79.0153 72.213 78.1269 70.9658 78.2465 69.5648C78.3148 68.813 77.1359 68.8301 77.0847 69.5648Z" fill="#3A3B3C"/>
<path d="M40.0435 54.5125C39.36 55.7598 38.9671 57.0924 38.8987 58.5276C38.8646 59.2793 40.0264 59.2793 40.0605 58.5276C40.1289 57.3145 40.4535 56.1698 41.0515 55.1105C41.4103 54.4613 40.4022 53.8633 40.0435 54.5296V54.5125Z" fill="#D88185"/>
<path d="M29.827 77.6282C29.417 79.2684 29.1265 80.9086 28.9215 82.583C28.8361 83.3177 29.9979 83.3177 30.0833 82.583C30.2713 81.0111 30.5617 79.4564 30.9547 77.9358C31.1426 77.2011 30.015 76.8936 29.827 77.6282Z" fill="#D88185"/>
<path d="M42.1281 99.7547C42.0598 101.053 41.9744 102.352 41.906 103.65C41.8548 104.402 43.0337 104.402 43.0678 103.65C43.1362 102.352 43.2216 101.053 43.29 99.7547C43.3412 99.003 42.1623 99.003 42.1281 99.7547Z" fill="#D88185"/>
<path d="M61.2306 91.2811C60.9744 92.4429 60.9402 93.6047 61.1452 94.7836C61.2648 95.5182 62.3925 95.2107 62.2729 94.476C62.102 93.5022 62.1362 92.5454 62.3583 91.5886C62.5291 90.8539 61.4015 90.5464 61.2306 91.2811Z" fill="#D88185"/>
<path d="M84.8572 102.933C85.028 104.369 84.9768 105.804 84.6692 107.222C84.5155 107.957 85.6431 108.264 85.7969 107.529C86.1215 106.009 86.2069 104.488 86.019 102.933C85.9335 102.199 84.7717 102.182 84.8572 102.933Z" fill="#D88185"/>
<path d="M104.216 94.4408C104.148 95.5684 104.062 96.6789 103.994 97.8066C103.943 98.5583 105.105 98.5583 105.156 97.8066C105.224 96.6789 105.31 95.5684 105.378 94.4408C105.429 93.689 104.267 93.689 104.216 94.4408Z" fill="#D88185"/>
<path d="M61.1286 113.014L60.7869 118.139C60.7356 118.891 61.8974 118.891 61.9487 118.139C62.0683 116.431 62.1708 114.722 62.2904 113.014C62.3417 112.262 61.1798 112.262 61.1286 113.014Z" fill="#D88185"/>
<path d="M34.0626 118.326C33.8063 119.676 33.6867 121.025 33.7038 122.392C33.7209 123.144 34.8827 123.144 34.8656 122.392C34.8315 121.128 34.934 119.881 35.1732 118.634C35.3099 117.899 34.1993 117.591 34.0455 118.326H34.0626Z" fill="#D88185"/>
<path d="M103.499 119.386C103.43 120.872 103.447 122.341 103.567 123.811C103.618 124.545 104.78 124.562 104.729 123.811C104.626 122.341 104.592 120.855 104.661 119.386C104.695 118.634 103.533 118.634 103.499 119.386Z" fill="#D88185"/>
<path d="M84.1907 129.466V133.532C84.1907 134.284 85.3525 134.284 85.3525 133.532V129.466C85.3525 128.714 84.1907 128.714 84.1907 129.466Z" fill="#D88185"/>
<path d="M44.8462 135.84C44.8291 137.446 44.7095 139.052 44.4532 140.641C44.3336 141.376 45.4612 141.683 45.5808 140.949C45.8542 139.257 45.9909 137.549 46.0251 135.84C46.0251 135.088 44.8632 135.088 44.8632 135.84H44.8462Z" fill="#D88185"/>
<path d="M25.7952 148.584C25.9319 150.207 25.8294 151.796 25.4877 153.385C25.3339 154.12 26.4445 154.427 26.6153 153.693C26.9912 152.001 27.1108 150.31 26.9741 148.584C26.9058 147.85 25.744 147.833 25.8123 148.584H25.7952Z" fill="#D88185"/>
<path d="M67.192 145.748C67.2775 146.927 67.2433 148.106 67.1066 149.302C67.0212 150.037 68.183 150.037 68.2684 149.302C68.4051 148.123 68.4393 146.944 68.3538 145.748C68.3026 144.997 67.1408 144.997 67.192 145.748Z" fill="#D88185"/>
<path d="M88.702 158.085C88.3774 159.811 88.4628 161.519 89.0095 163.211C89.2317 163.928 90.3593 163.621 90.1372 162.903C89.6759 161.417 89.5563 159.93 89.8296 158.393C89.9663 157.658 88.8387 157.351 88.702 158.085Z" fill="#D88185"/>
<path d="M46.7738 157.282C46.4662 158.751 46.5517 160.221 47.0813 161.622C47.3547 162.322 48.4652 162.015 48.2089 161.314C47.7476 160.101 47.628 158.871 47.9014 157.607C48.0552 156.872 46.9275 156.564 46.7738 157.299V157.282Z" fill="#D88185"/>
<path d="M72.8813 174.007C73.821 175.186 74.8461 176.28 75.9567 177.305C76.5034 177.817 77.3406 176.98 76.7768 176.485C75.6662 175.459 74.6411 174.366 73.7014 173.187C73.2401 172.606 72.42 173.426 72.8813 174.007Z" fill="#D88185"/>
<path d="M111.631 171.137C113.306 171.53 114.98 171.923 116.637 172.316C117.372 172.487 117.679 171.36 116.945 171.189C115.27 170.796 113.596 170.403 111.939 170.01C111.204 169.839 110.897 170.967 111.631 171.137Z" fill="#D88185"/>
<path d="M104.969 195.142C106.592 195.569 108.232 195.74 109.907 195.671C110.658 195.637 110.658 194.476 109.907 194.51C108.335 194.578 106.797 194.424 105.277 194.014C104.559 193.826 104.234 194.954 104.969 195.142Z" fill="#D88185"/>
<path d="M129.28 184.345C130.955 184.242 132.646 184.123 134.32 184.02C135.072 183.969 135.072 182.807 134.32 182.859C132.646 182.961 130.955 183.081 129.28 183.183C128.529 183.234 128.529 184.396 129.28 184.345Z" fill="#D88185"/>
<path d="M146.963 167.431C147.63 166.799 148.416 166.372 149.304 166.133C150.022 165.945 149.714 164.817 148.996 165.005C147.92 165.278 146.946 165.825 146.143 166.594C145.596 167.106 146.434 167.944 146.963 167.414V167.431Z" fill="#D88185"/>
<path d="M157.693 181.817C159.282 181.082 160.786 180.211 162.204 179.168C162.802 178.724 162.204 177.716 161.623 178.16C160.205 179.203 158.718 180.091 157.112 180.826C156.429 181.133 157.027 182.141 157.693 181.834V181.817Z" fill="#D88185"/>
<path d="M165.058 165.892C166.374 164.816 167.689 163.74 169.005 162.663C169.586 162.185 168.766 161.365 168.185 161.843C166.869 162.919 165.554 163.996 164.238 165.072C163.657 165.551 164.494 166.371 165.058 165.892Z" fill="#D88185"/>
<path d="M174.112 150.43C175.359 149.832 176.606 149.234 177.853 148.653C178.537 148.329 177.939 147.32 177.272 147.645C176.025 148.243 174.778 148.841 173.531 149.422C172.847 149.747 173.445 150.755 174.112 150.43Z" fill="#D88185"/>
<path d="M29.9647 175.203V179.987C29.9647 180.739 31.1265 180.739 31.1265 179.987V175.203C31.1265 174.452 29.9647 174.452 29.9647 175.203Z" fill="#D88185"/>
<path d="M56.2588 187.676C56.1563 189.247 56.2588 190.785 56.5663 192.34C56.703 193.075 57.8306 192.767 57.694 192.032C57.4206 190.597 57.3352 189.145 57.4377 187.676C57.4889 186.924 56.3271 186.924 56.2759 187.676H56.2588Z" fill="#D88185"/>
<path d="M83.9185 198.304C84.1235 200.064 84.3115 201.841 84.5165 203.6C84.6019 204.335 85.7637 204.352 85.6783 203.6C85.4733 201.841 85.2853 200.064 85.0803 198.304C84.9949 197.569 83.8331 197.552 83.9185 198.304Z" fill="#D88185"/>
<path d="M12.9964 200.251C12.5009 202.045 12.1421 203.873 11.9029 205.719C11.8175 206.453 12.9793 206.453 13.0647 205.719C13.2868 203.976 13.6456 202.25 14.1069 200.559C14.3119 199.841 13.1843 199.534 12.9793 200.251H12.9964Z" fill="#D88185"/>
</g>
</g>
</g>
<defs>
<clipPath id="clip0_135_669">
<rect width="240.972" height="304" fill="white" transform="translate(-8 22)"/>
</clipPath>
</defs>
</svg>
