<svg width="200" height="200" viewBox="0 0 200 200" fill="none" xmlns="http://www.w3.org/2000/svg">
<mask id="mask0_135_665" style="mask-type:alpha" maskUnits="userSpaceOnUse" x="0" y="0" width="200" height="200">
<rect width="200" height="200" rx="16" fill="white"/>
</mask>
<g mask="url(#mask0_135_665)">
<rect width="200" height="200" rx="16" fill="white" fill-opacity="0.8"/>
<path d="M204.459 297.859C203.691 296.625 202.874 295.423 202.023 294.239C196.55 304.349 185.89 311.673 174.378 312.608C170.474 312.925 166.336 312.507 163.133 310.255C158.578 307.085 156.977 300.912 157.611 295.407C158.245 289.901 160.697 284.796 162.833 279.674C171.692 258.285 175.846 228.205 177.281 203.913C177.014 203.213 176.747 202.512 176.447 201.811C174.027 196.005 170.724 190.583 166.72 185.728C166.153 185.645 165.669 185.278 165.736 184.694L166.203 185.094C166.386 185.311 166.553 185.528 166.72 185.745C167.304 185.828 168.005 185.645 168.322 185.111C168.956 184.076 168.539 182.742 168.105 181.624C162.232 166.208 155.842 150.826 153.106 134.542C149.869 115.256 151.821 94.902 144.814 76.6333C141.528 68.0579 136.389 60.3334 131.034 52.8758C129.599 50.8737 128.131 48.8884 126.279 47.2867C121.607 43.2826 115.117 42.2816 108.978 41.9313C102.471 41.5475 95.9478 41.6977 89.4745 42.365L82.9178 43.4995C78.0462 44.8342 73.0244 46.2357 69.0537 49.3722C61.4292 55.3783 59.5606 66.0058 58.8099 75.6824C57.4585 93.2837 58.0591 110.968 58.593 128.62C58.7431 133.425 58.8766 138.296 57.8923 143.001C56.5743 149.341 53.3209 155.08 50.8518 161.053C50.3012 162.388 49.784 163.789 49.834 165.24C49.8674 166.108 50.1177 166.976 50.0843 167.843C50.0176 169.879 48.516 171.53 47.148 173.048C43.3941 177.203 40.024 181.724 37.1378 186.529C36.704 187.246 36.3036 188.047 35.9532 188.865C37.1711 194.07 37.0377 199.592 35.4861 204.697C34.435 208.168 32.75 211.438 31.7656 214.924C29.9471 221.381 30.5811 228.238 31.2317 234.912C32.4997 247.825 33.751 260.738 35.0189 273.651C35.4527 278.072 35.8865 282.543 35.119 286.915C34.3516 291.286 32.2494 295.607 28.5623 298.059C26.627 299.361 24.3414 300.078 22.0557 300.545C17.8347 301.413 13.3635 301.446 9.29268 300.061C7.29063 299.377 5.38869 298.31 3.75369 296.942C3.62022 301.463 4.30425 305.901 6.18951 310.088C9.79319 318.08 17.1173 323.669 24.2079 328.841C25.6427 329.892 27.1776 330.976 28.9461 331.11C30.7145 331.243 32.7166 330.009 32.6999 328.223C45.563 333.696 59.9277 334.113 73.9086 334.446C79.9481 334.597 86.0377 334.73 92.0104 333.812C95.5974 333.262 99.101 332.328 102.605 331.393C107.593 330.059 112.581 328.741 117.587 327.406C117.019 327.089 116.452 326.789 115.901 326.455L117.887 327.323C117.787 327.356 117.687 327.373 117.587 327.406C134.537 336.966 154.891 341.537 173.66 336.549C182.887 334.096 191.395 329.458 199.403 324.269C202.79 322.067 206.26 319.581 207.929 315.911C210.565 310.105 207.879 303.298 204.492 297.892L204.459 297.859Z" fill="#FEB2B6"/>
<path d="M22.0396 300.511C24.3253 300.044 26.5943 299.327 28.5463 298.025C32.2334 295.556 34.3522 291.235 35.103 286.881C35.8537 282.526 35.4366 278.038 35.0029 273.617C33.7349 260.704 32.4836 247.791 31.2157 234.878C30.565 228.204 29.931 221.347 31.7495 214.89C32.7339 211.404 34.4022 208.134 35.47 204.663C37.0216 199.541 37.1551 194.019 35.9371 188.831C34.6525 191.884 34.2354 195.354 36.7213 197.206C27.8456 207.9 22.9739 221.831 23.2242 235.712L23.4744 236.846C22.8738 249.709 15.8833 261.238 10.4111 272.9C6.89083 280.391 3.97118 288.766 3.73761 296.908C5.35593 298.276 7.25787 299.343 9.2766 300.027C13.3641 301.412 17.8186 301.379 22.0396 300.511Z" fill="#D88185"/>
<path d="M165.735 184.693C165.669 185.294 166.152 185.644 166.72 185.728C166.536 185.511 166.369 185.294 166.203 185.077L165.735 184.677V184.693Z" fill="#FEB2B6"/>
<path d="M52.6864 285.897C51.2016 280.208 49.7 274.535 48.2152 268.846C47.2809 265.276 46.3299 261.689 46.063 258.002C45.7126 253.314 46.4467 248.592 47.4811 244.004C50.4174 230.841 55.6227 218.311 60.8114 205.865C62.3129 202.278 63.8144 198.658 66 195.421C69.0531 190.883 73.2908 187.28 77.4951 183.776C82.35 179.739 87.4552 175.651 93.5448 174.016C96.4477 173.232 99.4842 173.048 102.487 173.098C108.543 173.199 114.8 174.316 119.755 177.803C123.375 180.356 126.061 184.01 128.631 187.613C137.456 200.026 145.715 212.939 151.754 226.903C157.794 240.884 161.564 256.033 161.08 271.249C160.897 276.954 160.096 282.76 157.577 287.899C155.058 293.021 150.62 297.425 145.097 298.86C140.426 300.061 135.438 299.11 130.733 300.161C126.795 301.029 123.325 303.248 119.938 305.417C118.854 306.118 117.686 306.835 116.385 306.768C115.417 306.718 112.247 308.87 111.396 308.403C92.9775 298.109 73.4076 289.784 52.6697 285.847L52.6864 285.897Z" fill="#FFE5B8"/>
<path d="M117.703 79.9028C117.553 83.7568 120.54 87.1769 124.077 88.7285C126.663 89.8797 131.868 90.2467 135.972 90.3802C136.973 84.958 136.79 79.3356 135.405 73.9968C134.938 72.195 134.287 70.3931 133.453 68.6914C129.065 69.0418 124.677 70.2263 121.374 73.0792C119.372 74.8143 117.803 77.2335 117.703 79.8862V79.9028Z" fill="#E25243"/>
<path d="M124.075 88.7286C120.555 87.1604 117.552 83.7569 117.702 79.903C117.802 77.2503 119.371 74.8311 121.373 73.096C124.676 70.2431 129.064 69.0586 133.452 68.7082C131.733 65.2547 129.181 62.2516 125.594 60.7501C123.291 59.7824 120.739 59.5155 118.219 59.4488C115.934 59.3987 113.648 59.5155 111.379 59.7991L108.66 60.016C99.9674 60.5666 91.3252 61.6343 82.7665 63.1692C79.6967 63.7198 76.6269 64.3538 73.7907 65.605C70.9544 66.8563 68.3518 68.7916 66.8669 71.4443C66.2329 72.5788 65.8158 73.8134 65.5322 75.0647C69.9367 74.9813 74.408 75.7487 77.9783 78.2513C80.1471 79.7862 81.9323 82.0385 82.2993 84.6578C82.8165 88.4784 80.1805 92.1655 76.8271 94.0674C74.141 95.5856 71.0879 96.2029 68.0181 96.62C68.7522 97.6377 69.603 98.572 70.6541 99.2894C71.872 100.124 73.2568 100.641 74.6749 101.091C86.9374 104.912 100.201 102.242 113.081 101.892C117.819 101.759 122.624 101.942 127.212 100.841C129.064 100.391 130.916 99.7065 132.334 98.4719C134.302 96.7368 135.203 94.1508 135.754 91.6316C135.854 91.2145 135.921 90.7974 135.987 90.3803C131.883 90.2302 126.678 89.8798 124.092 88.7286H124.075Z" fill="#FFE5B8"/>
<path d="M82.2668 84.6745C81.8997 82.0551 80.1146 79.7861 77.9457 78.2679C74.3754 75.7487 69.9042 74.9979 65.4997 75.0813C65.2494 76.1491 65.0826 77.2335 64.9324 78.3013C64.482 81.588 64.1983 84.9414 64.6988 88.2281C65.0158 90.2802 65.6164 92.2822 66.5174 94.1508C66.9345 95.0184 67.4183 95.8525 67.9855 96.6367C71.0553 96.2196 74.1084 95.6023 76.7945 94.0841C80.1479 92.1821 82.8006 88.495 82.2668 84.6745Z" fill="#E25243"/>
<path d="M100.919 74.8477C98.8669 74.8644 96.7481 74.8978 94.9129 75.8654C93.0777 76.8164 91.5928 78.9519 91.8765 81.2543C92.1434 83.2897 93.7284 84.9247 95.4635 85.5754C97.1986 86.2427 99.0671 86.1092 100.869 85.8923C103.138 85.592 105.424 85.1416 107.476 84.0405C108.06 83.7401 108.61 83.3731 109.044 82.8392C110.145 81.4712 109.995 79.1688 108.994 77.6172C107.976 76.0823 106.291 75.2481 104.623 75.0479C104.623 75.0479 101.87 74.8311 100.902 74.8311L100.919 74.8477Z" fill="#3A3B3C"/>
<path d="M86.6206 84.9249C86.7207 85.8258 85.3526 86.7434 83.5341 86.9603C81.7322 87.1772 80.164 86.6266 80.0639 85.709C79.9638 84.8081 81.3318 83.8905 83.1504 83.6736C84.9689 83.4567 86.5205 84.0073 86.6206 84.9249Z" fill="#E86B53"/>
<path d="M79.9979 71.8115C79.9479 71.6447 79.8811 71.4778 79.7644 71.2943C78.4463 69.2589 73.8917 68.5248 71.9397 69.676C71.239 70.0931 71.0054 70.727 71.0722 71.361C70.8553 72.4288 72.0064 73.4632 73.0241 73.7635C73.0408 73.7635 73.0575 73.7635 73.0742 73.7635C73.7916 74.0471 74.7592 74.264 75.6435 74.2473C76.8948 74.3307 78.1794 74.1806 79.1637 73.5132C79.781 73.0961 80.1648 72.4788 79.9812 71.7781L79.9979 71.8115Z" fill="#FEB2B6"/>
<path d="M68.6525 81.3716C69.1196 81.8053 69.5868 82.2391 70.0706 82.6729C70.5711 83.1234 71.2551 82.3559 70.7713 81.8888C70.3042 81.455 69.837 81.0212 69.3532 80.5874C68.8527 80.137 68.1686 80.9044 68.6525 81.3716Z" fill="#3C3C3D"/>
<path d="M72.6893 79.436C72.7393 79.9866 72.7894 80.5538 72.8561 81.1044C72.9228 81.7717 73.9572 81.705 73.9072 81.0376C73.8571 80.4871 73.8071 79.9198 73.7403 79.3693C73.6736 78.7019 72.6392 78.7687 72.6893 79.436Z" fill="#3C3C3D"/>
<path d="M77.0776 80.4206C76.6104 80.8377 76.16 81.2715 75.6928 81.6886C75.1923 82.139 75.9765 82.8397 76.477 82.3893C76.9441 81.9722 77.3946 81.5384 77.8617 81.1213C78.3622 80.6708 77.5781 79.9701 77.0776 80.4206Z" fill="#3C3C3D"/>
<path d="M78.2964 85.2922C78.2964 87.9449 76.1776 90.1138 73.5082 90.1305C70.8555 90.1305 68.6866 88.0117 68.6699 85.3423C68.6532 82.6729 70.7887 80.5207 73.4581 80.504C76.1275 80.4873 78.2797 82.6228 78.2964 85.2922Z" fill="white"/>
<path d="M76.7286 85.4922C76.7286 87.1773 75.3772 88.562 73.6754 88.5787C71.9904 88.5787 70.6056 87.2273 70.589 85.5256C70.589 83.8406 71.9403 82.4558 73.6421 82.4391C75.3438 82.4224 76.7119 83.7905 76.7286 85.4922Z" fill="#3C3C3D"/>
<path d="M74.8919 84.4747C74.8919 85.0419 74.4415 85.4924 73.8909 85.4924C73.3237 85.4924 72.8732 85.0419 72.8732 84.4913C72.8732 83.9241 73.3237 83.4736 73.8742 83.4736C74.4248 83.4736 74.8919 83.9241 74.8919 84.4747Z" fill="white"/>
<path d="M103.705 88.6288C104.723 90.2138 106.658 90.9478 108.476 90.3639C110.412 89.7299 111.496 87.7779 111.563 85.826C111.58 85.0919 110.445 85.0919 110.428 85.826C110.378 87.2274 109.661 88.6789 108.293 89.2127C106.975 89.7299 105.473 89.2461 104.706 88.0449C104.306 87.4276 103.321 87.9948 103.722 88.6121L103.705 88.6288Z" fill="#3A3B3C"/>
<path d="M133.32 75.7485C132.852 76.1823 132.385 76.6161 131.901 77.0498C131.401 77.5003 130.717 76.7329 131.201 76.2657C131.668 75.8319 132.135 75.3982 132.619 74.9644C133.119 74.5139 133.803 75.2814 133.32 75.7485Z" fill="#3C3C3D"/>
<path d="M129.283 73.8134C129.233 74.364 129.183 74.9313 129.116 75.4818C129.05 76.1492 128.015 76.0824 128.065 75.4151C128.115 74.8645 128.165 74.2973 128.232 73.7467C128.299 73.0794 129.333 73.1461 129.283 73.8134Z" fill="#3C3C3D"/>
<path d="M124.896 74.798C125.363 75.2151 125.814 75.6489 126.281 76.066C126.781 76.5164 125.997 77.2172 125.497 76.7667C125.03 76.3496 124.579 75.9158 124.112 75.4987C123.612 75.0483 124.396 74.3476 124.896 74.798Z" fill="#3C3C3D"/>
<path d="M123.678 79.6863C123.678 82.339 125.796 84.5079 128.466 84.5245C131.135 84.5412 133.287 82.4057 133.304 79.7363C133.304 77.0836 131.185 74.9147 128.516 74.898C125.846 74.8814 123.694 77.0169 123.678 79.6863Z" fill="white"/>
<path d="M125.245 79.8695C125.245 81.5546 126.596 82.9393 128.298 82.956C129.983 82.956 131.368 81.6046 131.385 79.9029C131.385 78.2178 130.033 76.8331 128.332 76.8164C126.646 76.8164 125.262 78.1678 125.245 79.8695Z" fill="#3C3C3D"/>
<path d="M127.079 78.8516C127.079 79.4189 127.53 79.8693 128.081 79.8693C128.648 79.8693 129.098 79.4189 129.098 78.8683C129.098 78.301 128.648 77.8506 128.097 77.8506C127.53 77.8506 127.079 78.301 127.079 78.8516Z" fill="white"/>
<path d="M116.301 67.8241C116.318 67.6573 116.384 67.4738 116.468 67.2903C117.552 65.1214 122.024 63.9202 124.076 64.8378C124.826 65.1714 125.127 65.772 125.127 66.4227C125.46 67.4738 124.426 68.6083 123.442 69.0254C123.425 69.0254 123.408 69.0254 123.392 69.042C122.708 69.4091 121.773 69.7261 120.889 69.8095C119.654 70.0264 118.37 70.0097 117.302 69.4591C116.651 69.1088 116.201 68.5249 116.301 67.8241Z" fill="#FEB2B6"/>
<path d="M122.81 82.0553C122.91 82.9562 121.542 83.8738 119.723 84.0907C117.905 84.3076 116.353 83.757 116.253 82.8394C116.153 81.9385 117.521 81.0209 119.34 80.804C121.142 80.5871 122.71 81.1377 122.81 82.0553Z" fill="#E86B53"/>
<path d="M76.0931 30.6862C74.5582 31.5203 72.4894 31.2534 71.2214 30.0355C70.6542 29.5016 70.2371 28.7508 70.2872 27.9834C70.3372 26.9156 71.2048 26.0481 72.2058 25.6644C73.1901 25.2806 74.2912 25.314 75.359 25.3307C74.4581 24.046 73.7073 22.6112 73.5572 21.043C73.4237 19.4747 74.0076 17.7897 75.3089 16.9221C76.9606 15.8377 79.1295 16.3048 81.0314 16.822C80.1138 15.1369 81.0314 12.7345 82.8166 12.0671C84.6184 11.3998 86.8707 12.601 87.2878 14.4863C87.2878 12.1172 88.7727 9.61465 91.0917 9.08077C93.4108 8.54689 96.0968 10.7491 95.4962 13.0515C96.6307 12.0505 97.8153 11.0328 99.2667 10.599C100.718 10.1652 102.503 10.4822 103.338 11.7502C104.222 13.1182 103.688 14.9201 103.071 16.4383C104.872 15.1203 107.725 15.6375 108.977 17.4893C110.211 19.3412 109.594 22.1775 107.675 23.3453C110.195 22.9783 112.781 25.4141 112.43 27.9333C112.08 30.4693 108.71 32.0542 106.608 30.6027L76.0931 30.7195V30.6862Z" fill="#4EB0A9"/>
<path d="M100.703 117.425C101.704 152.844 104.557 188.23 109.229 223.366C109.379 224.467 109.579 225.668 110.463 226.352C111.131 226.87 112.015 226.953 112.849 226.986C118.388 227.303 123.944 227.036 129.433 226.202C130.183 226.085 130.984 225.935 131.485 225.368C132.002 224.801 132.052 223.967 132.085 223.199C132.319 215.091 130.884 207.049 129.766 199.025C128.098 187.012 127.164 174.883 126.964 162.754C126.697 146.788 127.681 130.721 125.395 114.905C125.262 114.021 125.095 113.07 124.411 112.486C123.46 111.669 122.008 111.986 120.807 112.353C114.234 114.338 107.06 114.488 100.487 116.474L100.72 117.425H100.703Z" fill="#E25243"/>
<path d="M85.7549 44.6837C86.3722 48.9547 86.9061 53.2425 87.3732 57.5468C89.5254 57.33 91.6609 57.063 93.7965 56.7794C93.6964 52.3916 93.0457 48.0038 92.5452 43.666C90.2595 44.0331 87.9905 44.3834 85.7549 44.6837Z" fill="#E86B53"/>
<path d="M100.386 49.3716C100.269 47.1193 100.386 44.6835 99.7353 42.5146C98.7343 42.6648 97.7332 42.7983 96.7656 42.9651C95.8313 43.1153 94.897 43.2654 93.9794 43.4156C94.4799 47.77 95.1306 52.1745 95.2474 56.5623C97.0492 56.3121 98.8344 56.0284 100.636 55.7448C100.87 53.6594 100.519 51.4071 100.403 49.3716H100.386Z" fill="#E86B53"/>
<path d="M77.5796 45.568C78.6307 49.6889 79.4148 53.8598 79.932 58.0808C81.9341 57.9973 83.9361 57.8472 85.9215 57.6637C85.471 53.376 84.9371 49.1216 84.3199 44.8506C82.0676 45.1342 79.8153 45.3845 77.563 45.5513L77.5796 45.568Z" fill="#E86B53"/>
<path d="M70.7374 53.6262C70.2869 51.0235 69.703 48.5043 69.6363 45.8683C68.4684 45.8683 67.2838 45.8182 66.0993 45.7515C66.0993 49.7556 66.7333 53.8431 67.1671 57.8305C68.5018 57.9472 69.8365 58.0473 71.1711 58.1141C71.1711 58.0807 71.1712 58.064 71.1545 58.0307C70.7707 56.7126 70.9876 55.0276 70.7374 53.6262Z" fill="#E86B53"/>
<path d="M71.0724 45.852C71.1391 48.0542 71.5562 50.1731 71.9566 52.3419C72.0567 52.8424 72.4738 57.8142 72.5739 57.8642C72.7073 57.9477 72.7908 58.0478 72.8408 58.1479C74.7261 58.1979 76.5947 58.1812 78.4799 58.1312C77.946 53.9269 77.1619 49.7726 76.1108 45.6685C74.4425 45.7686 72.7574 45.8353 71.0557 45.852H71.0724Z" fill="#E86B53"/>
<path d="M98.6326 41.2137C102.92 40.513 107.492 40.0292 112.08 39.4119C112.263 39.2951 112.497 39.2617 112.697 39.3285C116.501 38.8113 120.305 38.194 123.975 37.2931C124.042 37.2597 124.125 37.243 124.192 37.243C124.325 37.2097 124.476 37.1596 124.609 37.1262C123.758 35.875 122.724 34.7405 121.539 33.7561C119.42 32.0377 116.868 30.8198 114.282 29.7854C107.408 26.9992 99.984 25.1473 92.493 25.3976C85.002 25.6479 77.4276 28.1838 72.2056 33.1555C70.1368 35.1075 68.4852 37.3932 66.8335 39.6622C65.749 41.147 64.6646 42.6319 63.5968 44.1167C75.5424 45.2345 86.7204 43.1657 98.666 41.2137H98.6326Z" fill="#E86B53"/>
<path d="M104.941 41.8477C103.673 41.9978 102.422 42.1646 101.187 42.3315C101.821 44.5838 101.704 47.0697 101.838 49.3887C101.955 51.4074 102.238 53.4929 102.088 55.5283C103.59 55.278 105.108 55.0278 106.609 54.7608C106.609 50.5399 105.542 46.0019 104.958 41.8477H104.941Z" fill="#E86B53"/>
<path d="M61.3118 45.3013C60.7446 45.7684 60.4109 46.5025 60.5277 47.32L61.4453 53.4763C61.7623 55.6785 63.5308 57.3969 65.733 57.6639C65.2825 53.6765 64.6819 49.6223 64.6819 45.6349C63.5808 45.5515 62.463 45.4347 61.3285 45.3013H61.3118Z" fill="#E86B53"/>
<path d="M126.546 50.0397C128.114 49.0053 128.998 47.1367 128.715 45.2014L127.814 39.1452C127.747 38.6447 127.513 38.2276 127.196 37.9106C126.462 38.1275 125.728 38.3444 124.994 38.5279C125.578 42.3485 126.095 46.1858 126.546 50.0397Z" fill="#E86B53"/>
<path d="M111.847 40.9635C110.012 41.2137 108.177 41.4473 106.359 41.6642C106.926 45.785 107.977 50.2896 108.027 54.5106C108.344 54.4606 108.661 54.3938 108.978 54.3438C110.363 54.1102 111.747 53.86 113.132 53.6097C113.049 51.8079 112.615 49.689 112.548 48.6546C112.365 46.0854 112.281 43.4827 111.864 40.9468L111.847 40.9635Z" fill="#E86B53"/>
<path d="M118.705 39.9122C119.339 43.9664 119.873 48.0205 120.357 52.0913C121.975 51.6909 123.593 51.2405 125.178 50.7066C124.711 46.7692 124.194 42.8319 123.593 38.8945C121.992 39.2783 120.357 39.6119 118.705 39.9122Z" fill="#E86B53"/>
<path d="M117.32 40.1456C115.986 40.3792 114.634 40.5794 113.283 40.7629C113.75 43.5657 113.85 46.4353 114.034 49.2716C114.1 50.356 114.417 51.8742 114.551 53.3257C116.036 53.0421 117.504 52.7418 118.972 52.4081C118.488 48.3373 117.954 44.2831 117.32 40.2457C117.32 40.2123 117.32 40.179 117.32 40.1289V40.1456Z" fill="#E86B53"/>
<path d="M124.811 37.3767H124.778C124.778 37.3767 124.661 37.2099 124.594 37.1265C124.461 37.1598 124.311 37.2099 124.177 37.2433C124.11 37.2433 124.027 37.2766 123.96 37.2933C120.29 38.1942 116.486 38.8115 112.682 39.3287C112.482 39.262 112.265 39.2953 112.065 39.4121C107.477 40.0294 102.905 40.5133 98.6177 41.214C86.6722 43.166 75.4941 45.2347 63.5486 44.1169C63.3818 44.3505 63.2149 44.5841 63.0481 44.801C62.3807 44.7009 61.7634 44.9177 61.2963 45.3015C62.4141 45.4349 63.5319 45.5517 64.6497 45.6351C64.6497 49.6225 65.267 53.6767 65.7008 57.6641H65.7342C66.2013 57.7141 66.6851 57.7475 67.1523 57.7976C66.7018 53.7935 66.1012 49.7227 66.0845 45.7186C67.2691 45.7853 68.4536 45.8187 69.6215 45.8354C69.6882 48.4714 70.2888 51.0073 70.7226 53.5933C70.9562 54.978 70.7559 56.6798 71.1397 57.9978C71.1397 58.0311 71.1397 58.0478 71.1564 58.0812C71.7236 58.0979 72.2742 58.1145 72.8414 58.1312C72.7914 58.0144 72.7079 57.9143 72.5745 57.8476C72.4744 57.7809 72.0573 52.8091 71.9572 52.3253C71.5568 50.1731 71.123 48.0376 71.0729 45.8354C72.758 45.8354 74.443 45.7686 76.1281 45.6518C77.1959 49.756 77.98 53.9103 78.4972 58.1146C78.981 58.1146 79.4482 58.0812 79.932 58.0645C79.3981 53.8435 78.6307 49.6726 77.5796 45.5517C79.8319 45.3849 82.0675 45.1346 84.3365 44.851C84.9538 49.1054 85.4877 53.3764 85.9381 57.6641C86.4219 57.614 86.8891 57.5807 87.3729 57.5306C86.9224 53.2262 86.3886 48.9385 85.7546 44.6675C87.9902 44.3672 90.2592 44.0168 92.5449 43.6498C93.0454 48.0042 93.696 52.3754 93.7961 56.7632C94.28 56.6964 94.7471 56.6297 95.2309 56.563C95.1141 52.1752 94.4635 47.7707 93.963 43.4162C94.8806 43.2661 95.8149 43.1159 96.7491 42.9658C97.7335 42.7989 98.7178 42.6655 99.7188 42.5153C100.37 44.6842 100.253 47.12 100.37 49.3723C100.486 51.4244 100.837 53.66 100.603 55.7455C101.087 55.662 101.571 55.5786 102.055 55.5119C102.205 53.4765 101.921 51.391 101.804 49.3723C101.671 47.0533 101.804 44.5674 101.154 42.3151C102.388 42.1483 103.656 41.9814 104.907 41.8313C105.491 45.9855 106.559 50.5235 106.559 54.7444C107.043 54.661 107.51 54.5776 107.994 54.4942C107.944 50.2732 106.893 45.7686 106.326 41.6477C108.144 41.4309 109.979 41.1973 111.815 40.947C112.232 43.483 112.332 46.0856 112.499 48.6549C112.565 49.6726 112.999 51.8081 113.082 53.61C113.55 53.5265 114.017 53.4264 114.501 53.343C114.384 51.8748 114.067 50.3566 113.983 49.2889C113.783 46.4526 113.683 43.5831 113.233 40.7802C114.584 40.5967 115.935 40.3798 117.27 40.1629C117.27 40.1963 117.27 40.2296 117.27 40.2797C117.904 44.3171 118.438 48.388 118.922 52.4421C119.389 52.3253 119.856 52.2252 120.323 52.1084C119.839 48.0376 119.306 43.9835 118.672 39.9293C120.323 39.629 121.942 39.2953 123.56 38.9116C124.16 42.8323 124.678 46.7696 125.145 50.7237C125.212 50.707 125.278 50.6736 125.362 50.6569C125.779 50.5068 126.162 50.3066 126.513 50.073C126.046 46.2358 125.545 42.3985 124.961 38.5613C125.712 38.3611 126.446 38.1609 127.164 37.944C126.563 37.3434 125.662 37.0931 124.794 37.4101L124.811 37.3767Z" fill="#E25243"/>
<path d="M70.9386 39.729V39.5789C70.9386 38.8448 69.8041 38.8448 69.8041 39.5789V39.729C69.8041 40.4631 70.9386 40.4631 70.9386 39.729Z" fill="#E25243"/>
<path d="M79.899 33.656C80.6331 33.656 80.6331 32.5215 79.899 32.5215C79.1649 32.5215 79.1649 33.656 79.899 33.656Z" fill="#E25243"/>
<path d="M81.1827 42.1814C81.9168 42.1814 81.9168 41.0469 81.1827 41.0469C80.4486 41.0469 80.4486 42.1814 81.1827 42.1814Z" fill="#E25243"/>
<path d="M87.4241 35.9416C87.4241 35.9416 87.5242 36.0417 87.5742 36.0918C88.0914 36.609 88.8922 35.8082 88.375 35.291C88.325 35.2409 88.2749 35.1909 88.2249 35.1408C87.7077 34.6236 86.9069 35.4245 87.4241 35.9416Z" fill="#E25243"/>
<path d="M90.2936 30.4861H90.4438C91.1779 30.4861 91.1779 29.3516 90.4438 29.3516H90.2936C89.5596 29.3516 89.5596 30.4861 90.2936 30.4861Z" fill="#E25243"/>
<path d="M94.6145 38.7107C95.3486 38.7107 95.3486 37.5762 94.6145 37.5762C93.8804 37.5762 93.8804 38.7107 94.6145 38.7107Z" fill="#E25243"/>
<path d="M99.6685 33.5227C100.403 33.5227 100.403 32.3882 99.6685 32.3882C98.9344 32.3882 98.9344 33.5227 99.6685 33.5227Z" fill="#E25243"/>
<path d="M103.889 30.3196C103.889 30.3196 103.989 30.4197 104.039 30.4697C104.557 30.9869 105.357 30.1861 104.84 29.6689C104.79 29.6189 104.74 29.5688 104.69 29.5188C104.173 29.0016 103.372 29.8024 103.889 30.3196Z" fill="#E25243"/>
<path d="M107.026 37.5598C107.76 37.5598 107.76 36.4253 107.026 36.4253C106.292 36.4253 106.292 37.5598 107.026 37.5598Z" fill="#E25243"/>
<path d="M115.251 34.8069C115.985 34.8069 115.985 33.6724 115.251 33.6724C114.517 33.6724 114.517 34.8069 115.251 34.8069Z" fill="#E25243"/>
<path d="M93.097 132.958C94.8654 141.767 104.642 138.129 110.632 136.828C112.617 136.394 115.92 136.161 117.622 135.026C120.909 132.841 120.358 128.119 120.492 124.649C120.675 120.144 120.358 115.673 119.657 111.235C118.022 111.519 116.387 111.819 114.736 112.103C110.949 112.77 107.161 113.438 103.374 114.122C100.354 114.455 97.3513 114.822 94.4317 115.556V115.64C94.2982 115.657 94.148 115.69 93.9979 115.707C93.1637 121.045 92.0125 127.685 93.0803 132.958H93.097Z" fill="#E86B53"/>
<path d="M119.94 135.41C131.035 133.491 142.113 131.556 153.108 129.187C154.142 119.127 154.175 110.034 149.738 105.396C140.244 107.498 130.685 109.267 121.108 110.985C121.509 113.304 121.859 115.723 122.076 118.192C126.264 117.191 130.418 116.124 134.555 114.972C135.456 114.722 135.84 116.124 134.939 116.357C130.701 117.525 126.464 118.626 122.193 119.644C122.326 121.496 122.376 123.348 122.293 125.166C123.928 125.016 125.563 124.766 127.181 124.432C128.082 124.232 128.466 125.633 127.565 125.817C125.796 126.201 124.011 126.451 122.209 126.618C122.043 128.853 121.692 131.039 121.075 133.074C119.924 136.828 115.136 137.846 110.948 138.446C110.998 147.255 111.048 156.064 111.098 164.873C111.098 165.808 109.663 165.808 109.663 164.873C109.613 156.131 109.563 147.389 109.513 138.647C108.596 138.763 107.728 138.88 106.977 139.014C106.26 139.147 105.426 139.331 104.541 139.514C104.308 144.886 103.807 150.225 103.04 155.547C102.906 156.465 101.522 156.064 101.655 155.163C102.389 150.075 102.856 144.953 103.09 139.814C98.9857 140.665 94.1474 141.216 92.3623 137.412C91.1777 134.876 91.4447 131.322 91.5448 128.503C89.4259 129.27 87.3071 130.004 85.1549 130.688C84.2707 130.972 83.887 129.587 84.7712 129.304C87.0569 128.57 89.3258 127.786 91.5948 126.968C91.6449 125.116 91.745 123.264 91.9118 121.429C87.157 122.63 82.3521 123.114 77.4471 122.847C76.5295 122.797 76.5128 121.346 77.4471 121.396C82.4021 121.663 87.2571 121.179 92.062 119.894C92.1954 118.576 92.379 117.241 92.5625 115.923C86.8567 116.741 81.1175 117.275 75.3616 117.008C69.2887 116.724 63.2659 115.54 57.4099 113.888C55.141 122.647 56.3922 130.221 58.0439 137.679C64.0834 139.331 70.2731 140.498 76.5294 140.799C82.5356 141.082 88.525 140.532 94.4978 139.698C94.5979 167.409 95.7991 195.138 98.1515 222.749C98.2516 223.85 98.4018 225.068 99.236 225.786C99.8699 226.336 100.754 226.453 101.588 226.536C107.094 227.12 112.683 227.12 118.189 226.536C118.939 226.453 119.757 226.336 120.291 225.802C120.825 225.252 120.925 224.434 120.991 223.667C121.609 215.592 120.558 207.484 119.824 199.409C118.739 187.33 118.372 175.167 118.739 163.055C119.023 153.845 119.724 144.619 119.974 135.41H119.94Z" fill="#E86B53"/>
<path d="M77.4485 121.379C76.5142 121.329 76.5309 122.78 77.4485 122.83C82.3535 123.097 87.1584 122.613 91.9133 121.412C91.7465 123.247 91.6464 125.099 91.5963 126.951C89.344 127.769 87.0583 128.553 84.7727 129.287C83.8884 129.571 84.2722 130.972 85.1564 130.672C87.2919 129.988 89.4274 129.237 91.5462 128.486C91.4461 131.306 91.1792 134.876 92.3638 137.395C94.1489 141.199 98.9872 140.649 103.091 139.798C102.858 144.936 102.391 150.041 101.657 155.147C101.523 156.048 102.925 156.448 103.041 155.53C103.809 150.208 104.309 144.87 104.543 139.497C105.427 139.297 106.261 139.114 106.979 138.997C107.729 138.863 108.597 138.747 109.515 138.63C109.565 147.372 109.615 156.114 109.665 164.857C109.665 165.791 111.116 165.791 111.1 164.857C111.049 156.048 110.999 147.239 110.949 138.43C115.137 137.846 119.925 136.828 121.076 133.057C121.694 131.022 122.044 128.853 122.211 126.601C124.013 126.434 125.798 126.167 127.566 125.8C128.467 125.6 128.084 124.215 127.183 124.415C125.564 124.766 123.946 124.999 122.294 125.149C122.361 123.331 122.311 121.479 122.194 119.627C126.465 118.609 130.72 117.508 134.941 116.34C135.841 116.09 135.458 114.705 134.557 114.956C130.419 116.107 126.248 117.175 122.077 118.176C121.861 115.706 121.51 113.287 121.11 110.968C120.626 111.052 120.159 111.135 119.675 111.219C120.359 115.656 120.693 120.111 120.509 124.632C120.376 128.102 120.926 132.824 117.64 135.009C115.938 136.144 112.651 136.378 110.649 136.811C104.66 138.129 94.883 141.75 93.1145 132.941C92.0634 127.669 93.1979 121.029 94.0321 115.69C93.5483 115.756 93.0478 115.84 92.564 115.907C92.3804 117.225 92.2136 118.543 92.0634 119.877C87.2585 121.145 82.4036 121.646 77.4485 121.379Z" fill="#E25243"/>
<path d="M65.216 120.595C65.95 120.595 65.95 119.46 65.216 119.46C64.4819 119.46 64.4819 120.595 65.216 120.595Z" fill="#E25243"/>
<path d="M61.163 134.659V134.459C61.163 133.725 60.0285 133.725 60.0285 134.459V134.659C60.0285 135.393 61.163 135.393 61.163 134.659Z" fill="#E25243"/>
<path d="M71.7558 127.919C72.4899 127.919 72.4899 126.784 71.7558 126.784C71.0217 126.784 71.0217 127.919 71.7558 127.919Z" fill="#E25243"/>
<path d="M81.766 137.161C82.5 137.161 82.5 136.027 81.766 136.027C81.0319 136.027 81.0319 137.161 81.766 137.161Z" fill="#E25243"/>
<path d="M100.636 119.644C101.37 119.644 101.37 118.509 100.636 118.509C99.9021 118.509 99.9021 119.644 100.636 119.644Z" fill="#E25243"/>
<path d="M99.284 133.692C100.018 133.692 100.018 132.557 99.284 132.557C98.5499 132.557 98.5499 133.692 99.284 133.692Z" fill="#E25243"/>
<path d="M108.711 124.649C109.445 124.649 109.445 123.515 108.711 123.515C107.977 123.515 107.977 124.649 108.711 124.649Z" fill="#E25243"/>
<path d="M115.636 115.222V115.022C115.636 114.288 114.501 114.288 114.501 115.022V115.222C114.501 115.957 115.636 115.957 115.636 115.222Z" fill="#E25243"/>
<path d="M116.421 133.307C117.155 133.307 117.155 132.173 116.421 132.173C115.687 132.173 115.687 133.307 116.421 133.307Z" fill="#E25243"/>
<path d="M127.196 113.488C127.931 113.488 127.931 112.353 127.196 112.353C126.462 112.353 126.462 113.488 127.196 113.488Z" fill="#E25243"/>
<path d="M135.854 124.448C136.589 124.448 136.589 123.314 135.854 123.314C135.12 123.314 135.12 124.448 135.854 124.448Z" fill="#E25243"/>
<path d="M124.111 132.54C124.845 132.54 124.845 131.406 124.111 131.406C123.377 131.406 123.377 132.54 124.111 132.54Z" fill="#E25243"/>
<path d="M141.044 110.234H140.843C140.109 110.234 140.109 111.369 140.843 111.369H141.044C141.778 111.369 141.778 110.234 141.044 110.234Z" fill="#E25243"/>
<path d="M143.362 128.686C144.096 128.686 144.096 127.552 143.362 127.552C142.628 127.552 142.628 128.686 143.362 128.686Z" fill="#E25243"/>
<path d="M148.752 117.324H148.952C149.686 117.324 149.686 116.19 148.952 116.19H148.752C148.018 116.19 148.018 117.324 148.752 117.324Z" fill="#E25243"/>
<path d="M99.0852 144.269C99.8193 144.269 99.8193 143.134 99.0852 143.134C98.3511 143.134 98.3511 144.269 99.0852 144.269Z" fill="#E25243"/>
<path d="M105.257 161.803V162.004C105.257 162.738 106.391 162.738 106.391 162.004V161.803C106.391 161.069 105.257 161.069 105.257 161.803Z" fill="#E25243"/>
<path d="M114.684 143.501C115.418 143.501 115.418 142.367 114.684 142.367C113.95 142.367 113.95 143.501 114.684 143.501Z" fill="#E25243"/>
<path d="M113.918 173.148H114.118C114.852 173.148 114.852 172.014 114.118 172.014H113.918C113.184 172.014 113.184 173.148 113.918 173.148Z" fill="#E25243"/>
<path d="M99.8508 173.148C100.585 173.148 100.585 172.014 99.8508 172.014C99.1167 172.014 99.1167 173.148 99.8508 173.148Z" fill="#E25243"/>
<path d="M106.593 185.26C107.327 185.26 107.327 184.126 106.593 184.126C105.859 184.126 105.859 185.26 106.593 185.26Z" fill="#E25243"/>
<path d="M115.251 194.12C115.985 194.12 115.985 192.985 115.251 192.985C114.517 192.985 114.517 194.12 115.251 194.12Z" fill="#E25243"/>
<path d="M33.1508 179.989C28.6295 185.895 24.1082 191.801 19.6036 197.723C17.5015 200.476 14.3316 204.43 18.2522 207.116C17.9853 206.082 17.7017 205.047 17.4347 204.013C13.9645 208.534 10.5777 213.139 7.32443 217.827C4.45483 221.965 1.60192 225.819 1.2182 230.974C1.10141 232.542 2.7531 233.443 4.08779 233.159C4.53825 233.059 5.0054 232.976 5.45586 232.876C4.72177 231.608 3.98769 230.34 3.23692 229.072C-4.52099 237.631 -8.54176 248.625 -7.94115 260.17C-7.8911 261.205 -7.2738 262.039 -6.27278 262.356C-5.08824 262.723 -4.53768 262.74 -3.36982 262.323C-4.30411 261.388 -5.23839 260.454 -6.17268 259.52C-7.32385 264.758 -7.0736 272.199 -2.569 275.97C0.884523 278.856 6.67377 277.054 6.25667 272.116C6.00642 269.23 1.46845 269.196 1.71871 272.116C-0.0998149 272.099 -1.15089 271.215 -1.40114 269.497C-1.70145 268.679 -1.90165 267.845 -2.01844 266.994C-2.38548 264.825 -2.26869 262.906 -1.78487 260.754C-1.45119 259.203 -2.85262 257.317 -4.58773 257.951C-4.75457 257.951 -4.90472 257.968 -5.07156 257.985C-4.52099 258.719 -3.95375 259.453 -3.40319 260.17C-3.93706 249.81 -0.533589 239.983 6.47356 232.292C8.04183 230.573 6.49024 228.038 4.25463 228.488C3.80417 228.588 3.33703 228.672 2.88657 228.772C3.83754 229.506 4.80519 230.24 5.75616 230.957C6.1232 225.985 10.3275 221.364 13.1137 217.427C15.7831 213.656 18.5359 209.936 21.3554 206.282C22.1396 205.264 21.4555 203.796 20.5379 203.179C21.3888 203.763 35.6367 184.176 37.0715 182.274C38.8399 179.955 34.9026 177.686 33.1508 179.972V179.989Z" fill="#FEB2B6"/>
<path d="M52.2524 158.45C47.8646 162.287 43.4601 166.124 39.0723 169.945C37.0202 171.73 34.7846 174.449 36.0859 176.818C32.6991 180.088 30.2466 184.176 27.8108 188.197C22.0883 197.706 16.3491 207.216 10.6266 216.743C5.92178 224.551 1.18361 232.425 -1.9696 240.984C-5.12282 249.543 -6.65772 258.919 -4.75578 267.845C-4.48884 269.079 -4.15517 270.297 -3.57124 271.398C-3.08741 272.283 -2.45343 273.067 -1.90287 273.901C-0.484755 276.02 0.416164 278.439 1.51729 280.741C3.78627 285.429 7.15638 289.8 11.8111 292.136C16.4826 294.472 22.5888 294.338 26.4928 290.885C29.3457 288.366 30.6804 284.478 30.8639 280.691C31.0474 276.904 30.2132 273.133 29.3123 269.446C27.01 259.903 24.3739 250.394 23.5064 240.617C22.6388 230.84 23.6566 220.63 28.328 212.004C30.9807 207.083 37.6875 203.012 38.5217 197.49C38.8721 195.12 35.8023 192.268 36.2361 189.915C37.1703 184.643 41.1411 180.539 44.628 176.485C48.1148 172.431 51.4683 167.509 50.8009 162.204L52.2524 158.45Z" fill="#FEB2B6"/>
<path d="M156.178 148.373C160.399 152.561 164.62 156.732 168.841 160.919C175.681 167.693 182.788 174.883 185.558 184.11C185.858 185.077 186.092 186.145 185.675 187.079C185.274 188.014 183.939 188.564 183.205 187.863C190.78 191 194.634 199.342 197.253 207.1C199.155 212.722 200.79 218.445 202.425 224.167C203.109 226.586 203.81 229.072 203.493 231.575C203.326 232.876 202.892 234.127 202.859 235.445C202.825 236.763 203.226 238.065 203.593 239.333C206.179 248.525 206.93 258.235 205.762 267.712C205.328 271.248 204.611 274.819 202.859 277.922C201.124 281.025 198.221 283.644 194.717 284.312C192.431 291.686 188.427 298.51 183.122 304.099C182.438 304.816 181.704 305.533 180.786 305.917C179.552 306.434 178.134 306.301 176.799 306.134C170.776 305.433 163.652 303.949 161.383 298.326C159.148 292.82 162.968 286.948 165.921 281.793C175.915 264.275 176.899 243.203 177.249 223.049C177.316 219.212 177.366 215.341 176.432 211.621C175.364 207.383 173.095 203.579 171.026 199.742C162.701 184.21 157.529 167.009 155.911 149.457L156.161 148.406L156.178 148.373Z" fill="#FEB2B6"/>
<path d="M63.9484 62.6687C62.864 64.6707 62.0798 66.7895 61.6294 69.0252C61.4792 69.7426 62.5804 70.0429 62.7305 69.3255C63.1643 67.1899 63.8817 65.1712 64.9328 63.2359C65.2831 62.5853 64.2988 62.018 63.9484 62.6687Z" fill="#D88185"/>
<path d="M62.5474 95.0183C62.5975 97.0037 62.781 98.9724 63.098 100.924C63.2148 101.642 64.3159 101.341 64.1991 100.624C63.8988 98.7722 63.732 96.9036 63.6819 95.0183C63.6652 94.2843 62.5307 94.2843 62.5474 95.0183Z" fill="#D88185"/>
<path d="M126.546 55.7616C128.047 56.5624 129.232 57.7303 130.066 59.2151C130.416 59.8491 131.401 59.2819 131.05 58.6479C130.133 57.0129 128.781 55.6782 127.129 54.794C126.479 54.4436 125.912 55.4279 126.562 55.7783L126.546 55.7616Z" fill="#D88185"/>
<path d="M142.079 82.3386C142.796 84.3407 143.146 86.3927 143.146 88.5116C143.146 89.2457 144.281 89.2457 144.281 88.5116C144.281 86.276 143.914 84.1238 143.18 82.0216C142.93 81.3376 141.845 81.6379 142.079 82.3219V82.3386Z" fill="#D88185"/>
<path d="M137.79 98.7722C137.723 100.507 137.79 102.242 137.94 103.961C138.007 104.678 139.141 104.695 139.075 103.961C138.908 102.226 138.858 100.507 138.924 98.7722C138.958 98.0382 137.807 98.0382 137.79 98.7722Z" fill="#D88185"/>
<path d="M77.6783 106.714C77.8117 108.399 77.9285 110.084 78.062 111.753C78.112 112.47 79.2465 112.487 79.1965 111.753C79.063 110.068 78.9462 108.383 78.8128 106.714C78.7627 105.997 77.6282 105.98 77.6783 106.714Z" fill="#D88185"/>
<path d="M104.99 106.714L105.174 110.601C105.207 111.335 106.342 111.335 106.308 110.601C106.242 109.3 106.175 107.998 106.125 106.714C106.092 105.98 104.957 105.98 104.99 106.714Z" fill="#D88185"/>
<path d="M63.6657 144.686C63.9493 146.371 63.8993 148.056 63.5322 149.724C63.3654 150.442 64.4665 150.742 64.6334 150.025C65.0504 148.156 65.1005 146.271 64.7668 144.385C64.65 143.668 63.5489 143.968 63.6657 144.686Z" fill="#D88185"/>
<path d="M79.7646 151.893C79.8147 153.745 79.6645 155.547 79.3141 157.366C79.1807 158.083 80.2651 158.383 80.4153 157.666C80.799 155.764 80.9658 153.845 80.9158 151.893C80.8991 151.159 79.7646 151.159 79.7813 151.893H79.7646Z" fill="#D88185"/>
<path d="M58.8923 171.38C58.3084 172.764 57.7244 174.166 57.1238 175.551C56.8402 176.218 57.8245 176.802 58.1082 176.118C58.6921 174.733 59.276 173.332 59.8766 171.947C60.1603 171.28 59.1759 170.696 58.8923 171.38Z" fill="#D88185"/>
<path d="M57.7093 197.44C57.1254 198.974 56.5415 200.509 55.9575 202.061C55.6906 202.745 56.7917 203.045 57.0587 202.361C57.6426 200.826 58.2265 199.291 58.8104 197.74C59.0774 197.056 57.9763 196.756 57.7093 197.44Z" fill="#D88185"/>
<path d="M33.5507 191.917C32.7165 193.285 31.9157 194.687 31.165 196.122C30.8313 196.772 31.7989 197.339 32.1493 196.689C32.9001 195.271 33.6842 193.869 34.5184 192.484C34.9021 191.85 33.9178 191.283 33.534 191.917H33.5507Z" fill="#D88185"/>
<path d="M132.753 139.28C132.569 141.082 132.519 142.867 132.603 144.669C132.636 145.403 133.77 145.403 133.737 144.669C133.654 142.867 133.704 141.065 133.887 139.28C133.954 138.546 132.819 138.563 132.753 139.28Z" fill="#D88185"/>
<path d="M148.034 154.813C148.551 156.465 149.535 157.833 150.92 158.884C151.504 159.317 152.071 158.333 151.487 157.899C150.353 157.049 149.552 155.864 149.135 154.513C148.918 153.812 147.817 154.112 148.034 154.813Z" fill="#D88185"/>
<path d="M135.756 172.081C136.573 173.499 137.408 174.917 138.225 176.335C138.592 176.969 139.576 176.402 139.209 175.768C138.392 174.35 137.558 172.932 136.74 171.513C136.373 170.879 135.389 171.447 135.756 172.081Z" fill="#D88185"/>
<path d="M154.008 178.453C154.926 180.172 156.061 181.757 157.395 183.175C157.896 183.709 158.697 182.908 158.196 182.374C156.928 181.006 155.877 179.521 154.993 177.869C154.642 177.219 153.675 177.803 154.008 178.437V178.453Z" fill="#D88185"/>
<path d="M175.212 178.27C176.68 179.021 177.798 180.239 178.382 181.79C178.632 182.474 179.733 182.174 179.483 181.49C178.816 179.672 177.531 178.17 175.796 177.286C175.145 176.952 174.578 177.936 175.229 178.27H175.212Z" fill="#D88185"/>
</g>
</svg>
