<svg width="897" height="984" viewBox="0 0 897 984" fill="none" xmlns="http://www.w3.org/2000/svg">
<mask id="mask0_194_866" style="mask-type:alpha" maskUnits="userSpaceOnUse" x="0" y="0" width="897" height="984">
<rect width="897" height="984" fill="#A0A6B8"/>
</mask>
<g mask="url(#mask0_194_866)">
<g clip-path="url(#clip0_194_866)">
<path d="M84.8887 889.017C72.2603 889.017 61.9973 878.754 61.9973 866.126V489.944C61.9973 271.637 226.395 94 428.488 94C526.768 94 619.021 135.433 688.267 210.67C757.056 285.334 794.979 384.53 794.979 489.944V866.126C794.979 878.754 784.716 889.017 772.088 889.017H84.8887Z" fill="white"/>
<path d="M772.088 489.944V866.126H84.8888V489.944C84.8888 283.884 238.719 116.891 428.488 116.891C523.373 116.891 609.292 158.668 671.442 226.159C733.63 293.651 772.088 386.933 772.088 489.944Z" fill="#C6C3FA"/>
<mask id="mask1_194_866" style="mask-type:alpha" maskUnits="userSpaceOnUse" x="84" y="116" width="689" height="751">
<path d="M772.088 489.944V866.126H84.8888V489.944C84.8888 283.884 238.719 116.891 428.488 116.891C523.373 116.891 609.292 158.668 671.442 226.159C733.63 293.651 772.088 386.933 772.088 489.944Z" fill="#C6C3FA"/>
</mask>
<g mask="url(#mask1_194_866)">
</g>
</g>
<path d="M123.331 633.059C133.487 633.458 143.644 633.179 153.801 632.94C191.321 631.984 228.802 631.068 266.322 630.112C271.779 623.022 276.638 615.295 281.218 607.727L196.419 609.161C186.621 615.494 175.986 620.911 164.555 623.142C153.084 625.372 140.657 624.217 130.699 618.123C126.876 615.813 123.53 612.825 119.746 610.436C110.346 604.581 99.0342 602.908 88.041 601.514C69.8784 599.124 51.5166 597.053 33.2344 598.367C31.1633 598.526 28.8531 598.805 27.459 600.359C25.4277 602.629 26.3438 606.214 27.6184 608.962C30.3268 614.897 34.031 620.154 38.2929 625.053C56.8937 626.925 75.4945 628.797 94.0953 630.669C103.814 631.665 113.572 632.621 123.331 633.019V633.059Z" fill="#D88185"/>
<path d="M657.654 820.023C650.046 832.41 645.506 846.629 644.51 861.128C646.143 861.128 647.178 859.415 647.816 857.901C651.759 848.621 655.344 839.022 661.159 830.777C661.916 829.702 662.752 828.586 662.872 827.272C663.071 825.48 661.916 823.807 660.561 822.652L657.654 819.983V820.023Z" fill="#272828"/>
<path d="M665.304 826.675C659.369 839.938 656.74 854.675 657.656 869.174C659.289 868.974 660.046 867.102 660.484 865.509C663.153 855.791 665.463 845.833 670.163 836.871C670.76 835.716 671.437 834.481 671.437 833.167C671.437 831.375 670.043 829.861 668.53 828.905L665.304 826.635V826.675Z" fill="#272828"/>
<path d="M673.979 829.224C669.917 843.165 669.319 858.141 672.227 872.36C673.82 871.962 674.338 869.971 674.537 868.377C675.851 858.38 676.768 848.183 680.193 838.704C680.631 837.469 681.149 836.194 680.95 834.88C680.671 833.088 679.118 831.773 677.485 831.056L673.979 829.264V829.224Z" fill="#272828"/>
<path d="M647.178 613.344C647.775 639.632 648.373 665.88 648.97 692.168C649.01 694.16 649.09 696.271 650.085 697.983C651.081 699.696 653.391 700.851 655.144 699.935C653.59 724.47 652.037 749.046 650.444 773.581C650.205 777.047 650.285 781.149 653.152 783.141C654.626 784.176 656.657 784.495 657.653 785.968C658.41 787.124 658.29 788.597 658.131 789.952C657.095 799.033 656.02 808.114 654.984 817.235C654.706 819.585 654.467 822.015 655.144 824.246C656.657 829.145 662.194 831.734 667.292 832.052C676.971 832.69 686.291 827.352 692.584 820.024C698.917 812.695 702.661 803.494 705.808 794.333C725.365 737.734 726.361 676.594 725.604 616.729C725.604 615.295 725.524 613.742 724.608 612.627C723.612 611.392 721.86 611.113 720.306 610.914C699.794 608.245 679.042 607.568 658.41 608.922L647.178 613.344Z" fill="#D88185"/>
<path d="M209.2 644.889C206.252 648.115 202.269 649.549 197.928 649.111C196.175 648.911 196.215 651.66 197.928 651.819C202.906 652.337 207.726 650.465 211.111 646.8C212.306 645.526 210.394 643.614 209.2 644.889Z" fill="#D88185"/>
<path d="M153.795 632.94C143.638 633.179 133.481 633.457 123.324 633.059C113.566 632.661 103.808 631.705 94.089 630.709C75.4882 628.837 56.8874 626.965 38.2866 625.093C40.079 627.164 42.0307 629.156 44.0222 631.107C44.0222 631.307 44.0222 631.546 44.1417 631.785C45.8146 635.887 49.8374 638.118 51.9484 642.021C54.1789 646.203 57.2459 650.863 61.4281 653.412C63.4992 654.687 65.6899 654.488 66.7255 652.536C71.2263 657.953 76.9221 662.135 83.6136 664.605C85.9237 665.441 90.2653 667.273 92.7746 665.919C95.0449 669.862 102.613 672.85 105.56 673.965C108.229 674.961 112.61 677.311 115.478 675.717C115.996 675.439 116.394 675.04 116.713 674.642C126.79 680.776 139.336 686.312 151.046 686.073C155.189 685.994 158.256 684.122 159.65 681.294C171.001 682.329 182.393 683.166 193.705 681.294C200.277 680.218 207.566 678.784 209.199 671.456C216.129 668.229 222.622 664.087 228.357 658.949C229.552 657.873 230.747 656.758 232.101 655.882C233.694 654.886 235.487 654.329 237.2 653.651C249.109 649.031 258.349 640.229 266.276 630.032C228.755 630.988 191.275 631.904 153.755 632.86L153.795 632.94Z" fill="#FEB2B6"/>
<path d="M828.285 541.25C827.648 517.909 826.493 494.568 824.82 471.268C819.403 457.685 812.273 442.63 798.293 438.527L796.66 507.394C797.934 517.073 801.877 526.353 807.892 534C813.189 540.732 820 546.109 826.732 551.406C827.21 551.805 827.767 552.203 828.285 552.561C828.484 548.817 828.404 544.994 828.285 541.25Z" fill="#D88185"/>
<path d="M842.346 542.285C840.474 533.96 838.204 525.755 835.615 517.63C835.177 516.315 834.739 514.842 835.256 513.567C835.774 512.332 837.009 511.575 837.726 510.5C839.239 508.23 838.283 505.203 837.288 502.653C833.185 492.337 829.083 482.021 824.98 471.705C824.94 471.546 824.861 471.426 824.821 471.267C826.494 494.568 827.649 517.908 828.286 541.249C828.406 544.993 828.445 548.817 828.286 552.561C831.99 555.19 836.571 557.261 840.116 554.791C843.82 552.202 843.342 546.706 842.346 542.285Z" fill="#FEB2B6"/>
<path d="M524.979 307.924L524.661 309.079C524.86 308.72 524.94 308.322 524.979 307.924Z" fill="#FEB2B6"/>
<path d="M784.951 672.053C785.309 671.695 785.628 671.336 785.987 670.978L784.951 672.093V672.053Z" fill="#FEB2B6"/>
<path d="M676.451 701.727C676.451 702.205 676.451 702.683 676.451 703.161C677.088 703.041 677.686 702.802 678.164 702.324L676.451 701.727Z" fill="#FEB2B6"/>
<path d="M233.543 523.247C229.919 518.587 227.051 512.732 228.127 506.956C229.321 500.663 235.017 496.043 241.151 494.211C247.285 492.378 253.817 492.817 260.19 493.255C263.854 493.534 267.519 493.773 271.183 494.051C268.674 487.678 264.81 481.784 259.991 477.004C251.945 469.118 243.143 466.927 232.349 465.612C220.638 464.139 208.849 463.183 197.059 462.824C173.081 462.028 148.824 463.541 125.444 468.998C119.549 470.352 113.734 471.985 108.038 473.937C107.64 474.534 107.241 475.132 106.883 475.729C103.537 481.425 101.705 487.758 100.351 494.29C100.948 494.25 101.546 494.211 102.143 494.131C108.516 493.613 115.048 493.095 121.182 494.888C127.316 496.68 133.091 501.261 134.326 507.514C135.481 513.289 132.693 519.184 129.108 523.884C122.457 532.567 112.778 538.701 102.223 541.489C102.94 543.481 103.736 545.433 104.732 547.305C106.206 550.093 108.078 552.642 110.069 555.071C120.027 556.625 130.064 557.78 140.181 558.178C148.904 558.497 157.627 558.258 166.35 558.377C181.844 558.616 197.338 560.01 212.752 558.776C228.166 557.541 243.86 553.478 256.048 543.999C257.442 542.923 258.756 541.728 260.07 540.494C249.715 537.745 240.195 531.771 233.623 523.327L233.543 523.247Z" fill="#FFE5B8"/>
<path d="M129.065 523.805C132.65 519.105 135.478 513.25 134.283 507.434C133.008 501.181 127.273 496.6 121.139 494.808C115.005 493.016 108.473 493.534 102.1 494.051C101.502 494.091 100.905 494.131 100.307 494.211C99.6702 497.317 99.1125 500.464 98.6346 503.571L97.7981 511.019C97.7185 518.069 98.3558 525.119 99.71 532.049C100.347 535.236 101.144 538.383 102.219 541.41C112.774 538.621 122.453 532.488 129.105 523.805H129.065Z" fill="#E25243"/>
<path d="M273.809 503.451C273.291 500.265 272.375 497.118 271.14 494.051C267.476 493.772 263.811 493.533 260.147 493.254C253.774 492.816 247.242 492.338 241.108 494.21C234.974 496.043 229.278 500.703 228.083 506.956C226.968 512.771 229.836 518.587 233.5 523.247C240.112 531.691 249.632 537.665 259.948 540.414C269.865 530.814 275.999 516.953 273.769 503.451H273.809Z" fill="#E25243"/>
<path d="M325.867 809.786C318.061 824.085 313.799 840.257 313.56 856.547C315.392 856.468 316.428 854.476 317.065 852.724C320.928 842.089 324.354 831.175 330.408 821.616C331.205 820.381 332.041 819.067 332.121 817.593C332.24 815.602 330.886 813.769 329.253 812.575L325.867 809.747V809.786Z" fill="#3A3B3C"/>
<path d="M334.786 816.837C328.931 832.012 326.82 848.622 328.692 864.793C330.485 864.474 331.241 862.363 331.64 860.571C334.069 849.538 336.061 838.266 340.801 827.989C341.398 826.635 342.115 825.241 341.996 823.807C341.836 821.816 340.243 820.183 338.491 819.187L334.747 816.837H334.786Z" fill="#3A3B3C"/>
<path d="M344.664 819.187C340.92 835.039 341.119 851.768 345.222 867.541C346.974 866.983 347.412 864.753 347.572 862.921C348.488 851.649 348.886 840.217 352.192 829.383C352.63 827.989 353.108 826.516 352.79 825.042C352.351 823.09 350.559 821.696 348.687 820.979L344.664 819.187Z" fill="#3A3B3C"/>
<path d="M683.897 831.295C676.091 845.594 671.829 861.765 671.59 878.056C673.422 877.976 674.458 875.945 675.095 874.232C678.958 863.598 682.384 852.684 688.438 843.125C689.235 841.89 690.071 840.576 690.151 839.102C690.27 837.11 688.916 835.278 687.283 834.083L683.897 831.255V831.295Z" fill="#3A3B3C"/>
<path d="M692.824 838.345C686.969 853.52 684.858 870.129 686.73 886.301C688.522 885.982 689.279 883.871 689.677 882.078C692.107 871.045 694.099 859.773 698.838 849.497C699.476 848.143 700.153 846.749 700.033 845.315C699.874 843.324 698.281 841.69 696.528 840.695L692.784 838.345H692.824Z" fill="#3A3B3C"/>
<path d="M702.701 840.695C698.957 856.548 699.156 873.276 703.259 889.049C705.011 888.492 705.45 886.261 705.609 884.429C706.525 873.157 706.923 861.726 710.229 850.892C710.667 849.498 711.145 848.024 710.827 846.55C710.388 844.598 708.596 843.204 706.724 842.487L702.701 840.695Z" fill="#3A3B3C"/>
<path d="M865.762 576.022H862.138L848.157 576.141H843.696L824.777 576.34L739.261 577.017H732.769L703.095 577.296H699.311L680.949 577.456H677.524L663.384 577.575H660.118L638.65 577.774H635.463L625.227 577.894H622.359L607.622 578.013H602.046L457.621 579.208H452.602L425.199 579.447H422.052L369.436 579.885H362.984L303.477 580.403H298.379L279.181 580.602H274.759L259.704 580.762H256.159L238.633 580.921H235.606L188.447 581.319H184.743L165.505 581.518H161.203L116.832 581.917L88.8312 582.156L46.4916 582.474H41.1941L15.7823 582.713V585.501L15.7027 588.887L15.384 614.259C28.4086 614.617 41.3933 614.976 54.378 615.294C57.6441 615.374 60.9101 615.494 64.1762 615.573C70.8279 615.733 77.4398 615.892 84.0914 616.051C119.182 616.928 154.153 617.684 188.845 618.322C190.08 618.322 191.315 618.361 192.51 618.401C227.56 619.039 262.372 619.517 297.025 619.915C298.817 619.915 300.609 619.955 302.402 619.994C310.328 620.074 318.254 620.194 326.141 620.273C336.297 620.353 346.374 620.433 356.491 620.512C358.085 620.512 359.678 620.512 361.271 620.512C375.61 620.592 389.869 620.672 404.128 620.711C406.399 620.711 408.709 620.711 410.979 620.711C417.631 620.711 424.283 620.711 430.894 620.711C434.121 620.711 437.387 620.711 440.613 620.711C452.244 620.711 463.834 620.711 475.425 620.672C477.177 620.672 478.93 620.672 480.682 620.672C482.953 620.672 485.223 620.672 487.493 620.672C493.468 620.672 499.482 620.632 505.457 620.592C506.851 620.592 508.245 620.592 509.639 620.592C552.417 620.353 594.757 619.835 636.658 619.078C640.641 618.999 644.664 618.959 648.647 618.879C648.727 618.879 648.846 618.879 648.926 618.879C653.865 619.676 659.083 619.636 664.659 618.561C664.938 618.561 665.217 618.561 665.495 618.561C673.541 618.401 681.587 618.242 689.553 618.043C691.027 618.043 692.5 617.963 693.974 617.963C699.829 617.844 705.644 617.644 711.499 617.525C712.654 617.525 713.81 617.445 714.965 617.445C752.326 616.489 789.328 615.334 825.932 613.9C829.676 613.741 833.38 613.582 837.124 613.462C838.638 613.383 840.112 613.343 841.625 613.263C844.652 613.144 847.64 613.024 850.667 612.905C852.101 612.865 853.534 612.785 854.929 612.745C858.673 612.586 862.377 612.427 866.121 612.267C867.276 612.228 868.391 612.148 869.546 612.108C874.286 611.909 879.026 611.71 883.726 611.471L884.045 588.09V584.506L884.204 576.062L865.882 576.221L865.762 576.022Z" fill="#4EB0A9"/>
<path d="M182.917 499.707C178.257 499.548 173.438 499.389 169.136 501.38C164.874 503.372 161.25 508.072 161.688 513.329C162.086 517.989 165.512 521.853 169.415 523.566C173.318 525.239 177.58 525.159 181.683 524.84C186.9 524.402 192.118 523.606 196.898 521.335C198.252 520.698 199.567 519.941 200.562 518.746C203.191 515.719 203.111 510.501 200.961 506.877C198.81 503.252 195.066 501.221 191.282 500.584C191.282 500.584 185.068 499.787 182.838 499.707H182.917Z" fill="#3A3B3C"/>
<path d="M146.149 526.354C146.149 528.425 142.804 530.138 138.661 530.138C134.519 530.138 131.133 528.505 131.133 526.434C131.133 524.362 134.479 522.65 138.622 522.65C142.764 522.65 146.149 524.283 146.149 526.354Z" fill="#E86B53"/>
<path d="M232.068 525.557C232.307 527.628 229.16 529.659 225.018 530.137C220.915 530.615 217.371 529.301 217.132 527.269C216.893 525.198 220.039 523.167 224.182 522.689C228.284 522.211 231.829 523.525 232.068 525.557Z" fill="#E86B53"/>
<path d="M103.609 514.882C111.176 515.081 118.505 514.126 125.794 512.014C127.467 511.537 126.75 508.908 125.077 509.386C118.067 511.457 110.937 512.373 103.649 512.174C101.896 512.134 101.896 514.842 103.649 514.882H103.609Z" fill="#3A3B3C"/>
<path d="M263.051 510.103C255.961 511.258 248.871 511.298 241.781 510.183C240.068 509.904 239.351 512.533 241.064 512.811C248.672 513.966 256.16 513.966 263.767 512.732C265.48 512.453 264.763 509.824 263.051 510.103Z" fill="#3A3B3C"/>
<path d="M164.95 535.316C176.819 535.953 193.867 538.024 204.541 531.691C206.055 530.815 204.661 528.465 203.187 529.341C193.269 535.236 176.102 533.205 164.95 532.607C163.197 532.528 163.197 535.236 164.95 535.316Z" fill="#3A3B3C"/>
<path d="M202.669 527.269C203.267 529.102 203.824 530.934 204.422 532.766C204.939 534.439 207.568 533.722 207.05 532.049C206.453 530.217 205.895 528.385 205.298 526.552C204.78 524.88 202.151 525.597 202.669 527.269Z" fill="#3A3B3C"/>
<path d="M162.399 530.177C162.2 531.85 162.001 533.523 161.802 535.196C161.603 536.909 164.311 536.909 164.51 535.196C164.71 533.523 164.909 531.85 165.108 530.177C165.307 528.465 162.599 528.465 162.399 530.177Z" fill="#3A3B3C"/>
<path d="M105.049 513.967C104.611 514.843 104.133 515.719 103.695 516.556C102.898 518.109 105.248 519.463 106.045 517.91C106.483 517.034 106.961 516.158 107.399 515.321C108.196 513.768 105.846 512.414 105.049 513.967Z" fill="#3A3B3C"/>
<path d="M113.692 514.524C113.692 515.28 113.692 516.037 113.692 516.834C113.692 518.586 116.401 518.586 116.401 516.834C116.401 516.077 116.401 515.32 116.401 514.524C116.401 512.771 113.692 512.771 113.692 514.524Z" fill="#3A3B3C"/>
<path d="M121.656 513.09C122.532 513.767 123.169 514.524 123.687 515.48C124.523 517.033 126.834 515.639 126.037 514.126C125.44 512.971 124.603 511.975 123.568 511.178C122.213 510.103 120.262 512.015 121.656 513.09Z" fill="#3A3B3C"/>
<path d="M243.175 512.532C242.657 513.09 242.1 513.647 241.582 514.205C240.387 515.48 242.299 517.391 243.494 516.117C244.012 515.559 244.569 515.002 245.087 514.444C246.282 513.169 244.37 511.258 243.175 512.532Z" fill="#3A3B3C"/>
<path d="M250.383 513.169C250.383 514.046 250.383 514.922 250.383 515.798C250.383 517.551 253.092 517.551 253.092 515.798C253.092 514.922 253.092 514.046 253.092 513.169C253.092 511.417 250.383 511.417 250.383 513.169Z" fill="#3A3B3C"/>
<path d="M258.116 512.851C258.793 513.807 259.47 514.803 260.147 515.759C261.143 517.193 263.493 515.838 262.497 514.404C261.82 513.449 261.143 512.453 260.466 511.497C259.47 510.063 257.12 511.417 258.116 512.851Z" fill="#3A3B3C"/>
<path d="M134.639 491.104C134.48 490.706 134.201 490.268 133.843 489.869C129.541 485.13 116.875 485.09 112.016 488.874C110.263 490.228 109.865 491.98 110.263 493.613C110.064 496.481 113.569 498.672 116.437 499.07C116.477 499.07 116.556 499.07 116.596 499.07C118.667 499.508 121.376 499.668 123.766 499.269C127.231 498.991 130.617 498.074 133.086 495.924C134.6 494.609 135.396 492.817 134.679 491.064L134.639 491.104Z" fill="#FEB2B6"/>
<path d="M227.563 492.936C227.722 492.537 228.001 492.099 228.36 491.701C232.622 486.921 245.288 486.722 250.187 490.466C251.939 491.82 252.377 493.533 251.979 495.206C252.218 498.074 248.713 500.304 245.845 500.742C245.805 500.742 245.726 500.742 245.686 500.742C243.655 501.22 240.906 501.42 238.516 501.021C235.051 500.782 231.666 499.866 229.156 497.755C227.643 496.441 226.806 494.688 227.523 492.936H227.563Z" fill="#FEB2B6"/>
<path d="M343.351 574.07C343.112 573.433 342.793 572.796 342.196 572.517C341.678 572.318 341.12 572.477 340.563 572.636C323.834 577.655 307.145 582.714 290.416 587.732C307.026 586.657 324.272 585.581 342.594 585.143C343.51 580.722 344.227 576.381 343.311 574.07H343.351Z" fill="#FFE5B8"/>
<path d="M652.869 566.622C650.838 563.197 647.771 560.528 644.545 558.258C634.149 550.889 621.762 546.867 609.295 544.317C582.768 538.94 555.245 540.135 528.559 544.596C501.872 549.057 475.823 556.745 449.894 564.392C451.487 573.354 454.594 571.482 455.709 584.626C456.505 584.546 457.541 584.546 458.935 584.506C463.675 584.387 468.415 584.347 473.154 584.267C509.639 583.75 546.124 583.71 582.569 584.108C606.268 584.387 629.967 584.865 653.666 585.542L655.339 586.777C655.498 587.135 655.617 587.454 655.777 587.812C655.936 586.179 656.016 584.506 656.016 582.794C656.016 577.894 655.339 570.845 652.869 566.583V566.622Z" fill="#FFE5B8"/>
<path d="M815.696 504.606C815.417 502.416 815.099 500.225 815.298 498.034C815.457 496.361 815.895 494.728 816.214 493.095C817.25 487.28 816.214 481.306 814.94 475.53C812.789 465.533 810.12 455.655 806.854 445.976L805.938 443.427C804.902 430.96 799.485 418.931 790.922 409.85C793.511 409.372 795.104 406.584 795.104 403.955C795.104 401.326 793.869 398.897 792.595 396.586C775.507 365.359 749.1 339.35 717.634 322.701C716.2 321.944 714.726 321.187 713.492 320.152C712.336 319.156 711.42 317.961 710.345 316.886C706.641 313.062 701.582 310.911 696.564 309.079C682.742 303.941 668.404 300.277 653.826 298.126L654.304 296.732C655.26 295.338 654.543 293.266 653.188 292.271C651.834 291.235 650.042 290.996 648.369 290.837C641.279 290.08 634.11 289.841 626.98 290.199C619.771 290.558 612.601 291.474 605.472 292.39C591.411 294.182 577.391 296.015 563.331 297.807C550.705 299.44 538.039 301.073 525.851 304.658L524.935 307.964C524.935 308.362 524.815 308.721 524.616 309.119L524.935 307.964C525.134 305.654 522.545 303.304 519.996 303.343C517.008 303.423 514.499 305.454 512.189 307.326C498.527 318.399 483.192 327.162 468.893 337.398C454.594 347.635 441.092 359.743 433.006 375.357C432.568 373.963 430.616 373.564 429.342 374.202C428.027 374.839 427.231 376.193 426.394 377.388C421.137 385.394 413.927 391.847 406.758 398.219C399.349 404.831 391.782 411.523 382.621 415.346C377.124 417.617 371.229 418.772 365.454 420.285C353.306 423.432 341.595 428.052 329.965 432.752C330.523 429.566 326.978 427.296 323.313 427.096C317.936 426.818 311.842 428.371 306.465 428.968C302.92 429.367 299.057 429.128 296.029 430.96C294.038 429.048 290.891 428.968 286.709 428.929C282.208 428.929 277.787 429.685 273.406 430.641C268.427 430.721 263.488 431.199 259.027 432.553C258.947 431.996 258.748 431.438 258.31 431C255.96 428.331 249.906 430.442 247.038 430.761C240.307 431.518 233.536 432.274 226.804 433.031C226.605 432.115 225.808 431.199 224.175 430.482C220.67 428.968 215.811 430.601 212.306 431.199C205.216 432.434 198.365 432.872 191.315 432.474C192.231 431.279 192.988 429.964 193.307 428.53C193.944 425.822 192.67 422.436 189.961 421.799C188.886 421.56 187.731 421.759 186.655 422.078C181.955 423.552 178.052 427.455 176.658 432.195C177.494 429.287 177.614 426.14 176.976 423.193C176.698 421.879 175.901 420.285 174.547 420.325C173.71 420.325 173.033 421.002 172.515 421.679C170.524 424.149 169.17 427.176 168.692 430.363C167.377 427.933 168.453 424.707 167.099 422.277C165.585 419.608 161.482 419.29 158.973 421.082C156.464 422.874 155.309 426.061 154.95 429.128C154.592 432.195 154.95 435.301 154.592 438.368C141.368 440.24 130.813 449.959 121.214 459.2C116.434 463.78 111.615 468.48 107.99 473.977C148.538 460.315 197.688 460.673 239.43 466.648C244.489 467.365 257.832 474.614 259.505 476.566C266.196 484.412 272.211 493.334 273.884 503.531C276.393 518.786 268.268 534.519 256.04 543.999C243.812 553.518 228.158 557.581 212.744 558.776C197.33 560.01 181.836 558.616 166.342 558.377C157.619 558.258 148.896 558.497 140.173 558.178C130.096 557.82 120.059 556.625 110.061 555.071C111.535 556.904 113.089 558.696 114.642 560.488C119.501 566.025 124.44 571.601 130.534 575.783C139.855 582.196 151.166 584.865 162.319 586.697C205.853 593.906 245.803 590.759 290.453 587.812C307.182 582.793 323.871 577.735 340.6 572.716C341.117 572.557 341.715 572.398 342.233 572.597C342.83 572.836 343.149 573.513 343.388 574.15C344.264 576.46 343.587 580.842 342.671 585.223C343.069 585.223 343.467 585.223 343.866 585.223C344.105 616.012 344.583 638.038 344.861 668.827C344.861 671.257 346.256 674.682 348.486 673.766C346.534 682.529 344.583 691.251 342.591 700.014C339.285 714.712 335.9 729.608 328.571 742.752C326.978 745.62 325.106 748.567 325.106 751.873C325.106 755.179 327.894 758.684 331.12 758.047C325.544 769.399 321.999 781.706 320.684 794.293C319.569 804.688 320.684 816.717 329.009 823.09C332.594 825.838 337.055 827.153 341.476 828.029C346.773 829.065 352.35 829.582 357.408 827.71C361.272 826.316 364.538 823.648 367.605 820.899C389.83 801.263 407.873 775.214 411.498 745.779C413.091 747.412 415.72 745.54 417.074 743.708C428.187 729.011 434.52 710.768 434.958 692.327C435.077 687.985 434.838 683.604 435.555 679.342C436.392 674.284 438.503 669.504 440.335 664.685C446.349 648.872 449.456 632.103 451.209 615.335C452.085 606.891 452.563 598.407 453.081 589.923C453.32 585.9 453.479 585.024 455.789 584.785C454.634 571.641 451.567 573.513 449.974 564.551C475.943 556.904 501.953 549.216 528.639 544.755C555.325 540.294 582.848 539.139 609.375 544.477C621.842 546.986 634.229 551.049 644.625 558.417C647.851 560.727 650.958 563.356 652.949 566.782C655.459 571.004 656.136 578.054 656.096 582.992C656.096 584.705 656.016 586.378 655.857 588.011C663.146 604.461 665.655 622.664 666.771 640.667C667.926 659.029 667.726 677.51 670.315 695.712C670.634 697.863 671.032 700.173 672.466 701.806C673.462 702.962 675.135 703.599 676.569 703.36C676.569 702.882 676.569 702.404 676.569 701.926L678.281 702.523C677.804 703.001 677.206 703.24 676.569 703.36C676.887 720.606 677.166 737.853 677.485 755.1C677.684 765.894 677.883 776.767 676.29 787.442C675.732 791.305 675.812 796.563 679.636 797.439C678.919 806.043 678.162 814.686 677.445 823.289C677.087 827.551 676.728 831.972 678.281 835.955C681.627 844.519 692.182 847.625 701.343 848.103C704.968 848.303 708.712 848.263 712.177 847.148C717.992 845.236 722.374 840.456 725.52 835.198C728.627 829.941 730.698 824.165 733.486 818.748C737.669 810.623 743.404 803.414 748.263 795.647C753.083 787.88 757.106 779.197 757.146 770.036C759.376 771.43 762.204 769.399 763.837 767.288C768.935 760.556 770.887 752.033 772.719 743.788C778.096 719.77 783.474 695.673 786.102 671.177C785.784 671.535 785.425 671.934 785.067 672.252L786.102 671.137C790.085 666.796 792.714 661.299 794.706 655.723C798.171 646.084 800.123 636.007 802.114 625.969C805.579 608.165 809.084 590.082 807.81 571.999C809.921 572.557 812.151 571.243 813.386 569.45C814.581 567.618 814.979 565.387 815.298 563.237C818.206 543.919 818.365 524.163 815.856 504.805L815.696 504.606ZM207.208 435.262C207.925 435.182 208.602 435.062 209.279 434.943C209.319 435.062 209.398 435.142 209.438 435.222C208.681 435.222 207.925 435.222 207.168 435.222L207.208 435.262ZM239.391 434.863C240.586 434.744 241.78 434.585 242.975 434.465C243.015 434.585 243.095 434.704 243.175 434.784C241.9 434.784 240.665 434.824 239.391 434.863Z" fill="#FEB2B6"/>
<path d="M281.736 464.696C285.4 464.099 288.985 463.342 292.57 462.306C294.243 461.829 293.526 459.2 291.853 459.678C288.308 460.673 284.684 461.47 281.019 462.068C279.306 462.346 280.023 464.975 281.736 464.696Z" fill="#D88185"/>
<path d="M330.806 486.763C334.431 486.564 337.936 485.926 341.361 484.811C343.034 484.293 342.317 481.664 340.644 482.182C337.418 483.218 334.192 483.855 330.806 484.014C329.054 484.094 329.054 486.842 330.806 486.723V486.763Z" fill="#D88185"/>
<path d="M296.789 526.632C300.095 525.238 303.52 524.243 307.026 523.565C308.738 523.247 308.021 520.618 306.309 520.937C302.764 521.614 299.378 522.61 296.072 524.004C294.479 524.681 295.196 527.31 296.789 526.632Z" fill="#D88185"/>
<path d="M262.854 571.004C265.802 570.765 268.749 570.526 271.736 570.287C273.449 570.167 273.489 567.419 271.736 567.578C268.789 567.817 265.841 568.056 262.854 568.295C261.141 568.415 261.102 571.163 262.854 571.004Z" fill="#D88185"/>
<path d="M331.126 555.151C335.069 554.832 339.012 554.713 342.956 554.832C344.708 554.872 344.708 552.164 342.956 552.124C339.012 552.004 335.069 552.124 331.126 552.442C329.413 552.602 329.373 555.31 331.126 555.151Z" fill="#D88185"/>
<path d="M369.718 444.82C372.546 443.825 375.414 442.829 378.242 441.793C379.875 441.236 379.158 438.607 377.525 439.165C374.697 440.16 371.829 441.156 369.001 442.192C367.368 442.749 368.085 445.378 369.718 444.82Z" fill="#D88185"/>
<path d="M382.866 513.249C386.371 513.05 389.876 513.13 393.381 513.449C395.134 513.608 395.094 510.899 393.381 510.74C389.876 510.382 386.371 510.302 382.866 510.541C381.113 510.66 381.113 513.369 382.866 513.249Z" fill="#D88185"/>
<path d="M436.195 470.591C439.621 469.954 442.927 468.958 446.153 467.683C447.746 467.046 447.069 464.417 445.436 465.055C442.21 466.369 438.904 467.325 435.478 467.962C433.766 468.281 434.483 470.91 436.195 470.591Z" fill="#D88185"/>
<path d="M448.063 406.703C450.373 404.154 452.922 401.963 455.83 400.131C457.304 399.215 455.949 396.865 454.476 397.781C451.409 399.733 448.581 402.083 446.151 404.791C444.996 406.066 446.908 408.018 448.063 406.703Z" fill="#D88185"/>
<path d="M490.283 435.699C493.23 434.584 496.178 433.469 499.125 432.394C500.758 431.796 500.041 429.167 498.408 429.765C495.461 430.88 492.513 431.995 489.566 433.071C487.933 433.668 488.65 436.297 490.283 435.699Z" fill="#D88185"/>
<path d="M474.038 498.353C476.149 499.15 478.181 498.791 480.371 498.512C483 498.194 485.669 497.875 488.298 497.517C490.01 497.317 490.01 494.609 488.298 494.808C485.987 495.087 483.717 495.366 481.407 495.645C479.216 495.923 476.866 496.481 474.755 495.684C473.122 495.087 472.405 497.716 474.038 498.313V498.353Z" fill="#D88185"/>
<path d="M446.751 543.361C450.495 542.962 454.199 542.604 457.943 542.206C459.656 542.046 459.696 539.298 457.943 539.497C454.199 539.895 450.495 540.254 446.751 540.652C445.038 540.812 444.998 543.56 446.751 543.361Z" fill="#D88185"/>
<path d="M524.902 527.907C529.283 527.708 533.664 527.31 538.046 526.832C539.758 526.633 539.798 523.924 538.046 524.123C533.664 524.641 529.283 525 524.902 525.199C523.149 525.278 523.149 527.987 524.902 527.907Z" fill="#D88185"/>
<path d="M504.544 394.475C508.049 392.523 511.634 390.691 515.298 389.018C516.891 388.261 515.497 385.951 513.944 386.668C510.319 388.381 506.735 390.213 503.19 392.125C501.676 392.961 503.031 395.311 504.544 394.475Z" fill="#D88185"/>
<path d="M501.834 338.633C504.383 335.725 507.49 333.455 511.075 331.981C512.668 331.344 511.991 328.715 510.358 329.352C506.335 330.985 502.79 333.415 499.922 336.681C498.767 337.995 500.679 339.907 501.834 338.593V338.633Z" fill="#D88185"/>
<path d="M553.54 342.298C559.036 340.983 564.493 339.669 569.99 338.354C571.702 337.956 570.985 335.327 569.273 335.726C563.776 337.04 558.319 338.354 552.823 339.669C551.11 340.067 551.827 342.696 553.54 342.298Z" fill="#D88185"/>
<path d="M601.375 312.544C605.518 311.987 609.66 311.787 613.842 311.907C615.595 311.947 615.595 309.238 613.842 309.198C609.421 309.079 605.04 309.318 600.658 309.955C598.946 310.194 599.663 312.823 601.375 312.584V312.544Z" fill="#D88185"/>
<path d="M607.309 382.128C611.691 382.686 616.032 383.044 620.453 383.243C622.206 383.323 622.206 380.615 620.453 380.535C616.072 380.336 611.691 379.977 607.309 379.42C605.597 379.22 605.597 381.929 607.309 382.128Z" fill="#D88185"/>
<path d="M552.383 435.381C555.569 434.425 558.756 433.429 561.942 432.474C563.615 431.956 562.898 429.367 561.225 429.845C558.039 430.801 554.852 431.796 551.666 432.752C549.993 433.27 550.71 435.859 552.383 435.381Z" fill="#D88185"/>
<path d="M663.624 347.754C667.488 347.595 670.834 349.388 674.1 351.26C675.613 352.136 677.007 349.786 675.454 348.91C671.75 346.838 667.966 344.847 663.584 345.046C661.832 345.126 661.832 347.834 663.584 347.754H663.624Z" fill="#D88185"/>
<path d="M644.309 429.725C648.451 431.159 652.195 433.35 655.421 436.297C656.696 437.492 658.648 435.54 657.333 434.385C653.749 431.119 649.606 428.65 645.026 427.096C643.353 426.539 642.676 429.168 644.309 429.725Z" fill="#D88185"/>
<path d="M754.88 370.497C757.588 373.365 760.297 376.272 762.966 379.14C764.16 380.415 766.072 378.503 764.877 377.228C762.169 374.361 759.461 371.453 756.792 368.585C755.597 367.311 753.685 369.222 754.88 370.497Z" fill="#D88185"/>
<path d="M720.027 394.634C722.736 397.303 724.488 400.529 725.205 404.234C725.564 405.946 728.153 405.229 727.834 403.517C726.998 399.374 724.966 395.67 721.939 392.723C720.704 391.488 718.753 393.439 720.027 394.634Z" fill="#D88185"/>
<path d="M585.441 476.446C589.822 476.605 594.203 476.765 598.585 476.884C600.337 476.964 600.337 474.216 598.585 474.176C594.203 474.016 589.822 473.857 585.441 473.738C583.688 473.658 583.688 476.406 585.441 476.446Z" fill="#D88185"/>
<path d="M630.406 526.195C634.509 526.713 638.333 528.346 641.559 530.935C642.913 532.01 644.825 530.098 643.471 529.023C639.607 525.956 635.305 524.124 630.406 523.486C628.694 523.247 628.694 525.996 630.406 526.195Z" fill="#D88185"/>
<path d="M664.54 496.759C667.408 499.268 670.236 501.778 673.103 504.327C674.418 505.482 676.33 503.57 675.015 502.415C672.148 499.905 669.32 497.396 666.452 494.847C665.137 493.692 663.226 495.604 664.54 496.759Z" fill="#D88185"/>
<path d="M703.499 451.353C705.411 454.739 707.283 458.124 709.195 461.47C710.031 462.984 712.381 461.629 711.545 460.116L705.849 449.999C705.013 448.485 702.663 449.84 703.499 451.353Z" fill="#D88185"/>
<path d="M778.897 446.693C780.331 450.995 781.447 455.376 782.124 459.837C782.403 461.55 784.992 460.833 784.753 459.12C784.036 454.619 782.96 450.278 781.526 445.976C780.969 444.343 778.34 445.02 778.897 446.693Z" fill="#D88185"/>
<path d="M756.594 491.502C756.912 495.485 757.55 499.428 758.506 503.332C758.904 505.044 761.533 504.328 761.134 502.615C760.258 498.95 759.621 495.246 759.302 491.502C759.143 489.789 756.434 489.75 756.594 491.502Z" fill="#D88185"/>
<path d="M714.532 530.536C715.846 534.359 716.802 538.303 717.28 542.325C717.48 544.038 720.228 544.038 719.989 542.325C719.471 538.024 718.515 533.881 717.121 529.779C716.563 528.146 713.935 528.823 714.492 530.496L714.532 530.536Z" fill="#D88185"/>
<path d="M671.476 554.713C673.03 558.138 673.547 561.802 673.189 565.546C673.03 567.299 675.738 567.259 675.897 565.546C676.296 561.285 675.539 557.222 673.786 553.358C673.069 551.765 670.719 553.159 671.436 554.713H671.476Z" fill="#D88185"/>
<path d="M780.73 537.068C780.969 540.892 781.566 544.636 782.482 548.34C782.921 550.013 785.51 549.296 785.111 547.623C784.235 544.158 783.677 540.653 783.438 537.108C783.319 535.355 780.61 535.355 780.73 537.108V537.068Z" fill="#D88185"/>
<path d="M708.876 584.426C708.876 588.489 708.916 592.552 708.956 596.575C708.956 598.327 711.664 598.327 711.664 596.575C711.664 592.512 711.624 588.449 711.585 584.426C711.585 582.674 708.876 582.674 708.876 584.426Z" fill="#D88185"/>
<path d="M762.725 576.261C762.725 579.766 762.725 583.271 762.765 586.776C762.765 588.529 765.473 588.529 765.473 586.776C765.473 583.271 765.473 579.766 765.434 576.261C765.434 574.508 762.725 574.508 762.725 576.261Z" fill="#D88185"/>
<path d="M736.679 625.014C736.679 628.519 736.679 632.024 736.719 635.529C736.719 637.281 739.428 637.281 739.428 635.529C739.428 632.024 739.428 628.519 739.388 625.014C739.388 623.261 736.679 623.261 736.679 625.014Z" fill="#D88185"/>
<path d="M688.28 647.956C688.041 651.142 687.842 654.329 687.603 657.475C687.483 659.228 690.192 659.228 690.311 657.475C690.55 654.289 690.75 651.103 690.989 647.956C691.108 646.203 688.4 646.203 688.28 647.956Z" fill="#D88185"/>
<path d="M790.287 633.258C789.57 636.643 788.813 640.069 788.096 643.454C787.738 645.167 790.327 645.884 790.725 644.171C791.442 640.786 792.199 637.36 792.916 633.975C793.274 632.262 790.685 631.545 790.287 633.258Z" fill="#D88185"/>
<path d="M756.714 672.611C756.156 677.112 755.639 681.612 755.081 686.073C754.882 687.786 757.59 687.786 757.79 686.073C758.347 681.573 758.865 677.072 759.423 672.611C759.622 670.898 756.913 670.898 756.714 672.611Z" fill="#D88185"/>
<path d="M714.887 683.644C714.529 688.144 714.37 692.605 714.33 697.146C714.33 698.899 717.038 698.899 717.038 697.146C717.038 692.645 717.237 688.144 717.596 683.644C717.715 681.891 715.007 681.931 714.887 683.644Z" fill="#D88185"/>
<path d="M732.217 722.638C731.739 726.501 731.062 730.365 730.186 734.149C729.788 735.861 732.416 736.578 732.815 734.865C733.771 730.843 734.488 726.74 734.966 722.638C735.165 720.925 732.456 720.925 732.257 722.638H732.217Z" fill="#D88185"/>
<path d="M689.873 731.44C689.674 734.387 689.475 737.375 689.276 740.322C689.156 742.075 691.865 742.075 691.984 740.322C692.183 737.375 692.382 734.387 692.581 731.44C692.701 729.687 689.993 729.687 689.873 731.44Z" fill="#D88185"/>
<path d="M765.833 734.268C765.315 737.654 764.797 741.079 764.239 744.465C763.961 746.177 766.589 746.894 766.868 745.182C767.386 741.796 767.944 738.371 768.461 734.985C768.74 733.272 766.111 732.555 765.833 734.268Z" fill="#D88185"/>
<path d="M740.138 765.973C739.063 770.116 737.669 774.139 736.036 778.082C735.359 779.675 737.987 780.392 738.665 778.799C740.298 774.855 741.652 770.833 742.767 766.69C743.205 765.017 740.616 764.261 740.138 765.973Z" fill="#D88185"/>
<path d="M706.525 762.906C706.525 766.69 706.167 770.394 705.37 774.059C705.012 775.771 707.601 776.488 707.999 774.776C708.836 770.872 709.274 766.889 709.274 762.906C709.274 761.154 706.565 761.154 706.565 762.906H706.525Z" fill="#D88185"/>
<path d="M712.576 802.975C710.824 806.759 709.629 810.663 708.952 814.765C708.673 816.478 711.302 817.195 711.58 815.482C712.218 811.618 713.293 807.914 714.926 804.369C715.643 802.776 713.333 801.422 712.576 803.015V802.975Z" fill="#D88185"/>
<path d="M688.761 819.823C688.482 822.771 688.203 825.758 687.964 828.706C687.805 830.458 690.513 830.418 690.673 828.706C690.952 825.758 691.23 822.771 691.469 819.823C691.629 818.071 688.92 818.111 688.761 819.823Z" fill="#D88185"/>
<path d="M391.749 556.187C393.581 558.776 394.895 561.604 395.652 564.711C396.051 566.423 398.679 565.706 398.281 563.994C397.484 560.688 396.09 557.621 394.139 554.833C393.143 553.439 390.793 554.793 391.789 556.187H391.749Z" fill="#D88185"/>
<path d="M365.815 585.861C365.975 589.565 366.134 593.309 366.293 597.013C366.373 598.766 369.082 598.766 369.002 597.013C368.843 593.309 368.683 589.565 368.524 585.861C368.444 584.108 365.736 584.108 365.815 585.861Z" fill="#D88185"/>
<path d="M436.914 583.51C437.312 587.294 437.073 590.959 436.157 594.663C435.719 596.336 438.347 597.093 438.786 595.38C439.781 591.477 440.1 587.533 439.662 583.51C439.463 581.798 436.754 581.758 436.953 583.51H436.914Z" fill="#D88185"/>
<path d="M396.17 619.557C396.33 623.062 396.25 626.567 395.891 630.072C395.692 631.824 398.441 631.785 398.6 630.072C398.958 626.567 399.038 623.062 398.879 619.557C398.799 617.804 396.091 617.804 396.17 619.557Z" fill="#D88185"/>
<path d="M362.074 656.559C362.114 659.666 361.795 662.732 361.078 665.76C360.68 667.472 363.309 668.189 363.707 666.477C364.464 663.21 364.822 659.905 364.782 656.559C364.782 654.806 362.034 654.806 362.074 656.559Z" fill="#D88185"/>
<path d="M429.865 654.488C428.71 657.913 427.515 661.299 426.36 664.724C425.802 666.397 428.431 667.074 428.989 665.441C430.144 662.016 431.339 658.63 432.494 655.205C433.051 653.532 430.423 652.855 429.865 654.488Z" fill="#D88185"/>
<path d="M388.997 690.574C389.197 694.796 388.758 698.939 387.723 703.001C387.285 704.714 389.914 705.431 390.352 703.718C391.467 699.377 391.905 695.035 391.706 690.574C391.626 688.822 388.918 688.822 388.997 690.574Z" fill="#D88185"/>
<path d="M345.625 731.879C344.55 734.826 343.474 737.814 342.439 740.801C341.841 742.434 344.47 743.151 345.067 741.518C346.143 738.531 347.218 735.583 348.254 732.596C348.851 730.963 346.222 730.246 345.625 731.879Z" fill="#D88185"/>
<path d="M397.597 752.312C396.88 755.658 396.004 758.924 394.968 762.19C394.45 763.863 397.079 764.58 397.597 762.907C398.593 759.641 399.469 756.375 400.226 753.029C400.584 751.316 397.995 750.599 397.597 752.312Z" fill="#D88185"/>
<path d="M350.122 784.694C348.967 787.402 348.011 790.151 347.294 792.979C346.895 794.691 349.484 795.408 349.922 793.696C350.56 791.067 351.396 788.518 352.472 786.048C353.149 784.455 350.839 783.061 350.122 784.694Z" fill="#D88185"/>
<path d="M190.164 575.704C194.505 576.779 198.887 577.695 203.268 578.492C204.981 578.811 205.698 576.182 203.985 575.863C199.604 575.066 195.222 574.15 190.881 573.075C189.168 572.677 188.451 575.266 190.164 575.704Z" fill="#D88185"/>
<path d="M141.769 568.414C146.15 568.932 150.531 569.45 154.953 569.968C156.665 570.167 156.665 567.459 154.953 567.259C150.571 566.742 146.19 566.224 141.769 565.706C140.056 565.507 140.056 568.215 141.769 568.414Z" fill="#D88185"/>
<path d="M227.085 449.162C230.59 448.764 234.055 448.366 237.56 447.967C239.273 447.768 239.313 445.06 237.56 445.259C234.055 445.657 230.59 446.055 227.085 446.454C225.372 446.653 225.332 449.361 227.085 449.162Z" fill="#D88185"/>
<path d="M134.246 460.155C137.153 459.877 140.101 459.598 143.008 459.319C144.721 459.16 144.761 456.451 143.008 456.611C140.101 456.889 137.153 457.168 134.246 457.447C132.533 457.606 132.493 460.315 134.246 460.155Z" fill="#D88185"/>
<path d="M15.9432 597.212C14.0712 611.631 15.7839 626.487 20.8423 640.109C22.3559 639.472 22.5551 637.441 22.5152 635.808C22.2762 625.73 21.5991 615.534 23.5508 605.616C23.7898 604.342 24.1084 602.987 23.7101 601.713C23.1525 600 21.4398 598.925 19.6873 598.447L15.9432 597.212Z" fill="#3A3B3C"/>
<path d="M25.6231 600.159C25.6629 614.698 29.2875 629.196 36.0985 642.021C37.4925 641.185 37.4527 639.153 37.1739 637.52C35.6205 627.563 33.629 617.525 34.2264 607.448C34.3061 606.134 34.4256 604.74 33.868 603.585C33.1112 601.952 31.2392 601.115 29.4468 600.876L25.5833 600.12L25.6231 600.159Z" fill="#3A3B3C"/>
<path d="M34.6226 598.925C36.6539 613.303 42.2302 627.204 50.7539 638.954C52.0284 637.919 51.7098 635.927 51.2318 634.374C48.3242 624.695 44.9785 615.056 44.2217 604.979C44.142 603.664 44.0624 602.27 43.3056 601.195C42.3098 599.681 40.3581 599.124 38.5658 599.124L34.6226 598.925Z" fill="#3A3B3C"/>
<path d="M67.9239 580.045C61.9494 575.584 54.3816 573.712 46.9333 573.513C39.4851 573.354 32.0766 574.748 24.8275 576.341C22.3978 576.859 19.8885 577.456 17.8173 578.85C12.4402 582.515 11.9623 590.043 12.0021 596.495C12.0021 599.084 12.0818 601.833 13.5555 603.944C15.2682 606.413 18.4546 607.369 21.4021 607.927C37.852 610.834 55.6164 604.78 66.8884 592.433C69.3977 589.684 71.6282 586.498 72.0663 582.833L67.8841 580.045H67.9239Z" fill="#FEB2B6"/>
<path d="M210.202 653.453C215.778 653.612 221.115 652.457 226.174 650.027C227.767 649.271 226.373 646.921 224.82 647.677C220.199 649.868 215.34 650.864 210.242 650.744C208.489 650.705 208.489 653.413 210.242 653.453H210.202Z" fill="#D88185"/>
<path d="M167.378 642.38C171.043 642.778 174.667 642.897 178.332 642.698C180.084 642.619 180.084 639.91 178.332 639.99C174.667 640.189 171.003 640.069 167.378 639.671C165.666 639.472 165.666 642.18 167.378 642.38Z" fill="#D88185"/>
<path d="M150.25 669.982C153.676 671.137 157.181 671.296 160.686 670.619C162.399 670.3 161.682 667.671 159.969 667.99C156.902 668.588 153.915 668.349 150.967 667.353C149.294 666.795 148.577 669.424 150.25 669.982Z" fill="#D88185"/>
<path d="M124.202 643.854C128.224 644.053 132.208 644.252 136.23 644.451C137.983 644.531 137.983 641.822 136.23 641.743C132.208 641.544 128.224 641.344 124.202 641.145C122.449 641.066 122.449 643.774 124.202 643.854Z" fill="#D88185"/>
<path d="M72.065 636.644C75.1718 637.441 78.3184 637.879 81.5446 637.959C83.2972 637.998 83.2972 635.29 81.5446 635.25C78.5972 635.17 75.6896 634.732 72.782 634.015C71.0693 633.577 70.3523 636.206 72.065 636.644Z" fill="#D88185"/>
<path d="M96.3214 658.391C99.3883 659.029 102.495 659.467 105.642 659.666C107.394 659.785 107.394 657.077 105.642 656.957C102.734 656.758 99.8663 656.36 97.0383 655.763C95.3256 655.404 94.6087 658.033 96.3214 658.391Z" fill="#D88185"/>
<path d="M23.2307 595.18C22.912 593.109 23.3103 591.038 24.3061 589.206C25.1027 587.652 22.7926 586.298 21.9561 587.851C20.6019 590.401 20.2036 593.109 20.6417 595.937C20.8807 597.65 23.5095 596.933 23.2705 595.22L23.2307 595.18Z" fill="#D88185"/>
<path d="M43.7842 589.763C45.5368 588.289 47.2495 586.816 49.002 585.342C50.3562 584.227 48.4045 582.315 47.0901 583.43C45.3376 584.904 43.6249 586.378 41.8724 587.851C40.5181 588.967 42.4698 590.878 43.7842 589.763Z" fill="#D88185"/>
<path d="M179.296 438.607C176.707 438.488 174.118 438.368 171.529 438.169C171.211 443.068 171.051 447.927 170.972 452.827C174.038 453.026 177.105 453.225 180.212 453.344C180.212 452.229 180.212 451.154 180.133 450.158C179.854 446.334 179.615 442.471 179.336 438.647L179.296 438.607Z" fill="#E86B53"/>
<path d="M182.603 438.687C182.842 441.953 183.041 445.179 183.28 448.445C183.399 449.879 183.359 451.631 183.359 453.424C186.546 453.503 189.772 453.623 192.958 453.623C192.799 448.684 192.401 443.745 191.644 438.846C188.617 438.846 185.59 438.846 182.563 438.726L182.603 438.687Z" fill="#E86B53"/>
<path d="M194.947 438.806C195.664 443.705 196.102 448.604 196.262 453.543C198.771 453.543 201.28 453.543 203.79 453.424C203.192 448.485 202.794 443.546 202.635 438.607C200.086 438.686 197.497 438.766 194.947 438.806Z" fill="#E86B53"/>
<path d="M145.557 434.664C145 439.762 144.402 444.82 143.845 449.919C147.31 450.436 150.815 450.875 154.28 451.273C154.559 446.294 154.838 441.315 155.117 436.336C151.93 435.858 148.744 435.301 145.557 434.664Z" fill="#E86B53"/>
<path d="M135.838 432.353C135.002 437.172 134.564 442.032 134.643 446.931L135.121 448.604C136.954 448.922 138.786 449.161 140.658 449.44C141.255 444.262 141.813 439.124 142.41 433.946C140.22 433.468 138.029 432.91 135.878 432.353H135.838Z" fill="#E86B53"/>
<path d="M158.38 436.814C158.102 441.753 157.823 446.732 157.544 451.671C160.89 452.029 164.275 452.348 167.661 452.587C167.741 447.688 167.9 442.789 168.218 437.889C164.913 437.611 161.646 437.252 158.38 436.814Z" fill="#E86B53"/>
<path d="M205.94 438.487C206.099 443.466 206.458 448.405 207.055 453.304C210.64 453.184 214.185 452.985 217.77 452.707C217.212 447.768 216.615 442.868 216.057 437.929C212.671 438.129 209.326 438.328 205.94 438.447V438.487Z" fill="#E86B53"/>
<path d="M312.408 459.04C312.966 459.04 313.324 458.641 313.444 458.124L312.408 459.04Z" fill="#E86B53"/>
<path d="M267.361 388.182C259.594 381.809 251.429 375.794 242.188 371.891C234.82 368.784 226.893 367.032 218.927 366.514C197.18 365.16 174.955 373.245 159.182 388.261C147.75 399.175 139.824 413.673 136.439 429.127C154.8 434.026 173.561 435.58 192.44 435.5C192.958 435.261 193.555 435.221 193.993 435.5C205.664 435.381 217.414 434.664 229.124 433.748C229.562 433.509 230.08 433.469 230.598 433.628C233.864 433.349 237.13 433.07 240.396 432.792C240.953 432.314 241.79 432.194 242.387 432.592C247.924 432.075 253.46 431.597 258.997 431.079C259.634 429.406 260.909 428.092 262.621 428.251C263.896 428.37 264.892 429.287 265.808 430.203C278.354 442.271 292.295 456.053 309.701 455.694C310.856 455.694 312.17 455.614 313.046 456.411C313.485 456.809 313.604 457.526 313.485 458.084L314.281 457.407C309.741 429.247 289.427 406.225 267.361 388.142V388.182Z" fill="#E86B53"/>
<path d="M257.438 445.298C258.434 444.302 259.151 443.147 259.429 441.713C259.867 439.323 258.912 436.894 258.633 434.464C257.478 434.584 256.323 434.663 255.167 434.783C256.203 438.248 256.96 441.793 257.438 445.338V445.298Z" fill="#E86B53"/>
<path d="M219.281 437.77C219.839 442.669 220.436 447.608 220.994 452.507C223.981 452.268 226.929 451.95 229.916 451.671C229.597 446.812 229.199 441.952 228.641 437.093C225.535 437.332 222.388 437.571 219.281 437.77Z" fill="#E86B53"/>
<path d="M243.537 435.779C244.613 440.319 245.449 444.939 246.206 449.52C246.604 449.44 247.003 449.4 247.401 449.361C249.711 449.002 252.22 448.365 254.332 447.369C253.893 443.187 253.097 439.084 251.822 435.022C249.074 435.261 246.286 435.54 243.537 435.779Z" fill="#E86B53"/>
<path d="M231.946 436.815C232.464 441.634 232.862 446.493 233.221 451.353C236.487 450.954 239.753 450.476 243.019 449.998C242.262 445.338 241.346 440.678 240.271 436.098C237.523 436.337 234.734 436.576 231.946 436.815Z" fill="#E86B53"/>
<path d="M240.395 432.791C237.129 433.07 233.863 433.389 230.597 433.628C230.119 433.468 229.562 433.508 229.123 433.747C217.413 434.703 205.703 435.42 193.993 435.5C193.555 435.221 192.957 435.261 192.44 435.5C173.56 435.579 154.8 434.026 136.438 429.127C136.199 430.202 136 431.278 135.801 432.353C137.992 432.911 140.142 433.468 142.333 433.946C141.736 439.124 141.178 444.262 140.581 449.44C141.656 449.6 142.731 449.759 143.807 449.918C144.364 444.82 144.962 439.762 145.52 434.663C148.706 435.301 151.892 435.858 155.079 436.336C154.8 441.315 154.521 446.294 154.242 451.273C155.318 451.392 156.433 451.512 157.508 451.631C157.787 446.692 158.066 441.713 158.345 436.774C161.611 437.213 164.917 437.571 168.183 437.85C167.864 442.749 167.705 447.648 167.625 452.547C168.701 452.627 169.816 452.707 170.891 452.786C170.971 447.887 171.13 443.028 171.449 438.129C174.038 438.328 176.627 438.487 179.216 438.567C179.495 442.39 179.734 446.254 180.013 450.078C180.092 451.073 180.092 452.149 180.092 453.264C181.168 453.304 182.203 453.304 183.279 453.344C183.279 451.591 183.279 449.799 183.199 448.365C182.96 445.099 182.761 441.873 182.522 438.607C185.549 438.686 188.576 438.726 191.603 438.726C192.36 443.625 192.758 448.564 192.918 453.503C193.993 453.503 195.108 453.503 196.184 453.463C196.024 448.524 195.586 443.625 194.869 438.726C197.418 438.726 200.007 438.646 202.557 438.527C202.716 443.506 203.114 448.445 203.712 453.344C204.787 453.344 205.902 453.264 206.978 453.224C206.38 448.285 205.982 443.346 205.863 438.407C209.248 438.288 212.594 438.089 215.979 437.89C216.537 442.829 217.135 447.728 217.692 452.667C218.768 452.587 219.883 452.507 220.958 452.428C220.401 447.529 219.803 442.59 219.246 437.69C222.352 437.491 225.499 437.252 228.606 437.013C229.123 441.873 229.522 446.732 229.88 451.591C230.956 451.472 232.071 451.392 233.146 451.273C232.828 446.413 232.429 441.594 231.872 436.735C234.66 436.496 237.408 436.257 240.196 436.018C241.272 440.638 242.188 445.258 242.945 449.918C244.02 449.759 245.095 449.64 246.171 449.48C245.414 444.86 244.538 440.279 243.502 435.739C246.29 435.5 249.039 435.221 251.787 434.982C253.062 439.045 253.858 443.147 254.296 447.329C255.491 446.772 256.527 446.095 257.363 445.218C256.885 441.674 256.128 438.129 255.093 434.663C256.248 434.544 257.403 434.464 258.558 434.345C258.558 434.185 258.518 433.986 258.518 433.827C258.439 432.911 258.638 431.915 258.956 431.039C253.42 431.517 247.923 432.035 242.347 432.552C241.75 432.154 240.913 432.274 240.356 432.752L240.395 432.791Z" fill="#E25243"/>
<path d="M150.371 422.396C152.124 422.396 152.124 419.687 150.371 419.687C148.619 419.687 148.619 422.396 150.371 422.396Z" fill="#E25243"/>
<path d="M178.968 422.556C180.721 422.556 180.721 419.847 178.968 419.847C177.216 419.847 177.216 422.556 178.968 422.556Z" fill="#E25243"/>
<path d="M173.593 401.884C175.346 401.884 175.346 399.175 173.593 399.175C171.84 399.175 171.84 401.884 173.593 401.884Z" fill="#E25243"/>
<path d="M206.811 403.676C208.564 403.676 208.564 400.967 206.811 400.967C205.059 400.967 205.059 403.676 206.811 403.676Z" fill="#E25243"/>
<path d="M204.305 430.004C206.058 430.004 206.058 427.296 204.305 427.296C202.553 427.296 202.553 430.004 204.305 430.004Z" fill="#E25243"/>
<path d="M221.988 415.108C223.741 415.108 223.741 412.399 221.988 412.399C220.236 412.399 220.236 415.108 221.988 415.108Z" fill="#E25243"/>
<path d="M246.603 408.735C248.355 408.735 248.355 406.026 246.603 406.026C244.85 406.026 244.85 408.735 246.603 408.735Z" fill="#E25243"/>
<path d="M240.744 426.857C242.497 426.857 242.497 424.149 240.744 424.149C238.992 424.149 238.992 426.857 240.744 426.857Z" fill="#E25243"/>
<path d="M193.228 387.346C194.98 387.346 194.98 384.637 193.228 384.637C191.475 384.637 191.475 387.346 193.228 387.346Z" fill="#E25243"/>
<path d="M153.561 401.007C155.314 401.007 155.314 398.299 153.561 398.299C151.808 398.299 151.808 401.007 153.561 401.007Z" fill="#E25243"/>
<path d="M206.298 373.126C208.05 373.126 208.05 370.418 206.298 370.418C204.545 370.418 204.545 373.126 206.298 373.126Z" fill="#E25243"/>
<path d="M220.199 386.549C221.952 386.549 221.952 383.841 220.199 383.841C218.447 383.841 218.447 386.549 220.199 386.549Z" fill="#E25243"/>
<path d="M246.447 382.765C248.199 382.765 248.199 380.057 246.447 380.057C244.694 380.057 244.694 382.765 246.447 382.765Z" fill="#E25243"/>
<path d="M265.958 405.667C267.71 405.667 267.71 402.959 265.958 402.959C264.205 402.959 264.205 405.667 265.958 405.667Z" fill="#E25243"/>
<path d="M281.454 412.16C283.206 412.16 283.206 409.452 281.454 409.452C279.701 409.452 279.701 412.16 281.454 412.16Z" fill="#E25243"/>
<path d="M274.289 429.645C276.042 429.645 276.042 426.937 274.289 426.937C272.536 426.937 272.536 429.645 274.289 429.645Z" fill="#E25243"/>
<path d="M287.786 429.566C289.539 429.566 289.539 426.857 287.786 426.857C286.034 426.857 286.034 429.566 287.786 429.566Z" fill="#E25243"/>
<path d="M302.606 435.739C304.359 435.739 304.359 433.031 302.606 433.031C300.853 433.031 300.853 435.739 302.606 435.739Z" fill="#E25243"/>
<path d="M293.442 448.924C295.195 448.924 295.195 446.215 293.442 446.215C291.689 446.215 291.689 448.924 293.442 448.924Z" fill="#E25243"/>
<path d="M311.05 453.703C309.058 451.393 306.867 449.003 303.88 448.366C300.933 447.728 297.229 449.999 297.667 452.986C297.826 454.022 298.423 454.938 299.061 455.734C299.499 456.292 299.977 457.049 299.618 457.686C299.419 458.044 298.981 458.164 298.623 458.323C295.675 459.438 293.405 462.545 293.962 465.612C294.52 468.679 298.543 470.79 301.092 468.998C300.415 472.702 303.721 476.486 307.465 476.685C311.209 476.924 314.794 473.977 315.67 470.312C317.502 471.149 319.374 471.945 321.406 472.105C323.397 472.264 325.588 471.706 326.902 470.193C328.217 468.679 328.416 466.13 326.942 464.736C328.973 462.705 329.65 459.438 328.575 456.77C327.5 454.101 324.712 452.229 321.844 452.229C321.525 452.229 321.167 452.229 320.928 451.99C320.728 451.791 320.689 451.472 320.689 451.154C320.569 448.166 320.41 444.861 318.219 442.829C316.148 440.957 312.842 440.997 310.412 442.311C307.943 443.626 306.23 445.976 304.916 448.445L311.09 453.663L311.05 453.703Z" fill="#FFE5B8"/>
</g>
<defs>
<clipPath id="clip0_194_866">
<rect width="732.982" height="795.017" fill="white" transform="translate(61.9973 94)"/>
</clipPath>
</defs>
</svg>
