<svg width="897" height="984" viewBox="0 0 897 984" fill="none" xmlns="http://www.w3.org/2000/svg">
<mask id="mask0_109_560" style="mask-type:alpha" maskUnits="userSpaceOnUse" x="0" y="0" width="897" height="984">
<rect width="897" height="984" fill="#A0A6B8"/>
</mask>
<g mask="url(#mask0_109_560)">
<g clip-path="url(#clip0_109_560)">
<path d="M104.889 927.017C92.2603 927.017 81.9973 916.754 81.9973 904.126V527.944C81.9973 309.637 246.395 132 448.488 132C546.768 132 639.021 173.433 708.267 248.67C777.056 323.334 814.979 422.53 814.979 527.944V904.126C814.979 916.754 804.716 927.017 792.088 927.017H104.889Z" fill="white"/>
<path d="M792.088 527.944V904.126H104.889V527.944C104.889 321.884 258.719 154.891 448.488 154.891C543.373 154.891 629.292 196.668 691.442 264.159C753.63 331.651 792.088 424.933 792.088 527.944Z" fill="#C6C3FA"/>
<mask id="mask1_109_560" style="mask-type:alpha" maskUnits="userSpaceOnUse" x="104" y="154" width="689" height="751">
<path d="M792.088 527.944V904.126H104.889V527.944C104.889 321.884 258.719 154.891 448.488 154.891C543.373 154.891 629.292 196.668 691.442 264.159C753.63 331.651 792.088 424.933 792.088 527.944Z" fill="#C6C3FA"/>
</mask>
<g mask="url(#mask1_109_560)">
</g>
</g>
<mask id="mask2_109_560" style="mask-type:alpha" maskUnits="userSpaceOnUse" x="105" y="57" width="687" height="847">
<rect x="105" y="57" width="687" height="847" fill="#D9D9D9"/>
</mask>
<g mask="url(#mask2_109_560)">
<g clip-path="url(#clip1_109_560)">
<path fill-rule="evenodd" clip-rule="evenodd" d="M579.675 311.873C598.347 321.955 604.185 348.121 611.308 385.775C618.431 423.43 626.832 472.566 630.765 501.051C634.698 529.531 634.168 537.354 623.18 546.425C612.191 555.496 590.749 565.809 551.914 579.641C513.084 593.473 456.862 610.818 417.32 616.163C377.773 621.508 354.9 614.86 341.202 602.228C327.504 589.595 322.981 570.978 318.196 552.623C313.41 534.274 308.357 516.186 305.581 500.625C302.811 485.064 302.318 472.03 302.154 455.848C301.983 439.666 302.135 420.343 302.513 403.455C302.89 386.567 303.493 372.12 316.168 361.04C328.837 349.96 353.573 342.246 385.888 334.934C418.203 327.617 458.098 320.707 493.798 314.247C529.498 307.788 560.997 301.791 579.669 311.873H579.675Z" fill="#FEB2B6"/>
<path d="M664.188 759.019C658.813 751.725 652.043 745.546 643.897 741.443L639.581 743.093C620.087 764.614 614.121 797.051 624.616 824.057C626.376 828.635 628.61 833.11 631.806 836.842C635.484 841.158 640.323 844.403 644.585 848.19C648.262 851.441 651.617 855.167 655.294 858.363C655.294 855.008 655.081 851.648 654.868 848.403C652.792 818.31 653.163 786.671 664.134 759.025H664.188V759.019Z" fill="#D88185"/>
<path d="M685.66 840.781C683.371 822.194 682.512 803.285 677.082 785.331C674.257 776.011 669.996 766.848 664.194 759.019C653.217 786.719 652.846 818.304 654.928 848.397C655.141 851.648 655.354 855.051 655.354 858.357C657.162 859.958 659.031 861.389 661.107 862.618C667.445 866.344 676.339 867.355 681.666 862.405C687.316 857.188 686.622 848.342 685.666 840.781H685.66Z" fill="#FEB2B6"/>
<path d="M390.631 940.118C393.401 939.747 396.171 939.314 398.941 938.84C399.47 936.392 399.635 933.835 399.683 931.327C400 922.749 400.323 914.122 400.639 905.55C401.169 890.373 401.759 875.135 402.289 859.958L295.067 894.099C293.947 903.901 292.833 913.647 291.713 923.449C293.789 924.143 295.92 924.782 298.05 925.422C328.143 934.688 359.357 944.063 390.624 940.124L390.631 940.118Z" fill="#D88185"/>
<path d="M467.168 183.551C465.354 186.108 464.344 189.091 463.595 192.074C461.677 200.116 461.835 208.743 464.715 216.523C467.588 224.304 473.293 231.067 480.751 234.684C484.69 236.601 489.006 237.612 493.371 238.203C500.135 239.11 507.063 239.055 513.882 238.945C519.367 238.89 524.852 238.787 530.337 238.732C531.19 233.777 531.299 228.717 530.977 223.713C530.179 210.021 526.66 196.652 522.508 183.551C520.7 177.852 518.673 172.099 516.225 166.559C503.173 166.717 490.181 169.646 478.407 175.186C474.09 177.213 469.829 179.66 467.114 183.551H467.168Z" fill="#E25243"/>
<path d="M513.881 238.945C507.008 239.055 500.135 239.104 493.377 238.203C489.012 237.618 484.696 236.602 480.751 234.684C473.293 231.061 467.594 224.298 464.721 216.523C461.841 208.749 461.683 200.116 463.601 192.074C464.343 189.036 465.36 186.053 467.174 183.551C469.89 179.661 474.2 177.213 478.461 175.186C490.236 169.646 503.227 166.717 516.28 166.559C511.702 156.015 505.681 146.268 496.677 139.285C478.194 124.905 452.417 125.703 429.082 128.101C391.16 131.992 352.915 134.92 315.632 142.536C309.24 150.578 303.432 159.101 298.854 168.209C309.027 168.313 319.2 170.127 328.733 173.591C333.208 175.186 337.683 177.268 340.769 180.89C342.797 183.234 344.069 186.108 345.086 189.091C347.746 196.92 348.392 205.547 346.206 213.54C344.02 221.528 339.016 228.827 331.93 233.089C328.204 235.378 323.942 236.766 319.681 237.722C313.02 239.268 306.153 239.798 299.335 240.333C295.018 240.65 290.708 241.021 286.337 241.344C286.495 254.659 287.189 267.924 288.309 281.239C294.86 281.981 301.52 282.359 308.126 282.675C356.117 285.129 404.212 287.576 452.149 284.703C467.54 283.796 483.259 282.249 497.474 276.234C511.696 270.268 524.535 259.139 529.059 244.382C529.643 242.519 530.015 240.656 530.337 238.787C524.852 238.842 519.367 238.945 513.881 239V238.945Z" fill="#FFE5B8"/>
<path d="M319.681 237.666C323.942 236.711 328.204 235.268 331.93 233.034C339.016 228.772 344.075 221.472 346.206 213.485C348.392 205.498 347.752 196.865 345.086 189.036C344.075 186.107 342.797 183.228 340.77 180.835C337.677 177.213 333.208 175.137 328.734 173.536C319.145 170.072 309.027 168.263 298.854 168.154C297.149 171.508 295.603 174.972 294.276 178.54C287.938 195.586 286.446 214.015 286.288 232.175C286.288 235.213 286.288 238.245 286.288 241.283C290.604 240.966 294.915 240.589 299.286 240.272C306.104 239.743 312.972 239.207 319.632 237.66H319.687L319.681 237.666Z" fill="#E25243"/>
<path d="M395.586 185.633C389.778 185.688 383.763 185.791 378.594 188.506C373.377 191.222 369.164 197.243 370.016 203.739C370.765 209.492 375.234 214.125 380.189 215.988C385.145 217.851 390.417 217.534 395.531 216.84C401.978 215.988 408.419 214.709 414.282 211.623C415.932 210.77 417.533 209.705 418.702 208.213C421.789 204.323 421.417 197.827 418.544 193.456C415.664 189.091 410.873 186.747 406.13 186.211C406.13 186.211 398.356 185.572 395.586 185.627V185.633Z" fill="#3A3B3C"/>
<path d="M342.48 158.682C342.377 158.201 342.164 157.726 341.841 157.245C338.109 151.492 325.221 149.416 319.681 152.667C317.708 153.836 317.02 155.65 317.233 157.458C316.594 160.496 319.894 163.424 322.773 164.277C322.773 164.277 322.877 164.277 322.932 164.277C324.959 165.074 327.723 165.714 330.231 165.659C333.799 165.927 337.366 165.446 340.246 163.583C342.005 162.414 343.071 160.654 342.59 158.682H342.486H342.48Z" fill="#FEB2B6"/>
<path d="M299.438 197.401C300.772 198.625 302.099 199.849 303.432 201.079C304.814 202.357 306.787 200.171 305.405 198.893C304.071 197.669 302.744 196.446 301.411 195.216C300.029 193.937 298.056 196.123 299.438 197.401Z" fill="#3C3C3D"/>
<path d="M310.89 191.97C311.048 193.571 311.206 195.112 311.37 196.713C311.529 198.63 314.512 198.417 314.299 196.5C314.141 194.905 313.982 193.358 313.818 191.757C313.66 189.839 310.676 190.052 310.89 191.97Z" fill="#3C3C3D"/>
<path d="M323.303 194.741C322.025 195.916 320.691 197.14 319.413 198.309C318.025 199.587 320.211 201.56 321.599 200.281C322.877 199.113 324.21 197.883 325.489 196.714C326.877 195.435 324.691 193.463 323.303 194.741Z" fill="#3C3C3D"/>
<path d="M326.768 208.536C326.768 216.049 320.746 222.173 313.24 222.222C305.727 222.277 299.603 216.201 299.554 208.694C299.554 201.182 305.575 195.057 313.082 195.009C320.594 194.954 326.719 201.03 326.768 208.536Z" fill="white"/>
<path d="M322.292 209.065C322.292 213.856 318.457 217.747 313.666 217.801C308.874 217.801 304.984 213.966 304.929 209.175C304.929 204.383 308.765 200.493 313.556 200.438C318.347 200.438 322.238 204.274 322.292 209.065Z" fill="#3C3C3D"/>
<path d="M317.118 206.192C317.118 207.787 315.839 209.072 314.244 209.072C312.643 209.072 311.371 207.793 311.371 206.192C311.371 204.591 312.649 203.318 314.244 203.318C315.839 203.318 317.118 204.597 317.118 206.192Z" fill="white"/>
<path d="M380.67 230.849C381.894 236.279 386.795 240.279 392.438 240.17C398.137 240.066 402.611 235.908 404.687 230.849C405.594 228.718 402.076 227.762 401.168 229.887C398.027 237.503 386.362 239.372 384.177 229.887C383.647 227.598 380.183 228.554 380.664 230.849H380.67Z" fill="#3A3B3C"/>
<path d="M507.605 191.544C506.272 192.768 504.945 193.991 503.611 195.221C502.229 196.5 500.257 194.314 501.639 193.036C502.972 191.812 504.299 190.588 505.633 189.358C507.015 188.08 508.987 190.266 507.605 191.544Z" fill="#3C3C3D"/>
<path d="M496.196 186.059C496.038 187.654 495.88 189.2 495.715 190.802C495.557 192.719 492.574 192.506 492.787 190.588C492.945 188.987 493.104 187.447 493.268 185.846C493.426 183.928 496.409 184.141 496.196 186.059Z" fill="#3C3C3D"/>
<path d="M483.734 188.877C485.013 190.052 486.346 191.276 487.624 192.445C489.012 193.723 486.827 195.696 485.439 194.417C484.16 193.248 482.833 192.019 481.548 190.85C480.166 189.571 482.346 187.599 483.734 188.877Z" fill="#3C3C3D"/>
<path d="M480.276 202.674C480.276 210.186 486.297 216.311 493.803 216.366C501.316 216.366 507.44 210.345 507.495 202.838C507.495 195.326 501.474 189.201 493.968 189.152C486.455 189.152 480.331 195.173 480.276 202.68V202.674Z" fill="white"/>
<path d="M484.751 203.209C484.751 208 488.586 211.891 493.378 211.945C498.175 211.945 502.059 208.11 502.114 203.319C502.114 198.528 498.278 194.637 493.487 194.583C488.696 194.583 484.806 198.418 484.751 203.209Z" fill="#3C3C3D"/>
<path d="M489.968 200.329C489.968 201.93 491.246 203.203 492.847 203.203C494.449 203.203 495.721 201.924 495.721 200.329C495.721 198.728 494.442 197.456 492.847 197.456C491.246 197.456 489.968 198.734 489.968 200.329Z" fill="white"/>
<path d="M455.132 164.216C455.187 163.735 455.345 163.26 455.613 162.724C458.7 156.599 471.326 153.135 477.183 155.802C479.259 156.758 480.111 158.462 480.166 160.277C481.128 163.26 478.139 166.456 475.424 167.625C475.424 167.625 475.314 167.625 475.265 167.68C473.348 168.69 470.687 169.597 468.179 169.81C464.66 170.45 461.038 170.395 458.006 168.8C456.143 167.838 454.864 166.188 455.181 164.167L455.126 164.222L455.132 164.216Z" fill="#FEB2B6"/>
<path d="M471.595 215.244C471.911 217.801 467.972 220.358 462.859 220.998C457.745 221.637 453.325 220.042 453.057 217.485C452.74 214.928 456.679 212.371 461.793 211.732C466.907 211.092 471.327 212.693 471.595 215.25V215.244Z" fill="#E86B53"/>
<path d="M351.904 219.616C351.691 222.173 347.326 223.933 342.212 223.506C337.098 223.08 333.105 220.633 333.318 218.076C333.531 215.519 337.896 213.76 343.01 214.186C348.124 214.612 352.117 217.065 351.904 219.616Z" fill="#E86B53"/>
<path d="M366.875 112.766C363.411 113.405 360.428 115.749 358.936 118.945C357.974 121.076 361.122 122.89 362.078 120.76C363.198 118.312 365.219 116.766 367.831 116.23C370.12 115.804 369.164 112.291 366.875 112.717V112.772V112.766Z" fill="#D88185"/>
<path d="M311.048 440.873C285.107 446.784 272.858 475.97 265.345 501.485C242.655 578.291 226.035 657.392 223.959 737.498C223.746 746.179 223.691 755.129 226.888 763.226C230.084 771.323 237.17 778.458 245.797 779.097C252.348 779.578 258.582 776.437 264.17 772.973C308.223 745.698 334.371 695.527 342.949 644.449C351.527 593.371 344.441 540.953 334.535 490.143L311.097 440.873H311.042H311.048Z" fill="#E25243"/>
<path d="M519.957 817.025C531.409 775.37 540.626 732.493 540.626 689.402C455.881 702.187 367.679 700.105 282.081 691.691C260.883 689.615 238.936 686.845 219.174 679.387C214.809 688.866 211.558 698.771 210.012 709.322C207.138 729.138 210.919 749.271 214.858 768.923C217.415 781.598 220.075 794.383 225.299 806.261C232.117 821.816 242.984 835.13 253.845 848.183C274.404 872.845 297.094 898.464 327.936 907.358C343.01 911.674 359.04 911.62 374.704 910.926C411.189 909.325 447.516 904.375 483.149 896.333C492.58 884.346 500.512 871.141 506.533 857.132C512.128 844.189 516.122 830.607 519.848 817.025H519.957Z" fill="#FFE5B8"/>
<path d="M562.196 403.48C579.936 397.033 597.884 388.722 610.029 374.288C608.805 368.218 607.576 362.094 606.352 356.018L604.166 348.189C596.873 304.726 583.93 262.275 565.763 222.112C567.523 223.281 570.025 221.741 570.609 219.769C571.194 217.747 570.506 215.617 569.812 213.644C560.491 187.119 549.521 161.178 536.949 136.089C532.687 127.566 528.158 118.994 521.504 112.175C514.74 105.199 506.058 100.298 497.109 96.4623C476.818 87.8357 453.324 84.4751 432.607 92.0973C436.497 90.2343 433.94 83.4706 429.678 82.7765C426.537 82.2469 423.554 83.7384 420.839 85.6501C420.041 86.5024 419.189 87.1964 418.123 87.7261C418.976 87.032 419.883 86.2893 420.839 85.6501C425.204 80.9075 425.204 72.1226 419.773 68.3419C414.659 64.7196 406.775 67.5444 404.005 72.8714C403.738 74.3081 403.366 75.6962 402.995 77.0782C402.995 75.5318 403.311 74.1499 404.005 72.8714C404.645 69.73 404.913 66.5886 403.951 63.5507C402.569 59.1856 397.558 55.6119 393.351 57.5296C391.434 58.382 390.1 60.1901 389.035 62.0043C384.828 69.0359 383.178 77.5591 384.347 85.6562C379.982 82.1434 379.982 74.4725 374.868 72.2321C369.596 69.8883 363.898 76.3902 364.586 82.1373C365.28 87.8905 369.803 92.3103 374.016 96.2006L372.202 96.6267C356.489 98.3862 344.185 110.422 333.476 121.983C327.352 128.589 321.276 135.352 315.687 142.439C353.025 134.823 391.215 131.894 429.137 128.004C452.466 125.606 478.248 124.808 496.732 139.188C510.417 149.842 517.346 166.937 522.618 183.454C526.776 196.5 530.289 209.924 531.086 223.616C531.512 230.538 531.196 237.625 529.114 244.285C524.584 259.042 511.751 270.171 497.529 276.137C483.308 282.103 467.649 283.65 452.204 284.606C404.267 287.485 356.117 285.032 308.18 282.584C301.63 282.268 294.969 281.89 288.364 281.148C290.866 310.814 295.183 340.426 298.908 370.044C300.455 382.08 301.837 394.171 302.689 406.317C386.204 434.602 479.369 433.64 562.244 403.437L562.19 403.492L562.196 403.48Z" fill="#FEB2B6"/>
<path d="M519.964 817.024C516.232 830.607 512.238 844.189 506.649 857.132C500.628 871.141 492.696 884.352 483.265 896.333C487.527 895.377 491.788 894.36 495.995 893.35L497.328 893.24C495.356 904.052 493.383 914.816 491.417 925.628C490.406 931.168 489.499 937.238 492.373 942.029C495.252 946.875 503.611 948.318 506.065 943.259C513.206 969.2 488.008 994.075 489.286 1020.92C490.887 1021.34 492.482 1021.77 494.084 1022.2C494.723 1029.92 495.307 1037.8 493.176 1045.21C491.046 1052.61 482.949 1048.78 475.387 1050.38C471.765 1051.12 469.744 1054.27 467.236 1063.43C465.58 1069.66 462.603 1075.73 467.29 1080.15C471.978 1084.57 478.851 1085.64 485.238 1086.39C502.388 1088.31 519.592 1089.16 536.852 1088.84C544.151 1088.73 551.713 1088.31 558.263 1085.01C564.229 1081.97 568.753 1076.75 572.381 1071.11C577.757 1062.69 581.324 1053.1 582.767 1043.19C583.139 1040.74 583.352 1038.24 584.259 1035.95C585.27 1033.34 586.974 1031.1 588.521 1028.76C598.852 1012.83 598.535 992.486 597.841 973.474C608.708 970.436 614.194 958.558 617.871 947.855C633.852 900.984 640.725 851.604 647.276 802.547C653.4 756.528 659.099 708.695 647.276 664.112C612.708 675.722 577.02 683.929 540.693 689.359C540.693 732.45 531.531 775.328 520.031 816.982L519.976 817.037L519.964 817.024Z" fill="#FEB2B6"/>
<path fill-rule="evenodd" clip-rule="evenodd" d="M318.165 413.501C334.955 415.918 368.999 423.101 394.533 427.089C420.066 431.077 437.088 431.874 472.246 425.725C507.404 419.577 560.692 406.481 587.023 403.425C613.353 400.369 612.726 407.346 604.434 424.398C596.142 441.451 580.18 468.579 559.572 489.059C538.958 509.539 513.693 523.371 490.771 532.399C467.85 541.428 447.285 545.659 428.138 549.117C408.992 552.575 391.257 555.26 376.543 547.029C361.828 538.798 350.127 519.645 341.744 501.296C333.366 482.946 328.313 465.389 324.904 454.735C321.501 444.081 319.742 440.324 316.18 436.812C312.619 433.293 307.249 430.011 304.637 426.547C302.019 423.083 302.159 419.43 301.995 416.435C301.837 413.44 301.374 411.09 318.171 413.507L318.165 413.501Z" fill="#EEEEEF"/>
<path d="M425.332 454.746C425.027 456.999 424.692 459.148 424.315 461.169C423.56 465.26 422.635 468.804 421.654 471.586C420.583 474.624 419.378 476.876 418.16 478.094C416.309 479.957 414.586 480.072 412.169 478.222C410.593 477.016 408.644 474.733 405.759 471.154L403.244 468.024C397.668 461.066 389.9 451.368 383.501 445.249C379.873 441.773 376.67 439.447 373.687 437.694C370.716 435.953 367.885 434.747 365.054 433.542L366.613 429.877C369.541 431.119 372.47 432.367 375.696 434.26C378.905 436.148 382.35 438.65 386.253 442.382C392.846 448.683 400.706 458.491 406.349 465.534L408.864 468.664C411.561 472 413.338 474.106 414.586 475.062C414.988 475.373 415.201 475.421 415.341 475.281C416.139 474.484 417.022 472.749 417.904 470.259C418.83 467.641 419.694 464.305 420.413 460.451C421.143 456.5 421.728 451.982 422.227 447.179C422.714 442.54 423.146 437.347 423.584 432.154L425.569 432.318L427.554 432.184C427.919 437.469 428.284 442.765 428.698 447.818C429.1 452.695 429.545 457.09 430.05 460.518C430.549 463.878 431.109 466.295 431.706 467.994C432.217 469.437 432.704 470.246 433.167 470.63C433.611 470.989 434.792 470.49 437.83 469.199L438.61 468.871C440.905 467.903 443.815 466.703 447.035 465.382L457.561 461.084L459.059 464.773L448.545 469.053C445.227 470.411 442.299 471.622 440.168 472.523L439.389 472.858C434.75 474.831 432.948 475.598 430.646 473.71C429.648 472.895 428.735 471.513 427.956 469.315C427.268 467.379 426.647 464.706 426.111 461.09C425.831 459.209 425.575 457.072 425.332 454.734V454.746Z" fill="#B6B6B7"/>
<path d="M300.918 408.74C311.139 516.93 239.441 645.033 219.229 679.442C238.991 686.845 260.938 689.67 282.136 691.746C367.679 700.16 455.881 702.242 540.681 689.457C577.008 683.972 612.696 675.771 647.263 664.21C646.302 660.643 645.291 657.075 644.122 653.556L643.324 649.776C648.548 650.415 650.728 643.28 650.728 637.953C650.782 614.514 648.012 591.081 642.582 568.282L643.105 567.697C642.472 564.081 641.76 559.917 640.938 555.101C634.759 518.939 622.4 446.613 615.764 404.758C615.119 400.692 614.528 396.917 613.993 393.392C599.771 396.424 585.269 400.448 571.517 404.838C534.015 416.806 502.047 431.527 476.355 449.128C450.664 466.728 431.249 487.208 419.165 516.619C418.909 517.246 418.659 517.873 418.41 518.506C418.227 516.169 417.99 513.849 417.697 511.548C414.678 487.939 405.503 466.807 390.417 450.601C373.584 458.735 353.335 460.823 336.526 452.866C321.434 445.737 310.518 429.445 310.683 413.117C310.537 429.427 321.404 445.688 336.526 452.811H336.581C353.366 460.756 373.578 458.686 390.399 450.583C387.538 447.514 384.463 444.616 381.182 441.913C360.562 424.958 323.401 413.872 312.351 411.51C308.869 410.767 301.106 409.075 300.924 408.746L300.918 408.74Z" fill="#E86B53"/>
<path d="M634.107 515.103C627.916 478.703 620.422 434.194 615.758 404.758C615.113 400.692 614.522 396.917 613.987 393.392C612.398 393.733 610.803 394.08 609.207 394.445C608.69 395.626 608.282 397.063 607.978 398.768C606.517 406.877 607.314 420.977 604.922 436.799C602.529 452.628 596.94 470.18 586.304 487.464C575.663 504.754 559.974 521.776 546.611 533.416C533.248 545.056 522.216 551.315 515.97 555.436C509.718 559.558 508.25 561.548 514.089 562.985C519.933 564.422 533.083 565.311 555.956 558.529C578.828 551.747 611.424 537.294 631.045 518.232C632.104 517.204 633.127 516.156 634.107 515.103Z" fill="#E25243"/>
<path d="M646.277 586.247C645.224 580.226 643.988 574.229 642.57 568.281L642.594 568.251C638.716 567.453 633.833 567.399 628.981 567.527C618.741 567.794 608.635 568.854 591.388 576.719C574.141 584.585 549.752 599.245 533.089 609.777C516.427 620.303 507.489 626.696 503.137 631.225C498.784 635.749 499.015 638.409 505.706 639.45C512.396 640.491 525.54 639.919 540.365 637.636C555.183 635.353 571.675 631.365 587.498 625.91C603.32 620.455 618.48 613.546 630.449 603.701C637.054 598.271 642.685 591.945 646.277 586.253V586.247Z" fill="#E25243"/>
<path d="M417.424 511.706C423.177 573.846 414.867 636.065 392.816 696.33C395.428 696.184 398.088 696.074 400.7 696.038C422.434 635.992 430.635 573.998 424.991 512.114C422.434 512.041 419.932 511.894 417.43 511.675V511.712L417.424 511.706Z" fill="#E25243"/>
<path d="M567.955 570.254C572.43 589.005 577.811 616.912 568.223 635.024C556.93 656.381 529.18 659.206 509.632 648.339C492.799 639.018 481.457 622.075 477.883 603.275C477.031 598.801 476.659 594.168 476.769 589.638C476.769 587.879 477.408 575.313 477.299 575.417C477.67 575.094 475.862 575.471 477.037 574.723C477.463 574.406 479.381 574.723 479.862 574.723C496.159 571.526 515.708 574.028 532.328 573.712C545.375 573.444 558.427 573.231 571.474 572.963C576.162 572.86 576.162 565.615 571.474 565.718C539.676 566.303 507.879 566.942 476.075 567.527C474.474 567.527 472.988 568.647 472.562 570.187C461.75 609.388 485.134 657.647 528.754 661.854C546.811 663.607 565.824 655.145 574.506 638.738C585.263 618.495 580.046 589.577 574.932 568.373C573.866 563.843 566.835 565.761 567.955 570.29V570.236V570.254Z" fill="#E25243"/>
<path d="M284.638 573.019C278.246 591.557 271.056 617.759 279.256 636.778C286.343 653.131 304.077 662.025 321.337 660.96C360.111 658.616 383.124 618.666 377.048 583.033C376.78 581.329 375.02 580.531 373.535 580.373C345.037 577.019 316.539 573.719 288.102 570.358C283.469 569.829 283.524 577.073 288.102 577.603C299.073 578.881 309.995 580.16 320.965 581.438C336.094 583.198 354.151 582.662 368.744 587.033C369.541 587.301 372.579 586.93 373.109 587.569C372.683 587.088 370.016 607.544 369.913 608.183C366.4 624.48 356.117 639.926 341.098 647.761C323.309 657.082 298.275 656.071 287.305 636.736C277.503 619.373 285.545 592.525 291.621 574.949C293.167 570.529 286.136 568.611 284.644 573.031L284.638 573.019Z" fill="#E25243"/>
<path d="M492.634 117.935C497.639 120.066 502.113 123.049 505.894 126.939C507.544 128.589 510.101 126.032 508.451 124.382C504.402 120.279 499.715 117.083 494.442 114.848C492.312 113.941 490.449 117.083 492.634 117.99V117.935Z" fill="#D88185"/>
<path d="M541.314 176.203C542.537 180.464 543.816 184.781 545.04 189.042C545.679 191.277 549.192 190.321 548.552 188.086C547.329 183.825 546.05 179.508 544.827 175.247C544.187 173.013 540.668 173.968 541.308 176.203H541.314Z" fill="#D88185"/>
<path d="M546.587 244.382C546.428 249.228 547.548 253.867 549.837 258.177C550.958 260.253 554.099 258.39 552.979 256.369C550.958 252.637 550.105 248.643 550.209 244.437C550.264 242.093 546.641 242.093 546.587 244.437V244.382Z" fill="#D88185"/>
<path d="M528.639 283.315C529.437 288.112 530.185 292.849 530.983 297.646C531.354 299.935 534.873 298.979 534.502 296.684C533.698 291.893 532.955 287.15 532.158 282.359C531.786 280.07 528.268 281.026 528.639 283.315Z" fill="#D88185"/>
<path d="M568.381 294.133C568.381 299.563 569.818 304.677 572.485 309.365C573.66 311.392 576.801 309.578 575.626 307.557C573.227 303.405 572.059 298.93 572.004 294.133C572.004 291.789 568.381 291.789 568.381 294.133Z" fill="#D88185"/>
<path d="M551.067 332.427C552.291 336.421 553.088 340.524 553.411 344.731C553.569 347.02 557.191 347.075 557.033 344.731C556.717 340.201 555.919 335.782 554.586 331.471C553.892 329.231 550.379 330.193 551.073 332.427H551.067Z" fill="#D88185"/>
<path d="M484.008 311.496C483.849 316.342 484.647 321.03 486.406 325.505C487.259 327.635 490.771 326.728 489.919 324.543C488.269 320.336 487.52 316.02 487.685 311.496C487.794 309.152 484.117 309.152 484.062 311.496H484.008Z" fill="#D88185"/>
<path d="M429.831 296.154C430.044 300.683 430.257 305.207 430.525 309.736C430.629 312.08 434.251 312.08 434.147 309.736C433.934 305.207 433.721 300.683 433.453 296.154C433.35 293.81 429.728 293.81 429.831 296.154Z" fill="#D88185"/>
<path d="M455.985 346.97C455.985 350.915 456.514 354.745 457.531 358.525C458.17 360.76 461.634 359.804 461.05 357.57C460.094 354.105 459.613 350.593 459.613 346.97C459.613 344.626 455.991 344.626 455.991 346.97H455.985Z" fill="#D88185"/>
<path d="M391.269 321.292C392.067 325.127 392.335 328.963 392.231 332.901C392.176 335.245 395.799 335.245 395.854 332.901C396.012 328.695 395.586 324.488 394.788 320.33C394.307 318.041 390.843 318.996 391.269 321.286V321.292Z" fill="#D88185"/>
<path d="M343.491 294.663C343.278 298.182 343.333 301.749 343.704 305.262C343.972 307.551 347.594 307.606 347.326 305.262C346.955 301.749 346.9 298.23 347.113 294.663C347.272 292.319 343.649 292.319 343.491 294.663Z" fill="#D88185"/>
<path d="M345.354 354.531C345.725 358.848 346.529 363 347.911 367.103C348.653 369.283 352.172 368.382 351.423 366.141C350.145 362.361 349.347 358.525 348.976 354.531C348.763 352.242 345.141 352.187 345.354 354.531Z" fill="#D88185"/>
<path d="M308.339 322.356C308.923 326.35 309.617 330.344 310.525 334.337C311.005 336.626 314.518 335.671 314.037 333.375C313.185 329.437 312.442 325.443 311.852 321.394C311.535 319.105 308.016 320.061 308.333 322.356H308.339Z" fill="#D88185"/>
<path d="M319.784 390.22C320.265 393.416 320.795 396.612 321.276 399.753C321.647 402.043 325.111 401.087 324.795 398.798C324.314 395.601 323.784 392.405 323.303 389.264C322.932 386.975 319.468 387.931 319.79 390.22H319.784Z" fill="#D88185"/>
<path d="M416.894 377.648C416.894 381.855 416.681 386.013 416.255 390.22C416.042 392.564 419.664 392.509 419.877 390.22C420.248 386.068 420.461 381.861 420.516 377.648C420.516 375.304 416.894 375.304 416.894 377.648Z" fill="#D88185"/>
<path d="M510.686 368.114C511.751 372.747 512.603 377.38 513.133 382.123C513.401 384.412 517.023 384.467 516.755 382.123C516.171 377.064 515.319 372.108 514.144 367.158C513.614 364.869 510.095 365.825 510.625 368.114H510.679H510.686Z" fill="#D88185"/>
<path d="M468.337 406.998C468.873 410.036 469.403 413.019 469.938 416.051C470.365 418.34 473.829 417.384 473.457 415.089C472.922 412.057 472.392 409.074 471.856 406.036C471.43 403.747 467.966 404.703 468.337 406.992V406.998Z" fill="#D88185"/>
<path d="M567.261 373.015C568.436 377.064 569.66 381.112 570.829 385.161C571.468 387.395 574.981 386.439 574.348 384.199C573.173 380.151 571.949 376.102 570.78 372.054C570.141 369.819 566.628 370.775 567.261 373.009V373.015Z" fill="#D88185"/>
<path d="M555.645 696.969V712.786C555.645 715.13 559.267 715.13 559.267 712.786V696.969C559.267 694.625 555.645 694.625 555.645 696.969Z" fill="#D88185"/>
<path d="M621.11 721.894C621.426 726.898 621.694 731.958 622.017 736.968C622.175 739.312 625.797 739.312 625.639 736.968C625.322 731.964 625.055 726.905 624.732 721.894C624.574 719.55 620.951 719.55 621.11 721.894Z" fill="#D88185"/>
<path d="M577.532 752.041V767.858C577.532 770.202 581.154 770.202 581.154 767.858V752.041C581.154 749.697 577.532 749.697 577.532 752.041Z" fill="#D88185"/>
<path d="M616.738 799.607C617.006 806.054 616.58 812.391 615.35 818.729C614.924 821.018 618.437 821.98 618.863 819.685C620.141 813.024 620.622 806.37 620.354 799.607C620.251 797.263 616.628 797.263 616.732 799.607H616.738Z" fill="#D88185"/>
<path d="M543.762 815.746C542.483 821.018 541.205 826.29 539.981 831.568C539.445 833.857 542.909 834.819 543.494 832.524C544.772 827.252 546.051 821.98 547.274 816.707C547.81 814.418 544.346 813.457 543.755 815.746H543.762Z" fill="#D88185"/>
<path d="M585.847 859.957C586.06 867.945 585.421 875.829 583.771 883.658C583.29 885.947 586.803 886.909 587.29 884.614C588.995 876.468 589.738 868.261 589.525 859.951C589.47 857.607 585.847 857.607 585.902 859.951H585.847V859.957Z" fill="#D88185"/>
<path d="M519.422 904.43V927.065C519.422 929.409 523.044 929.409 523.044 927.065V904.43C523.044 902.086 519.422 902.086 519.422 904.43Z" fill="#D88185"/>
<path fill-rule="evenodd" clip-rule="evenodd" d="M506.223 566.997C515.428 555.935 530.654 552.154 549.563 538.693C568.478 525.233 591.083 502.092 602.583 477.211C614.084 452.329 614.473 425.7 614.668 412.386C614.863 399.072 614.863 399.072 618.522 400.417C622.181 401.762 629.504 404.453 635.964 431.198C642.417 457.942 648.006 508.741 647.872 541.725C647.738 574.704 641.887 589.863 620.403 603.476C598.912 617.089 561.788 629.155 538.915 635.091C516.036 641.027 507.416 640.838 501.742 636.43C496.068 632.022 493.353 623.39 493.59 609.899C493.827 596.408 497.024 578.058 506.229 566.997H506.223Z" fill="#E86B53"/>
<path d="M435.141 497.605H337.321C326.173 497.605 319.43 506.642 322.26 517.789L360.789 669.567C363.618 680.715 374.949 689.752 386.097 689.752H483.917C495.065 689.752 501.808 680.715 498.978 669.567L460.449 517.789C457.62 506.642 446.289 497.605 435.141 497.605Z" fill="#FEFEFE"/>
<path d="M427.204 497.605H329.384C318.236 497.605 311.493 506.642 314.323 517.789L352.852 669.567C355.681 680.715 367.012 689.752 378.16 689.752H475.98C487.128 689.752 493.871 680.715 491.041 669.567L452.512 517.789C449.683 506.642 438.352 497.605 427.204 497.605Z" fill="#4EB0A9"/>
<path d="M400.586 487.879H347.046C343.848 487.879 341.964 490.472 342.839 493.671L346.598 507.412C347.473 510.61 350.775 513.203 353.973 513.203H407.513C410.711 513.203 412.595 510.61 411.72 507.412L407.961 493.671C407.086 490.472 403.784 487.879 400.586 487.879Z" fill="#FEFEFE"/>
<path d="M490.266 644.861C477.293 645.689 464.283 645.933 451.26 645.269C438.829 644.672 426.178 643.23 415.086 637.513C404.048 631.851 394.843 621.136 394.113 608.747C393.199 593.862 404.681 580.487 418.215 574.119C431.694 567.751 447.005 566.758 461.896 565.206C469.159 564.469 476.41 563.52 483.649 562.466C488.489 589.619 492.872 617.873 490.278 644.922L490.272 644.867L490.266 644.861Z" fill="#FEB2B6"/>
<path d="M524.657 641.215C513.242 642.895 501.748 644.15 490.266 644.923C492.805 617.935 488.421 589.625 483.636 562.467C494.729 560.811 505.748 558.79 516.682 556.403C522.825 584.585 526.538 613.204 524.657 641.215Z" fill="#FFE5B8"/>
<path d="M289.637 180.044C295.517 179.003 303.493 177.956 311.565 177.177C318.944 176.458 326.359 175.977 332.222 175.935C338.876 175.886 343.722 176.416 347.619 178.005C352.191 179.868 355.186 182.869 357.591 187.569C359.527 191.356 361.024 196.317 361.986 201.395C362.991 206.697 363.447 212.292 363.234 216.883C362.991 222.124 361.877 226.319 359.027 229.868C356.263 233.32 352.16 235.707 345.969 237.302H345.944C335.966 239.877 319.76 240.553 307.298 241.07L304.552 241.186C292.151 241.709 284.066 242.05 278.24 239.585C274.404 237.965 271.878 235.408 270.112 231.804C268.657 228.827 267.854 225.327 267.251 221.077C266.636 216.779 266.192 211.47 266.234 206.387C266.271 202.089 266.673 197.931 267.641 194.594C268.998 189.913 271.287 186.753 275.445 184.348C278.842 182.388 283.293 181.17 289.63 180.044H289.637ZM312.692 189.048C305.197 189.779 297.563 190.783 291.694 191.824C286.69 192.713 283.396 193.541 281.436 194.68C280.231 195.374 279.543 196.372 279.098 197.912C278.459 200.128 278.185 203.185 278.161 206.484C278.124 210.807 278.532 215.501 279.086 219.397C279.537 222.55 280.042 224.973 280.827 226.568C281.302 227.536 281.941 228.206 282.873 228.602C286.227 230.02 293.277 229.722 304.089 229.265L306.835 229.15C318.749 228.651 334.243 228.005 342.979 225.759C346.511 224.84 348.617 223.768 349.725 222.386C350.754 221.101 351.18 219.086 351.314 216.322C351.484 212.651 351.095 208.049 350.255 203.599C349.481 199.52 348.361 195.69 346.979 192.999C345.963 191.002 344.794 189.773 343.132 189.097C340.794 188.147 337.33 187.831 332.271 187.867C326.846 187.904 319.796 188.372 312.686 189.06L312.692 189.048Z" fill="#4EB0A9"/>
<path d="M516.037 180.672C509.9 180.239 501.912 180.032 494.065 180.099C486.729 180.16 479.423 180.453 473.756 181.013C468.489 181.53 464.928 182.23 462.639 183.46C460.965 184.361 459.869 185.792 459.016 188.014C457.89 190.942 457.147 195.027 456.794 199.35V199.374C456.411 204.056 456.514 208.853 457.093 212.646C457.537 215.525 458.207 217.589 459.424 218.819C460.733 220.14 463.059 221.035 466.846 221.595C476.154 222.977 492.19 221.954 504.524 221.169L507.379 220.986C518.563 220.28 525.857 219.817 529.217 217.961C530.179 217.431 530.794 216.64 531.184 215.556C531.841 213.748 532.109 211.185 532.231 207.909C532.377 203.922 532.273 199.051 531.756 194.479C531.366 191.064 530.751 187.929 529.838 185.688C529.187 184.093 528.347 183.107 526.995 182.504C524.822 181.536 521.321 181.031 516.049 180.666L516.037 180.672ZM493.968 168.179C502.32 168.112 510.637 168.313 516.834 168.751C523.464 169.214 528.164 169.981 531.847 171.625C536.352 173.628 539.031 176.599 540.912 181.214C542.264 184.519 543.122 188.732 543.627 193.14C544.212 198.242 544.315 203.77 544.151 208.342C543.993 212.798 543.548 216.487 542.404 219.635C540.991 223.507 538.69 226.386 534.964 228.444C529.29 231.579 520.931 232.109 508.122 232.919L505.267 233.101C492.373 233.923 475.6 234.995 465.111 233.436C458.609 232.468 454.158 230.478 450.956 227.245C447.662 223.921 446.073 219.757 445.258 214.43C444.545 209.76 444.405 203.964 444.868 198.394C445.306 193.103 446.305 187.862 447.888 183.758C449.824 178.717 452.563 175.333 457.026 172.94C460.873 170.876 465.78 169.805 472.587 169.135C478.553 168.55 486.242 168.24 493.974 168.173L493.968 168.179Z" fill="#4EB0A9"/>
<path d="M352.24 198.734C352.373 198.613 397.364 156.794 454.092 194.625L447.456 204.536C398.563 171.935 360.349 207.471 360.239 207.568L352.246 198.734H352.24Z" fill="#4EB0A9"/>
</g>
</g>
</g>
<defs>
<clipPath id="clip0_109_560">
<rect width="732.982" height="795.017" fill="white" transform="translate(81.9973 132)"/>
</clipPath>
<clipPath id="clip1_109_560">
<rect width="477.307" height="1034.38" fill="white" transform="translate(209 57)"/>
</clipPath>
</defs>
</svg>
