<svg width="897" height="884" viewBox="0 0 897 884" fill="none" xmlns="http://www.w3.org/2000/svg">
<mask id="mask0_109_944" style="mask-type:alpha" maskUnits="userSpaceOnUse" x="0" y="0" width="897" height="884">
<rect width="897" height="884" fill="#A0A6B8"/>
</mask>
<g mask="url(#mask0_109_944)">
<path d="M438.616 375.912C430.932 374.478 424.001 371.438 418.477 367.272C409.853 360.775 404.522 351.552 404.522 341.158C404.522 330.764 409.853 321.541 418.477 315.044C426.304 309.141 436.962 305.497 448.582 305.497C460.207 305.497 470.859 309.147 478.686 315.044C487.31 321.541 492.641 330.764 492.641 341.158C492.641 351.552 487.31 360.775 478.686 367.272C473.162 371.433 466.231 374.478 458.547 375.912V401.828C482.401 397.547 490.783 378.749 490.811 378.688C493.07 373.681 498.962 371.449 503.969 373.703C508.977 375.962 511.208 381.854 508.949 386.861C508.905 386.966 492.999 422.616 448.582 422.616C404.165 422.616 388.258 386.96 388.214 386.861C385.955 381.854 388.186 375.962 393.194 373.703C398.201 371.444 404.093 373.681 406.352 378.688C406.38 378.749 414.762 397.547 438.616 401.828V375.912ZM401.966 168.206H403.741H493.416H495.192C534.222 168.206 569.702 184.168 595.414 209.88C621.127 235.593 637.089 271.073 637.089 310.103L637.083 310.818L637.089 311.884C637.089 312.291 637.078 312.697 637.056 313.093C636.264 350.947 620.473 385.273 595.414 410.326C569.702 436.038 534.222 452 495.192 452H401.96C362.93 452 327.45 436.038 301.738 410.326C276.597 385.185 260.778 350.706 260.091 312.692C260.074 312.423 260.063 312.153 260.063 311.879L260.069 310.812L260.063 310.098C260.063 271.067 276.025 235.587 301.738 209.875C327.45 184.162 362.93 168.201 401.96 168.201L401.966 168.206ZM314.105 225.738C301.771 238.572 292.201 254.078 286.381 271.271L340.521 263.466C342.835 263.13 345.039 262.971 347.122 262.971C357.741 262.971 367.355 266.736 374.742 273.189C382.085 279.609 387.131 288.639 388.653 299.22C388.978 301.49 389.148 303.755 389.148 305.981C389.148 318.876 384.031 331.287 375.786 340.889C367.52 350.519 356.032 357.411 343.319 359.242L293.224 365.172C299.105 376.693 306.762 387.169 315.831 396.238C337.943 418.351 368.432 432.075 401.966 432.075H495.197C528.731 432.075 559.22 418.351 581.332 396.238C590.083 387.488 597.525 377.418 603.318 366.371L553.844 359.242C541.131 357.411 529.638 350.513 521.377 340.889C513.132 331.287 508.015 318.876 508.015 305.981C508.015 303.749 508.185 301.485 508.515 299.215C510.043 288.634 515.083 279.603 522.427 273.183C529.814 266.73 539.427 262.965 550.046 262.965C552.13 262.965 554.334 263.125 556.648 263.46L610.788 271.265C604.967 254.072 595.398 238.572 583.058 225.732C564.057 226.419 541.532 229.184 519.332 236.5C496.324 244.079 473.728 256.573 456.057 276.773L448.582 285.314L441.112 276.773C423.441 256.573 400.85 244.079 377.836 236.5C355.631 229.184 333.112 226.419 314.105 225.732V225.738ZM280.005 310.801C280.076 323.553 282.132 335.86 285.875 347.419L340.515 339.542C348.298 338.421 355.444 334.068 360.687 327.961C365.953 321.827 369.218 314.006 369.218 305.975C369.218 304.53 369.13 303.211 368.954 302.012C368.13 296.285 365.486 291.47 361.66 288.128C357.873 284.825 352.816 282.89 347.117 282.89C345.803 282.89 344.533 282.978 343.319 283.148L281.571 292.053C281.23 294.169 280.939 296.323 280.703 298.511C280.274 302.441 280.038 306.536 280.005 310.796V310.801ZM611.288 347.419C615.037 335.854 617.092 323.548 617.164 310.801C617.131 306.541 616.895 302.447 616.466 298.517C616.229 296.329 615.938 294.174 615.597 292.058L553.85 283.154C552.635 282.978 551.366 282.896 550.052 282.896C544.347 282.896 539.295 284.825 535.508 288.134C531.683 291.476 529.039 296.29 528.214 302.018C528.039 303.211 527.951 304.535 527.951 305.975C527.951 314.006 531.221 321.827 536.481 327.961C541.725 334.068 548.87 338.421 556.653 339.542L611.294 347.419H611.288ZM340.153 293.273C345.567 293.273 349.991 297.698 349.991 303.112V316.518C349.991 321.932 345.567 326.356 340.153 326.356C334.739 326.356 330.314 321.932 330.314 316.518V303.112C330.314 297.703 334.739 293.273 340.153 293.273ZM557.021 293.273C562.435 293.273 566.86 297.698 566.86 303.112V316.518C566.86 321.932 562.435 326.356 557.021 326.356C551.607 326.356 547.183 321.932 547.183 316.518V303.112C547.183 297.703 551.607 293.273 557.021 293.273ZM448.587 188.136H403.747C387.45 188.136 371.884 191.319 357.642 197.09C350.535 199.97 343.747 203.488 337.36 207.577C352.294 209.292 368.256 212.376 384.064 217.586C406.951 225.128 429.586 237.104 448.582 255.781C467.577 237.11 490.212 225.128 513.099 217.586C528.907 212.376 544.863 209.292 559.803 207.577C553.416 203.488 546.633 199.97 539.526 197.09C525.285 191.319 509.719 188.136 493.422 188.136H448.582H448.587ZM430.471 351.387C434.983 354.784 441.381 356.889 448.587 356.889C455.798 356.889 462.191 354.784 466.703 351.387C470.419 348.589 472.722 344.956 472.722 341.158C472.722 337.36 470.419 333.727 466.703 330.929C462.191 327.532 455.798 325.427 448.587 325.427C441.376 325.427 434.978 327.532 430.471 330.929C426.755 333.727 424.457 337.366 424.457 341.158C424.457 344.956 426.76 348.589 430.471 351.387Z" fill="#4349FF"/>
<path d="M196.594 654.517C184.898 660.261 169.623 663.13 150.803 663.13C126.558 663.13 107.354 655.902 93.1068 641.37C78.893 626.876 71.7695 607.555 71.7695 583.387C71.7695 557.977 79.7064 537.206 95.6242 521.046C111.504 504.887 131.989 496.801 157.119 496.801C172.855 496.801 186.003 498.824 196.6 502.936V536.041C185.722 529.659 173.388 526.504 159.636 526.504C143.9 526.504 131.351 531.501 121.925 541.532C112.531 551.596 107.815 564.71 107.815 580.909C107.815 596.678 112.279 609.402 121.216 619.01C130.148 628.612 142.234 633.433 157.438 633.433C171.789 633.433 184.832 629.998 196.6 623.05V654.523L196.594 654.517ZM249.861 552.442C255.033 549.535 261.98 547.199 270.665 545.39C279.349 543.582 286.792 542.697 292.959 542.697C325.069 542.697 341.124 558.785 341.124 590.973V660.333H309.261V643.607H308.838C301.005 656.65 289.556 663.136 274.457 663.136C263.613 663.136 254.89 660.052 248.338 653.852C241.814 647.647 238.522 639.215 238.522 628.546C238.522 606.539 251.669 593.743 277.898 590.165L309.443 585.877C309.443 572.515 302.495 565.854 288.6 565.854C274.886 565.854 261.986 570.003 249.861 578.298V552.459V552.442ZM287.748 608.297C275.628 609.891 269.566 615.349 269.566 624.704C269.566 628.992 271.055 632.465 273.996 635.087C276.936 637.709 280.91 639.023 285.868 639.023C292.744 639.023 298.378 636.61 302.808 631.756C307.238 626.936 309.437 620.912 309.437 613.717V605.494L287.748 608.292V608.297ZM394.704 660.327V490.349H428.128V660.327H394.704ZM663.635 660.327H630.178V594.793C630.178 577.215 623.797 568.421 610.968 568.421C605.015 568.421 600.09 571.081 596.117 576.434C592.181 581.749 590.197 588.274 590.197 595.963V660.327H556.773V593.979C556.773 576.935 550.43 568.426 537.777 568.426C531.467 568.426 526.438 570.976 522.678 576.083C518.886 581.15 517.006 587.884 517.006 596.249V660.327H483.477V545.495H517.006V563.463H517.435C521.436 556.867 526.757 551.766 533.418 548.117C540.047 544.5 547.066 542.697 554.398 542.697C570.525 542.697 581.545 549.93 587.504 564.386C596.364 549.925 609.231 542.697 626.133 542.697C651.12 542.697 663.63 558.115 663.63 588.983V660.327H663.635ZM825.001 545.495L777.649 670.605C766.65 699.66 750.183 716.798 728.208 716.798C719.562 716.798 712.862 715.874 708.074 714.072V687.205C712.576 689.755 717.539 691.03 722.926 691.03C732.072 691.03 738.514 684.033 742.246 675.173L748.589 660.113L702.16 545.489H739.338L761.769 617.438C763.154 621.797 764.144 626.689 764.781 632.075H765.386C765.881 628.426 767.018 623.605 768.821 617.652L791.753 545.489H825.001V545.495Z" fill="#24252F"/>
</g>
</svg>
