<svg width="48" height="48" viewBox="0 0 48 48" fill="none" xmlns="http://www.w3.org/2000/svg">
<g clip-path="url(#clip0_109_1322)">
<path d="M33.2373 0C33.349 0 33.4607 0 33.5787 0C33.8527 3.38506 32.5607 5.91437 30.9904 7.74601C29.4496 9.56501 27.3397 11.3292 23.9273 11.0615C23.6996 7.72494 24.9938 5.38322 26.562 3.55579C28.0163 1.85272 30.6827 0.337241 33.2373 0Z" fill="white"/>
<path d="M43.5674 35.2333C43.5674 35.267 43.5674 35.2965 43.5674 35.3281C42.6083 38.2326 41.2404 40.7219 39.5711 43.032C38.0472 45.1292 36.1797 47.9515 32.8452 47.9515C29.9639 47.9515 28.0501 46.0988 25.0971 46.0482C21.9734 45.9976 20.2556 47.5974 17.3996 48C17.0728 48 16.7461 48 16.4258 48C14.3285 47.6964 12.636 46.0355 11.403 44.539C7.76709 40.1169 4.95745 34.4049 4.43472 27.0952C4.43472 26.3786 4.43472 25.664 4.43472 24.9474C4.65604 19.7159 7.198 15.4625 10.5767 13.4011C12.3599 12.3051 14.8112 11.3713 17.5408 11.7886C18.7106 11.9699 19.9057 12.3704 20.9532 12.7667C21.946 13.1482 23.1875 13.8247 24.3636 13.7889C25.1603 13.7657 25.9528 13.3505 26.7559 13.0575C29.1082 12.2081 31.414 11.2343 34.4534 11.6917C38.1062 12.2439 40.6987 13.8669 42.3006 16.3709C39.2106 18.3375 36.7677 21.301 37.1851 26.3617C37.5561 30.9587 40.2287 33.6482 43.5674 35.2333Z" fill="white"/>
</g>
<defs>
<clipPath id="clip0_109_1322">
<rect width="48" height="48" fill="white"/>
</clipPath>
</defs>
</svg>
