<svg width="69" height="52" viewBox="0 0 69 52" fill="none" xmlns="http://www.w3.org/2000/svg">
<path d="M32.679 38.0157C31.2727 37.7532 30.0041 37.1969 28.9931 36.4343C27.4148 35.2453 26.439 33.5573 26.439 31.655C26.439 29.7527 27.4148 28.0646 28.9931 26.8756C30.4256 25.7952 32.3762 25.1282 34.5028 25.1282C36.6305 25.1282 38.5801 25.7962 40.0126 26.8756C41.5909 28.0646 42.5667 29.7527 42.5667 31.655C42.5667 33.5573 41.5909 35.2453 40.0126 36.4343C39.0016 37.1959 37.733 37.7532 36.3267 38.0157V42.7589C40.6926 41.9752 42.2267 38.5348 42.2317 38.5237C42.6452 37.6073 43.7236 37.1989 44.64 37.6113C45.5565 38.0248 45.9649 39.1032 45.5514 40.0196C45.5434 40.0387 42.6321 46.5635 34.5028 46.5635C26.3736 46.5635 23.4623 40.0377 23.4542 40.0196C23.0408 39.1032 23.4492 38.0248 24.3657 37.6113C25.2821 37.1979 26.3605 37.6073 26.774 38.5237C26.779 38.5348 28.3131 41.9752 32.679 42.7589V38.0157ZM25.9712 0.00100597H26.2961H42.7086H43.0335C50.1769 0.00100597 56.6705 2.92235 61.3764 7.62829C66.0823 12.3342 69.0037 18.8278 69.0037 25.9712L69.0027 26.102L69.0037 26.2971C69.0037 26.3716 69.0017 26.446 68.9976 26.5185C68.8528 33.4466 65.9626 39.7289 61.3764 44.3141C56.6705 49.0201 50.1769 51.9414 43.0335 51.9414H25.9702C18.8268 51.9414 12.3332 49.0201 7.62729 44.3141C3.02597 39.7128 0.130775 33.4023 0.00502864 26.445C0.00201072 26.3957 0 26.3464 0 26.2961L0.00100389 26.101L0 25.9702C0 18.8268 2.92135 12.3332 7.62729 7.62729C12.3332 2.92135 18.8268 0 25.9702 0L25.9712 0.00100597ZM9.89072 10.5305C7.63332 12.8795 5.88192 15.7173 4.8166 18.864L14.7254 17.4355C15.1489 17.3742 15.5523 17.345 15.9336 17.345C17.8771 17.345 19.6366 18.0341 20.9886 19.2151C22.3326 20.3901 23.2561 22.0429 23.5347 23.9794C23.5941 24.3948 23.6253 24.8093 23.6253 25.2167C23.6253 27.5767 22.6887 29.8482 21.1797 31.6057C19.6668 33.3681 17.5643 34.6296 15.2375 34.9646L6.06903 36.0501C7.14542 38.1586 8.54674 40.076 10.2066 41.7358C14.2536 45.7828 19.8338 48.2948 25.9712 48.2948H43.0345C49.1719 48.2948 54.7521 45.7828 58.7991 41.7358C60.4006 40.1343 61.7627 38.2914 62.823 36.2694L53.7682 34.9646C51.4414 34.6296 49.3379 33.3671 47.8259 31.6057C46.317 29.8482 45.3804 27.5767 45.3804 25.2167C45.3804 24.8083 45.4116 24.3938 45.472 23.9784C45.7516 22.0419 46.6741 20.3891 48.0181 19.2141C49.3701 18.0331 51.1296 17.344 53.0731 17.344C53.4544 17.344 53.8578 17.3732 54.2813 17.4345L64.1901 18.863C63.1248 15.7163 61.3734 12.8795 59.115 10.5295C55.6373 10.6553 51.5149 11.1613 47.4517 12.5002C43.2407 13.8875 39.1052 16.174 35.871 19.871L34.5028 21.4343L33.1357 19.871C29.9015 16.174 25.767 13.8875 21.555 12.5002C17.4908 11.1613 13.3694 10.6553 9.89072 10.5295V10.5305ZM3.64967 26.099C3.66275 28.4328 4.03898 30.6852 4.72405 32.8008L14.7244 31.3592C16.1489 31.154 17.4566 30.3572 18.4163 29.2396C19.3801 28.1169 19.9776 26.6854 19.9776 25.2157C19.9776 24.9511 19.9615 24.7097 19.9293 24.4904C19.7784 23.4422 19.2946 22.561 18.5944 21.9493C17.9013 21.3447 16.9758 20.9906 15.9326 20.9906C15.6922 20.9906 15.4598 21.0067 15.2375 21.0379L3.93637 22.6676C3.874 23.0549 3.82068 23.4492 3.77743 23.8496C3.69896 24.5689 3.6557 25.3183 3.64967 26.098V26.099ZM64.2817 32.8008C64.9677 30.6842 65.344 28.4318 65.357 26.099C65.351 25.3193 65.3077 24.5699 65.2293 23.8506C65.186 23.4502 65.1327 23.0559 65.0703 22.6686L53.7692 21.0389C53.5469 21.0067 53.3145 20.9916 53.0741 20.9916C52.0299 20.9916 51.1054 21.3447 50.4123 21.9503C49.7121 22.562 49.2283 23.4432 49.0774 24.4914C49.0452 24.7097 49.0291 24.9522 49.0291 25.2157C49.0291 26.6854 49.6276 28.1169 50.5904 29.2396C51.5501 30.3572 52.8578 31.154 54.2823 31.3592L64.2827 32.8008H64.2817ZM14.658 22.8909C15.6489 22.8909 16.4587 23.7007 16.4587 24.6916V27.1452C16.4587 28.1361 15.6489 28.9459 14.658 28.9459C13.6671 28.9459 12.8573 28.1361 12.8573 27.1452V24.6916C12.8573 23.7017 13.6671 22.8909 14.658 22.8909ZM54.3497 22.8909C55.3406 22.8909 56.1504 23.7007 56.1504 24.6916V27.1452C56.1504 28.1361 55.3406 28.9459 54.3497 28.9459C53.3588 28.9459 52.549 28.1361 52.549 27.1452V24.6916C52.549 23.7017 53.3588 22.8909 54.3497 22.8909ZM34.5039 3.64866H26.2971C23.3144 3.64866 20.4655 4.23112 17.859 5.28739C16.5583 5.81452 15.3159 6.45835 14.147 7.20679C16.8802 7.52065 19.8016 8.08501 22.6947 9.03867C26.8836 10.4189 31.0262 12.6109 34.5028 16.0292C37.9795 12.6119 42.1221 10.4189 46.311 9.03867C49.2041 8.08501 52.1245 7.52065 54.8587 7.20679C53.6898 6.45835 52.4484 5.81452 51.1477 5.28739C48.5412 4.23112 45.6923 3.64866 42.7096 3.64866H34.5028H34.5039ZM31.1882 33.5271C32.0141 34.1488 33.185 34.5341 34.5039 34.5341C35.8237 34.5341 36.9936 34.1488 37.8195 33.5271C38.4996 33.015 38.9211 32.3501 38.9211 31.655C38.9211 30.9598 38.4996 30.2949 37.8195 29.7828C36.9936 29.1611 35.8237 28.7759 34.5039 28.7759C33.184 28.7759 32.0131 29.1611 31.1882 29.7828C30.5081 30.2949 30.0876 30.9608 30.0876 31.655C30.0876 32.3501 30.5091 33.015 31.1882 33.5271Z" fill="#4349FF"/>
</svg>
