<svg width="44" height="48" viewBox="0 0 44 48" fill="none" xmlns="http://www.w3.org/2000/svg">
<path d="M0.868141 0.75185C0.258867 1.48284 -0.049244 2.41838 0.00641555 3.36836V44.6372C-0.0460946 45.5868 0.261646 46.5212 0.868141 47.2537L1.00915 47.3947L24.1191 24.2691V23.7208L1.00915 0.61084L0.868141 0.75185Z" fill="url(#paint0_linear_109_1287)"/>
<path d="M31.8276 31.9778L24.1191 24.2693V23.7209L31.8276 16.0281L32 16.1221L41.1342 21.3081C43.7508 22.7809 43.7508 25.2094 41.1342 26.6978L32 31.8838L31.8276 31.9778Z" fill="url(#paint1_linear_109_1287)"/>
<path d="M32 31.8837L24.1661 24.0498L0.868164 47.2537C1.40518 47.6952 2.07377 47.9456 2.76869 47.9655C3.46362 47.9853 4.14541 47.7735 4.70676 47.3634L31.953 31.8837" fill="url(#paint2_linear_109_1287)"/>
<path d="M32 16.122L4.70676 0.626602C4.15144 0.199658 3.46511 -0.0212487 2.76501 0.00161181C2.06491 0.0244723 1.39445 0.289682 0.868164 0.751943L24.1191 24.0029L32 16.122Z" fill="url(#paint3_linear_109_1287)"/>
<path opacity="0.1" d="M31.8276 31.7114L4.70677 47.0971C4.16578 47.5003 3.50913 47.718 2.83447 47.718C2.15981 47.718 1.50317 47.5003 0.962177 47.0971L0.821167 47.2382L0.962177 47.3792C1.50317 47.7823 2.15981 48 2.83447 48C3.50913 48 4.16578 47.7823 4.70677 47.3792L31.953 31.8994L31.8276 31.7114Z" fill="black"/>
<path opacity="0.07" d="M0.868163 47.003C0.260653 46.2649 -0.0469613 45.3253 0.00643693 44.3708V44.6372C-0.0460732 45.5868 0.261668 46.5212 0.868163 47.2537L1.00917 47.1127L0.868163 47.003Z" fill="black"/>
<path opacity="0.07" d="M41.1342 26.4157L31.8276 31.7114L31.9999 31.8837L41.1342 26.635C41.67 26.3994 42.1336 26.0258 42.4777 25.5523C42.8218 25.0789 43.034 24.5225 43.0927 23.9402C42.9858 24.4785 42.7525 24.9837 42.4119 25.4141C42.0714 25.8445 41.6335 26.1878 41.1342 26.4157Z" fill="black"/>
<path opacity="0.3" d="M4.70673 0.908695L41.1342 21.5744C41.6286 21.7967 42.0637 22.1325 42.4039 22.5544C42.7442 22.9764 42.9802 23.4727 43.0927 24.0029C43.0372 23.4196 42.8262 22.8619 42.4818 22.3879C42.1373 21.9139 41.6719 21.541 41.1342 21.3081L4.70673 0.626676C2.13722 -0.846092 0.00640869 0.375992 0.00640869 3.36853V3.63488C0.00640869 0.658011 2.13722 -0.57974 4.70673 0.908695Z" fill="white"/>
<defs>
<linearGradient id="paint0_linear_109_1287" x1="22.0823" y1="2.92967" x2="-9.23755" y2="34.2495" gradientUnits="userSpaceOnUse">
<stop stop-color="#008EFF"/>
<stop offset="0.01" stop-color="#008FFF"/>
<stop offset="0.26" stop-color="#00ACFF"/>
<stop offset="0.51" stop-color="#00C0FF"/>
<stop offset="0.76" stop-color="#00CDFF"/>
<stop offset="1" stop-color="#00D1FF"/>
</linearGradient>
<linearGradient id="paint1_linear_109_1287" x1="41.4476" y1="24.003" x2="-3.70683" y2="24.003" gradientUnits="userSpaceOnUse">
<stop stop-color="#FFD800"/>
<stop offset="1" stop-color="#FF8A00"/>
</linearGradient>
<linearGradient id="paint2_linear_109_1287" x1="27.7227" y1="28.2801" x2="-14.7369" y2="70.7397" gradientUnits="userSpaceOnUse">
<stop stop-color="#FF3A44"/>
<stop offset="1" stop-color="#B11162"/>
</linearGradient>
<linearGradient id="paint3_linear_109_1287" x1="-4.99157" y1="-12.9887" x2="13.9821" y2="5.9693" gradientUnits="userSpaceOnUse">
<stop stop-color="#328E71"/>
<stop offset="0.07" stop-color="#2D9571"/>
<stop offset="0.48" stop-color="#15BD74"/>
<stop offset="0.8" stop-color="#06D575"/>
<stop offset="1" stop-color="#00DE76"/>
</linearGradient>
</defs>
</svg>
