<svg width="32" height="32" viewBox="0 0 64 64" fill="none" xmlns="http://www.w3.org/2000/svg">
<path d="M32.0001 0C23.3094 0 22.2196 0.0368688 18.8064 0.192537C15.4004 0.347919 13.0742 0.888947 11.0387 1.67986C8.93444 2.49764 7.14987 3.59189 5.37093 5.37084C3.59189 7.14978 2.49765 8.93453 1.67996 11.0388C0.888852 13.0742 0.348015 15.4004 0.192442 18.8064C0.0367735 22.2196 0 23.3094 0 32.0001C0 40.6906 0.0367735 41.7804 0.192442 45.1936C0.348015 48.5996 0.888852 50.9258 1.67996 52.9612C2.49774 55.0655 3.59199 56.85 5.37093 58.6292C7.14997 60.4081 8.93444 61.5024 11.0387 62.3201C13.0742 63.1111 15.4004 63.652 18.8064 63.8075C22.2196 63.9631 23.3094 64 32.0001 64C40.6906 64 41.7804 63.9631 45.1936 63.8075C48.5996 63.6521 50.9258 63.1111 52.9612 62.3201C55.0655 61.5024 56.85 60.4081 58.6292 58.6292C60.4081 56.85 61.5024 55.0655 62.3201 52.9612C63.1111 50.9258 63.6521 48.5996 63.8075 45.1936C63.9631 41.7804 64 40.6906 64 32.0001C64 23.3094 63.9631 22.2196 63.8075 18.8064C63.6521 15.4004 63.1111 13.0742 62.3201 11.0388C61.5024 8.93453 60.4081 7.14978 58.6292 5.37084C56.85 3.59189 55.0655 2.49764 52.9612 1.67986C50.9258 0.888947 48.5996 0.347919 45.1936 0.192537C41.7804 0.0368688 40.6906 0 32.0001 0ZM32.0001 5.76572C40.5443 5.76572 41.5564 5.7984 44.9307 5.95235C48.0508 6.09459 49.7451 6.6159 50.8726 7.05413C52.3664 7.63469 53.4324 8.32806 54.5521 9.44784C55.6719 10.5676 56.3653 11.6337 56.9459 13.1273C57.3841 14.2549 57.9054 15.9493 58.0476 19.0693C58.2016 22.4436 58.2343 23.4557 58.2343 32C58.2343 40.5443 58.2016 41.5564 58.0476 44.9307C57.9054 48.0508 57.3841 49.7451 56.9459 50.8726C56.3653 52.3664 55.6719 53.4324 54.5521 54.5521C53.4324 55.6719 52.3663 56.3653 50.8727 56.9459C49.7451 57.3841 48.0507 57.9054 44.9307 58.0476C41.557 58.2016 40.545 58.2343 32 58.2343C23.455 58.2343 22.4432 58.2016 19.0693 58.0475C15.9492 57.9054 14.2549 57.3841 13.1274 56.9459C11.6336 56.3653 10.5676 55.6719 9.44793 54.5521C8.32815 53.4324 7.63469 52.3663 7.05413 50.8727C6.6159 49.7451 6.09468 48.0507 5.95235 44.9307C5.7984 41.5564 5.76572 40.5443 5.76572 32C5.76572 23.4557 5.7984 22.4436 5.95235 19.0693C6.09468 15.9492 6.6159 14.2549 7.05413 13.1274C7.63469 11.6336 8.32815 10.5676 9.44784 9.44793C10.5676 8.32806 11.6337 7.63469 13.1273 7.05413C14.2549 6.6159 15.9493 6.09459 19.0693 5.95235C22.4436 5.7984 23.4558 5.76572 32.0001 5.76572Z" fill="#0A0C1C"/>
<path d="M31.9999 42.6666C26.1087 42.6666 21.3331 37.891 21.3331 32C21.3331 26.1088 26.1087 21.3332 31.9999 21.3332C37.8909 21.3332 42.6665 26.1088 42.6665 32C42.6665 37.891 37.8909 42.6666 31.9999 42.6666ZM31.9999 15.5674C22.9244 15.5674 15.5674 22.9244 15.5674 32C15.5674 41.0753 22.9244 48.4323 31.9999 48.4323C41.0752 48.4323 48.4322 41.0753 48.4322 32C48.4322 22.9244 41.0752 15.5674 31.9999 15.5674ZM52.9215 14.9182C52.9215 17.0391 51.2022 18.7582 49.0815 18.7582C46.9608 18.7582 45.2415 17.0391 45.2415 14.9182C45.2415 12.7974 46.9608 11.0781 49.0815 11.0781C51.2022 11.0781 52.9215 12.7974 52.9215 14.9182Z" fill="#0A0C1C"/>
</svg>
