<svg width="67" height="64" viewBox="0 0 67 64" fill="none" xmlns="http://www.w3.org/2000/svg">
<path d="M36.692 2.00914L44.2399 17.3033C44.7648 18.367 45.7797 19.1041 46.9537 19.2744L63.8322 21.7271C66.7888 22.157 67.9684 25.7893 65.8298 27.8735L53.6166 39.7782C52.7678 40.606 52.3797 41.7996 52.5808 42.968L55.4634 59.7781C55.9688 62.7222 52.8781 64.9669 50.2342 63.5779L35.1383 55.6419C34.0885 55.0905 32.8335 55.0905 31.7838 55.6419L16.6878 63.5779C14.0439 64.9683 10.9532 62.7222 11.4586 59.7781L14.3412 42.968C14.5423 41.7996 14.1542 40.606 13.3054 39.7782L1.09219 27.8735C-1.04642 25.7879 0.133161 22.1556 3.0898 21.7271L19.9684 19.2744C21.1424 19.1041 22.1572 18.367 22.6821 17.3033L30.2301 2.00914C31.5506 -0.669712 35.37 -0.669712 36.692 2.00914Z" fill="#FFEAC1"/>
</svg>
